<svg width="212" height="296" viewBox="0 0 212 296" fill="none" xmlns="http://www.w3.org/2000/svg">
<path d="M202.384 0H9.61575C4.30511 0 0 4.30511 0 9.61575V285.77C0 291.08 4.30511 295.385 9.61575 295.385H202.384C207.695 295.385 212 291.08 212 285.77V9.61575C212 4.30511 207.695 0 202.384 0Z" fill="#8B93BC"/>
<path d="M208.947 285.769L208.947 9.61492C208.947 5.91846 205.951 2.92188 202.254 2.92188L9.48579 2.92188C5.78934 2.92188 2.79272 5.91846 2.79272 9.61492L2.79272 285.769C2.79272 289.465 5.78934 292.462 9.48579 292.462H202.254C205.951 292.462 208.947 289.465 208.947 285.769Z" fill="white"/>
<path d="M197.546 285.902H14.174C13.5407 285.902 12.9137 285.778 12.3286 285.535C11.7435 285.293 11.2119 284.938 10.764 284.49C10.3162 284.042 9.961 283.51 9.71864 282.925C9.47629 282.34 9.35156 281.713 9.35156 281.08V14.3225C9.35156 13.6892 9.47629 13.0621 9.71864 12.477C9.961 11.8919 10.3162 11.3603 10.764 10.9125C11.2119 10.4647 11.7435 10.1094 12.3286 9.86708C12.9137 9.62473 13.5407 9.5 14.174 9.5H197.546C198.179 9.5 198.805 9.62486 199.389 9.86739C199.973 10.1099 200.504 10.4654 200.951 10.9134C201.397 11.3614 201.751 11.8931 201.992 12.4781C202.233 13.0631 202.356 13.6899 202.354 14.3225V281.08C202.356 281.712 202.233 282.339 201.992 282.924C201.751 283.509 201.397 284.041 200.951 284.489C200.504 284.937 199.973 285.292 199.389 285.535C198.805 285.777 198.179 285.902 197.546 285.902ZM14.174 10.9614C13.2826 10.9614 12.4277 11.3155 11.7974 11.9458C11.167 12.5761 10.8129 13.4311 10.8129 14.3225V281.08C10.8129 281.971 11.167 282.826 11.7974 283.456C12.4277 284.087 13.2826 284.441 14.174 284.441H197.546C198.435 284.437 199.286 284.081 199.913 283.451C200.54 282.821 200.892 281.969 200.892 281.08V14.3225C200.892 13.4336 200.54 12.5809 199.913 11.951C199.286 11.3211 198.435 10.9652 197.546 10.9614H14.174Z" fill="#2F3247"/>
<path d="M198.717 281.065L198.717 14.3224C198.717 13.6767 198.193 13.1533 197.548 13.1533L14.1905 13.1533C13.5448 13.1533 13.0214 13.6767 13.0214 14.3224L13.0214 281.065C13.0214 281.711 13.5448 282.234 14.1905 282.234H197.548C198.193 282.234 198.717 281.711 198.717 281.065Z" fill="#2F3247"/>
<path d="M197.244 280.772L197.244 14.6143L14.4715 14.6143L14.4715 280.772H197.244Z" stroke="white" stroke-width="0.730682" stroke-miterlimit="10"/>
<path d="M191.393 274.926L191.393 20.459L20.3108 20.459L20.3108 274.926H191.393Z" stroke="white" stroke-width="0.730682" stroke-miterlimit="10"/>
<path d="M189.947 273.465L189.947 21.9209L21.7882 21.9209L21.7882 273.465H189.947Z" fill="white"/>
<path d="M187.014 270.763L187.014 25.0635L24.7 25.0635L24.7 270.763H187.014Z" fill="#2F3247"/>
<path d="M65.2704 58.2706L57.541 66L65.2704 73.7294L72.9998 66L65.2704 58.2706Z" fill="white"/>
<path d="M105.866 58.2755L98.1367 66.0049L105.866 73.7343L113.596 66.0049L105.866 58.2755Z" fill="white"/>
<path d="M146.438 58.2824L138.709 66.0117L146.438 73.7411L154.168 66.0117L146.438 58.2824Z" fill="white"/>
<path d="M65.2814 32.7941L73.012 25.0635H57.5508L65.2814 32.7941Z" fill="white"/>
<path d="M105.863 32.7941L113.594 25.0635H98.1328L105.863 32.7941Z" fill="white"/>
<path d="M138.715 25.0635L146.445 32.7941L154.176 25.0635H138.715Z" fill="white"/>
<path d="M65.2802 99.2403L57.5508 106.97L65.2801 114.699L73.0095 106.97L65.2802 99.2403Z" fill="white"/>
<path d="M105.852 99.2286L98.123 106.958L105.852 114.687L113.582 106.958L105.852 99.2286Z" fill="white"/>
<path d="M146.444 99.2335L138.715 106.963L146.444 114.692L154.174 106.963L146.444 99.2335Z" fill="white"/>
<path d="M65.2899 140.185L57.5605 147.914L65.2899 155.643L73.0193 147.914L65.2899 140.185Z" fill="white"/>
<path d="M105.868 140.193L98.1387 147.923L105.868 155.652L113.597 147.923L105.868 140.193Z" fill="white"/>
<path d="M146.444 140.195L138.715 147.925L146.444 155.654L154.174 147.925L146.444 140.195Z" fill="white"/>
<path d="M65.2841 181.136L57.5547 188.865L65.2841 196.595L73.0135 188.865L65.2841 181.136Z" fill="white"/>
<path d="M105.856 181.128L98.127 188.857L105.856 196.587L113.586 188.857L105.856 181.128Z" fill="white"/>
<path d="M146.448 181.133L138.719 188.862L146.448 196.592L154.178 188.862L146.448 181.133Z" fill="white"/>
<path d="M65.2899 222.089L57.5605 229.818L65.2899 237.548L73.0193 229.818L65.2899 222.089Z" fill="white"/>
<path d="M105.866 222.079L98.1367 229.809L105.866 237.538L113.596 229.809L105.866 222.079Z" fill="white"/>
<path d="M146.438 222.086L138.709 229.815L146.438 237.545L154.168 229.815L146.438 222.086Z" fill="white"/>
<path d="M57.5508 270.761H73.012L65.2814 263.03L57.5508 270.761Z" fill="white"/>
<path d="M98.1328 270.761H113.594L105.863 263.03L98.1328 270.761Z" fill="white"/>
<path d="M146.445 263.03L138.715 270.761H154.176L146.445 263.03Z" fill="white"/>
<path d="M187.012 237.562V222.101L179.281 229.831L187.012 237.562Z" fill="white"/>
<path d="M187.012 196.598V181.137L179.281 188.867L187.012 196.598Z" fill="white"/>
<path d="M187.012 155.637V140.19L179.281 147.906L187.012 155.637Z" fill="white"/>
<path d="M187.012 114.689V99.2275L179.281 106.958L187.012 114.689Z" fill="white"/>
<path d="M187.012 74.1077V58.6611L179.281 66.3917L187.012 74.1077Z" fill="white"/>
<path d="M178.152 24.668L188.148 34.6783V24.668H178.152Z" fill="white"/>
<path d="M188.966 272.34V260.708L177.334 272.34H188.966Z" fill="white"/>
<path d="M24.7012 237.562V222.101L32.4318 229.831L24.7012 237.562Z" fill="white"/>
<path d="M24.7012 196.977V181.516L32.4318 189.246L24.7012 196.977Z" fill="white"/>
<path d="M24.7012 155.637V140.19L32.4318 147.906L24.7012 155.637Z" fill="white"/>
<path d="M24.7012 114.689V99.2275L32.4318 106.958L24.7012 114.689Z" fill="white"/>
<path d="M24.7012 74.1077V58.6611L32.4318 66.3917L24.7012 74.1077Z" fill="white"/>
<path d="M33.4203 24.8145L23.7168 34.5325V24.8145H33.4203Z" fill="white"/>
<path d="M23.8398 271.26V261.79L33.3095 271.26H23.8398Z" fill="white"/>
<path d="M61.4135 45.6752L44.8594 29.1211L28.5636 45.4169L45.1177 61.9709L61.4135 45.6752Z" stroke="white" stroke-width="1.46136" stroke-miterlimit="10"/>
<path d="M101.982 45.6586L85.4277 29.1045L69.132 45.4003L85.6861 61.9543L101.982 45.6586Z" stroke="white" stroke-width="1.46136" stroke-miterlimit="10"/>
<path d="M142.568 45.6703L126.014 29.1162L109.718 45.412L126.272 61.9661L142.568 45.6703Z" stroke="white" stroke-width="1.46136" stroke-miterlimit="10"/>
<path d="M183.15 45.6674L166.596 29.1133L150.3 45.409L166.854 61.9632L183.15 45.6674Z" stroke="white" stroke-width="1.46136" stroke-miterlimit="10"/>
<path d="M44.8541 102.911L61.4082 86.3564L45.1124 70.0607L28.5583 86.6148L44.8541 102.911Z" stroke="white" stroke-width="1.46136" stroke-miterlimit="10"/>
<path d="M85.4537 102.911L102.008 86.3564L85.712 70.0607L69.1579 86.6148L85.4537 102.911Z" stroke="white" stroke-width="1.46136" stroke-miterlimit="10"/>
<path d="M126.022 102.905L142.576 86.3506L126.28 70.0548L109.726 86.6089L126.022 102.905Z" stroke="white" stroke-width="1.46136" stroke-miterlimit="10"/>
<path d="M166.594 102.916L183.148 86.3623L166.853 70.0665L150.299 86.6206L166.594 102.916Z" stroke="white" stroke-width="1.46136" stroke-miterlimit="10"/>
<path d="M44.8639 143.87L61.418 127.315L45.1222 111.02L28.5681 127.574L44.8639 143.87Z" stroke="white" stroke-width="1.46136" stroke-miterlimit="10"/>
<path d="M85.444 143.853L101.998 127.299L85.7023 111.003L69.1482 127.557L85.444 143.853Z" stroke="white" stroke-width="1.46136" stroke-miterlimit="10"/>
<path d="M126.018 143.862L142.572 127.308L126.277 111.012L109.722 127.566L126.018 143.862Z" stroke="white" stroke-width="1.46136" stroke-miterlimit="10"/>
<path d="M166.604 143.858L183.158 127.304L166.862 111.008L150.308 127.562L166.604 143.858Z" stroke="white" stroke-width="1.46136" stroke-miterlimit="10"/>
<path d="M44.8541 184.811L61.4082 168.257L45.1124 151.961L28.5583 168.515L44.8541 184.811Z" stroke="white" stroke-width="1.46136" stroke-miterlimit="10"/>
<path d="M85.4596 184.809L102.014 168.255L85.7179 151.959L69.1638 168.513L85.4596 184.809Z" stroke="white" stroke-width="1.46136" stroke-miterlimit="10"/>
<path d="M126.028 184.806L142.582 168.252L126.286 151.956L109.732 168.51L126.028 184.806Z" stroke="white" stroke-width="1.46136" stroke-miterlimit="10"/>
<path d="M166.6 184.815L183.154 168.261L166.859 151.965L150.304 168.519L166.6 184.815Z" stroke="white" stroke-width="1.46136" stroke-miterlimit="10"/>
<path d="M44.8678 225.771L61.4219 209.217L45.1261 192.921L28.572 209.475L44.8678 225.771Z" stroke="white" stroke-width="1.46136" stroke-miterlimit="10"/>
<path d="M85.4537 225.769L102.008 209.215L85.712 192.919L69.1579 209.473L85.4537 225.769Z" stroke="white" stroke-width="1.46136" stroke-miterlimit="10"/>
<path d="M126.022 225.762L142.576 209.208L126.28 192.912L109.726 209.466L126.022 225.762Z" stroke="white" stroke-width="1.46136" stroke-miterlimit="10"/>
<path d="M166.594 225.771L183.148 209.217L166.853 192.921L150.299 209.475L166.594 225.771Z" stroke="white" stroke-width="1.46136" stroke-miterlimit="10"/>
<path d="M44.8541 266.715L61.4082 250.161L45.1124 233.865L28.5583 250.419L44.8541 266.715Z" stroke="white" stroke-width="1.46136" stroke-miterlimit="10"/>
<path d="M85.4537 266.703L102.008 250.148L85.7121 233.853L69.158 250.407L85.4537 266.703Z" stroke="white" stroke-width="1.46136" stroke-miterlimit="10"/>
<path d="M126.022 266.708L142.576 250.154L126.28 233.859L109.726 250.413L126.022 266.708Z" stroke="white" stroke-width="1.46136" stroke-miterlimit="10"/>
<path d="M166.594 266.707L183.148 250.153L166.853 233.858L150.299 250.412L166.594 266.707Z" stroke="white" stroke-width="1.46136" stroke-miterlimit="10"/>
<path d="M44.9994 50.2869C47.6225 50.2869 49.7489 48.1606 49.7489 45.5375C49.7489 42.9145 47.6225 40.7881 44.9994 40.7881C42.3764 40.7881 40.25 42.9145 40.25 45.5375C40.25 48.1606 42.3764 50.2869 44.9994 50.2869Z" fill="white"/>
<path d="M44.9994 50.2869C47.6225 50.2869 49.7489 48.1606 49.7489 45.5375C49.7489 42.9145 47.6225 40.7881 44.9994 40.7881C42.3764 40.7881 40.25 42.9145 40.25 45.5375C40.25 48.1606 42.3764 50.2869 44.9994 50.2869Z" fill="white"/>
<path d="M44.9994 50.2869C47.6225 50.2869 49.7489 48.1606 49.7489 45.5375C49.7489 42.9145 47.6225 40.7881 44.9994 40.7881C42.3764 40.7881 40.25 42.9145 40.25 45.5375C40.25 48.1606 42.3764 50.2869 44.9994 50.2869Z" fill="white"/>
<path d="M48.3154 38.8863L44.9104 35.4375L41.3301 39.0324C42.3812 38.4067 43.5751 38.0608 44.798 38.0275C46.0208 37.9943 47.2318 38.2748 48.3154 38.8425V38.8863Z" fill="white"/>
<path d="M52.4488 45.536C52.4421 46.8243 52.0996 48.0886 51.4551 49.2041L55.05 45.6675L51.6889 42.2188C52.1947 43.2511 52.4547 44.3865 52.4488 45.536Z" fill="white"/>
<path d="M34.9453 45.4475L38.3503 48.8525C37.7826 47.7689 37.5021 46.5579 37.5353 45.3351C37.5686 44.1123 37.9146 42.9183 38.5403 41.8672L34.9453 45.4475Z" fill="white"/>
<path d="M41.6758 52.1861L45.0662 55.5911L48.6611 51.9961C47.6099 52.6218 46.416 52.9678 45.1932 53.001C43.9704 53.0343 42.7594 52.7537 41.6758 52.1861Z" fill="white"/>
<path d="M85.5815 50.2869C88.2045 50.2869 90.3309 48.1606 90.3309 45.5375C90.3309 42.9145 88.2045 40.7881 85.5815 40.7881C82.9584 40.7881 80.832 42.9145 80.832 45.5375C80.832 48.1606 82.9584 50.2869 85.5815 50.2869Z" fill="white"/>
<path d="M88.8925 38.8863L85.4875 35.4375L81.8926 39.0324C83.0091 38.3759 84.28 38.0279 85.5752 38.0241C86.7337 38.0444 87.8707 38.3399 88.8925 38.8863Z" fill="white"/>
<path d="M93.0328 45.536C93.0261 46.8243 92.6836 48.0886 92.0391 49.2041L95.6194 45.6237L92.229 42.2188C92.75 43.2475 93.0251 44.383 93.0328 45.536Z" fill="white"/>
<path d="M75.5195 45.4475L78.9099 48.8525C78.3556 47.765 78.0825 46.5559 78.1157 45.3357C78.1489 44.1154 78.4873 42.923 79.0999 41.8672L75.5195 45.4475Z" fill="white"/>
<path d="M82.2461 52.1861L85.6511 55.5911L89.246 51.9961C88.1922 52.6217 86.9959 52.9676 85.7707 53.0009C84.5456 53.0341 83.3323 52.7536 82.2461 52.1861Z" fill="white"/>
<path d="M126.146 50.2869C128.769 50.2869 130.895 48.1606 130.895 45.5375C130.895 42.9145 128.769 40.7881 126.146 40.7881C123.523 40.7881 121.396 42.9145 121.396 45.5375C121.396 48.1606 123.523 50.2869 126.146 50.2869Z" fill="white"/>
<path d="M129.464 38.8863L126.073 35.4375L122.479 39.0324C123.53 38.4067 124.724 38.0608 125.946 38.0275C127.169 37.9943 128.38 38.2748 129.464 38.8425V38.8863Z" fill="white"/>
<path d="M133.61 45.536C133.604 46.8263 133.256 48.0919 132.602 49.2041L136.197 45.6237L132.806 42.2188C133.327 43.2475 133.602 44.383 133.61 45.536Z" fill="white"/>
<path d="M116.092 45.4475L119.497 48.8525C118.942 47.765 118.669 46.5559 118.703 45.3357C118.736 44.1154 119.074 42.923 119.687 41.8672L116.092 45.4475Z" fill="white"/>
<path d="M122.83 52.1861L126.235 55.5911L129.815 51.9961C128.764 52.6218 127.57 52.9678 126.348 53.001C125.125 53.0343 123.914 52.7537 122.83 52.1861Z" fill="white"/>
<path d="M166.726 50.2869C169.349 50.2869 171.475 48.1606 171.475 45.5375C171.475 42.9145 169.349 40.7881 166.726 40.7881C164.103 40.7881 161.977 42.9145 161.977 45.5375C161.977 48.1606 164.103 50.2869 166.726 50.2869Z" fill="white"/>
<path d="M170.057 38.8863L166.652 35.4375L163.057 39.0324C164.108 38.4067 165.302 38.0608 166.525 38.0275C167.747 37.9943 168.958 38.2748 170.042 38.8425L170.057 38.8863Z" fill="white"/>
<path d="M176.779 45.6686L173.374 42.2637C173.941 43.3473 174.222 44.5582 174.189 45.7811C174.155 47.0039 173.809 48.1978 173.184 49.249L176.779 45.6686Z" fill="white"/>
<path d="M156.678 45.4475L160.083 48.8525C159.552 47.827 159.271 46.6901 159.264 45.5352C159.275 44.2456 159.623 42.9813 160.273 41.8672L156.678 45.4475Z" fill="white"/>
<path d="M163.406 52.1861L166.811 55.5911L170.392 51.9961C169.34 52.6218 168.146 52.9678 166.924 53.001C165.701 53.0343 164.49 52.7537 163.406 52.1861Z" fill="white"/>
<path d="M44.9994 91.2352C47.6225 91.2352 49.7489 89.1088 49.7489 86.4858C49.7489 83.8627 47.6225 81.7363 44.9994 81.7363C42.3764 81.7363 40.25 83.8627 40.25 86.4858C40.25 89.1088 42.3764 91.2352 44.9994 91.2352Z" fill="white"/>
<path d="M48.3154 79.8347L44.9104 76.4297L41.3301 80.0247C42.3859 79.412 43.5783 79.0737 44.7985 79.0405C46.0188 79.0073 47.2279 79.2804 48.3154 79.8347Z" fill="white"/>
<path d="M52.4488 86.4833C52.4421 87.7716 52.0996 89.0358 51.4551 90.1513L55.05 86.5856L51.6889 83.166C52.1947 84.1984 52.4547 85.3337 52.4488 86.4833Z" fill="white"/>
<path d="M34.9453 86.4104L38.3503 89.8007C37.7826 88.7171 37.5021 87.5061 37.5353 86.2833C37.5686 85.0605 37.9146 83.8666 38.5403 82.8154L34.9453 86.4104Z" fill="white"/>
<path d="M41.6758 93.1324L45.0662 96.5373L48.6611 92.9424C47.6099 93.5681 46.416 93.914 45.1932 93.9473C43.9704 93.9805 42.7594 93.7 41.6758 93.1324Z" fill="white"/>
<path d="M85.5815 91.2352C88.2045 91.2352 90.3309 89.1088 90.3309 86.4858C90.3309 83.8627 88.2045 81.7363 85.5815 81.7363C82.9584 81.7363 80.832 83.8627 80.832 86.4858C80.832 89.1088 82.9584 91.2352 85.5815 91.2352Z" fill="white"/>
<path d="M88.8925 79.8347L85.4875 76.4297L81.8926 80.0247C82.9502 79.4095 84.1452 79.0697 85.3683 79.0365C86.5913 79.0033 87.8031 79.2778 88.8925 79.8347Z" fill="white"/>
<path d="M93.0328 86.4833C93.0261 87.7716 92.6836 89.0358 92.0391 90.1513L95.6194 86.571L92.229 83.166C92.75 84.1947 93.0251 85.3302 93.0328 86.4833Z" fill="white"/>
<path d="M75.5195 86.4104L78.9099 89.8007C78.3556 88.7132 78.0825 87.5041 78.1157 86.2839C78.1489 85.0637 78.4873 83.8712 79.0999 82.8154L75.5195 86.4104Z" fill="white"/>
<path d="M82.2461 93.1324L85.6511 96.5373L89.246 92.9424C88.1922 93.568 86.9959 93.9139 85.7707 93.9471C84.5456 93.9804 83.3323 93.6999 82.2461 93.1324Z" fill="white"/>
<path d="M126.146 91.2352C128.769 91.2352 130.895 89.1088 130.895 86.4858C130.895 83.8627 128.769 81.7363 126.146 81.7363C123.523 81.7363 121.396 83.8627 121.396 86.4858C121.396 89.1088 123.523 91.2352 126.146 91.2352Z" fill="white"/>
<path d="M129.464 79.8347L126.073 76.4297L122.479 80.0247C123.534 79.412 124.727 79.0737 125.947 79.0405C127.167 79.0073 128.376 79.2804 129.464 79.8347Z" fill="white"/>
<path d="M133.61 86.4833C133.604 87.7736 133.256 89.0391 132.602 90.1513L136.197 86.571L132.806 83.166C133.327 84.1947 133.602 85.3302 133.61 86.4833Z" fill="white"/>
<path d="M116.092 86.4104L119.497 89.8007C118.942 88.7132 118.669 87.5041 118.703 86.2839C118.736 85.0637 119.074 83.8712 119.687 82.8154L116.092 86.4104Z" fill="white"/>
<path d="M122.83 93.1324L126.235 96.5373L129.815 92.9424C128.764 93.5681 127.57 93.914 126.348 93.9473C125.125 93.9805 123.914 93.7 122.83 93.1324Z" fill="white"/>
<path d="M166.726 91.2352C169.349 91.2352 171.475 89.1088 171.475 86.4858C171.475 83.8627 169.349 81.7363 166.726 81.7363C164.103 81.7363 161.977 83.8627 161.977 86.4858C161.977 89.1088 164.103 91.2352 166.726 91.2352Z" fill="white"/>
<path d="M170.052 79.8347L166.661 76.4297L163.066 80.0247C164.122 79.412 165.315 79.0737 166.535 79.0405C167.755 79.0073 168.964 79.2804 170.052 79.8347Z" fill="white"/>
<path d="M176.779 86.5866L173.374 83.1816C173.941 84.2653 174.222 85.4762 174.189 86.699C174.155 87.9219 173.809 89.1158 173.184 90.167L176.779 86.5866Z" fill="white"/>
<path d="M156.678 86.4104L160.083 89.8007C159.552 88.7752 159.271 87.6383 159.264 86.4834C159.275 85.1938 159.623 83.9295 160.273 82.8154L156.678 86.4104Z" fill="white"/>
<path d="M163.406 93.1324L166.811 96.5373L170.392 92.9424C169.34 93.5681 168.146 93.914 166.924 93.9473C165.701 93.9805 164.49 93.7 163.406 93.1324Z" fill="white"/>
<path d="M44.9994 132.18C47.6225 132.18 49.7489 130.053 49.7489 127.43C49.7489 124.807 47.6225 122.681 44.9994 122.681C42.3764 122.681 40.25 124.807 40.25 127.43C40.25 130.053 42.3764 132.18 44.9994 132.18Z" fill="white"/>
<path d="M48.3154 120.782L44.9104 117.392L41.3301 120.972C42.3859 120.359 43.5783 120.021 44.7985 119.988C46.0188 119.955 47.2279 120.228 48.3154 120.782Z" fill="white"/>
<path d="M52.4488 127.505C52.4406 128.797 52.0983 130.066 51.4551 131.187L55.05 127.505L51.6889 124.114C52.2058 125.169 52.4661 126.33 52.4488 127.505Z" fill="white"/>
<path d="M34.9453 127.357L38.3503 130.762C37.7827 129.675 37.5023 128.462 37.5355 127.237C37.5688 126.012 37.9146 124.816 38.5403 123.762L34.9453 127.357Z" fill="white"/>
<path d="M41.6758 134.094L45.0662 137.485L48.6611 133.904C47.6053 134.517 46.4128 134.855 45.1926 134.888C43.9724 134.922 42.7633 134.649 41.6758 134.094Z" fill="white"/>
<path d="M85.5815 132.18C88.2045 132.18 90.3309 130.053 90.3309 127.43C90.3309 124.807 88.2045 122.681 85.5815 122.681C82.9584 122.681 80.832 124.807 80.832 127.43C80.832 130.053 82.9584 132.18 85.5815 132.18Z" fill="white"/>
<path d="M88.8925 120.782L85.4875 117.392L81.8926 120.972C82.9502 120.357 84.1452 120.017 85.3683 119.984C86.5913 119.951 87.8031 120.225 88.8925 120.782Z" fill="white"/>
<path d="M93.0328 127.505C93.0246 128.797 92.6823 130.066 92.0391 131.187L95.6194 127.592L92.229 124.188C92.75 125.216 93.0251 126.352 93.0328 127.505Z" fill="white"/>
<path d="M75.5195 127.357L78.9099 130.762C78.353 129.672 78.0786 128.46 78.1117 127.237C78.1449 126.014 78.4847 124.819 79.0999 123.762L75.5195 127.357Z" fill="white"/>
<path d="M82.2461 134.094L85.6511 137.485L89.246 133.904C88.1885 134.519 86.9933 134.859 85.7703 134.892C84.5473 134.926 83.3355 134.651 82.2461 134.094Z" fill="white"/>
<path d="M126.146 132.18C128.769 132.18 130.895 130.053 130.895 127.43C130.895 124.807 128.769 122.681 126.146 122.681C123.523 122.681 121.396 124.807 121.396 127.43C121.396 130.053 123.523 132.18 126.146 132.18Z" fill="white"/>
<path d="M129.464 120.782L126.073 117.392L122.479 120.972C123.534 120.359 124.727 120.021 125.947 119.988C127.167 119.955 128.376 120.228 129.464 120.782Z" fill="white"/>
<path d="M133.61 127.505C133.606 128.8 133.258 130.071 132.602 131.187L136.197 127.592L132.806 124.188C133.327 125.216 133.602 126.352 133.61 127.505Z" fill="white"/>
<path d="M116.092 127.357L119.497 130.762C118.94 129.672 118.665 128.46 118.699 127.237C118.732 126.014 119.072 124.819 119.687 123.762L116.092 127.357Z" fill="white"/>
<path d="M122.83 134.094L126.235 137.485L129.815 133.904C128.76 134.517 127.567 134.855 126.347 134.888C125.127 134.922 123.918 134.649 122.83 134.094Z" fill="white"/>
<path d="M166.726 132.18C169.349 132.18 171.475 130.053 171.475 127.43C171.475 124.807 169.349 122.681 166.726 122.681C164.103 122.681 161.977 124.807 161.977 127.43C161.977 130.053 164.103 132.18 166.726 132.18Z" fill="white"/>
<path d="M170.052 120.782L166.661 117.392L163.066 120.972C164.122 120.359 165.315 120.021 166.535 119.988C167.755 119.955 168.964 120.228 170.052 120.782Z" fill="white"/>
<path d="M176.779 127.505L173.374 124.1C173.905 125.125 174.185 126.262 174.192 127.417C174.188 128.712 173.84 129.983 173.184 131.1L176.779 127.505Z" fill="white"/>
<path d="M156.678 127.357L160.083 130.762C159.549 129.732 159.269 128.59 159.264 127.43C159.279 126.141 159.627 124.877 160.273 123.762L156.678 127.357Z" fill="white"/>
<path d="M163.406 134.094L166.811 137.485L170.392 133.904C169.336 134.517 168.143 134.855 166.923 134.888C165.703 134.922 164.494 134.649 163.406 134.094Z" fill="white"/>
<path d="M44.9994 163.644C44.0601 163.644 43.1418 163.922 42.3608 164.444C41.5798 164.966 40.971 165.708 40.6115 166.575C40.2521 167.443 40.158 168.398 40.3413 169.32C40.5245 170.241 40.9769 171.087 41.6411 171.751C42.3053 172.416 43.1516 172.868 44.0729 173.051C44.9942 173.234 45.9491 173.14 46.817 172.781C47.6848 172.421 48.4266 171.813 48.9484 171.032C49.4703 170.251 49.7489 169.332 49.7489 168.393C49.7508 167.769 49.6293 167.15 49.3913 166.573C49.1533 165.996 48.8035 165.472 48.3621 165.03C47.9207 164.589 47.3963 164.239 46.8192 164.001C46.2421 163.763 45.6237 163.642 44.9994 163.644Z" fill="white"/>
<path d="M48.3154 161.744L44.9104 158.339L41.3301 161.934C42.3812 161.308 43.5751 160.962 44.798 160.929C46.0208 160.896 47.2318 161.176 48.3154 161.744Z" fill="white"/>
<path d="M52.4488 168.423C52.4407 169.711 52.0983 170.975 51.4551 172.091L55.05 168.423L51.6889 165.076C52.2006 166.117 52.4609 167.263 52.4488 168.423Z" fill="white"/>
<path d="M34.9453 168.305L38.3503 171.71C37.7826 170.626 37.5021 169.415 37.5353 168.193C37.5686 166.97 37.9146 165.776 38.5403 164.725L34.9453 168.305Z" fill="white"/>
<path d="M41.6758 175.043L45.0662 178.447L48.6611 174.853C47.6053 175.465 46.4128 175.804 45.1926 175.837C43.9724 175.87 42.7633 175.597 41.6758 175.043Z" fill="white"/>
<path d="M85.5765 163.644C84.6366 163.641 83.7169 163.917 82.9339 164.437C82.151 164.957 81.5399 165.698 81.1782 166.565C80.8165 167.433 80.7204 168.388 80.902 169.311C81.0836 170.233 81.5348 171.08 82.1984 171.746C82.862 172.412 83.7083 172.866 84.63 173.05C85.5517 173.235 86.5073 173.141 87.376 172.782C88.2447 172.423 88.9874 171.815 89.5099 171.033C90.0324 170.252 90.3113 169.333 90.3113 168.393C90.3133 167.77 90.1922 167.153 89.9551 166.577C89.7181 166 89.3696 165.477 88.9297 165.036C88.4899 164.594 87.9673 164.244 87.3919 164.005C86.8165 163.766 86.1996 163.644 85.5765 163.644Z" fill="white"/>
<path d="M88.8925 161.744L85.4875 158.339L81.8926 161.934C83.0091 161.277 84.28 160.929 85.5752 160.925C86.7301 160.932 87.8669 161.213 88.8925 161.744Z" fill="white"/>
<path d="M93.0328 168.423C93.0248 169.711 92.6823 170.975 92.0391 172.091L95.6194 168.496L92.229 165.105C92.7515 166.134 93.0267 167.269 93.0328 168.423Z" fill="white"/>
<path d="M75.5195 168.305L78.9099 171.71C78.3556 170.622 78.0825 169.413 78.1157 168.193C78.1489 166.973 78.4873 165.78 79.0999 164.725L75.5195 168.305Z" fill="white"/>
<path d="M82.2461 175.043L85.6511 178.447L89.246 174.853C88.1885 175.468 86.9933 175.807 85.7703 175.841C84.5473 175.874 83.3355 175.599 82.2461 175.043Z" fill="white"/>
<path d="M126.219 163.643C125.278 163.629 124.354 163.894 123.564 164.406C122.774 164.918 122.154 165.652 121.782 166.517C121.411 167.382 121.304 168.338 121.477 169.263C121.65 170.188 122.093 171.041 122.751 171.714C123.41 172.386 124.253 172.848 125.174 173.041C126.096 173.234 127.053 173.148 127.926 172.795C128.798 172.443 129.547 171.838 130.075 171.06C130.604 170.281 130.889 169.363 130.895 168.422C130.903 167.17 130.416 165.965 129.54 165.07C128.665 164.175 127.471 163.662 126.219 163.643Z" fill="white"/>
<path d="M129.464 161.744L126.073 158.339L122.479 161.934C123.53 161.308 124.724 160.962 125.946 160.929C127.169 160.896 128.38 161.176 129.464 161.744Z" fill="white"/>
<path d="M133.61 168.423C133.604 169.713 133.256 170.979 132.602 172.091L136.197 168.496L132.806 165.105C133.329 166.134 133.604 167.269 133.61 168.423Z" fill="white"/>
<path d="M116.092 168.305L119.497 171.71C118.942 170.622 118.669 169.413 118.703 168.193C118.736 166.973 119.074 165.78 119.687 164.725L116.092 168.305Z" fill="white"/>
<path d="M122.83 175.043L126.235 178.447L129.815 174.853C128.76 175.465 127.567 175.804 126.347 175.837C125.127 175.87 123.918 175.597 122.83 175.043Z" fill="white"/>
<path d="M166.725 163.644C165.789 163.652 164.876 163.938 164.102 164.463C163.327 164.989 162.725 165.732 162.371 166.599C162.018 167.466 161.928 168.418 162.114 169.336C162.3 170.253 162.753 171.095 163.416 171.756C164.079 172.417 164.922 172.868 165.84 173.051C166.759 173.234 167.71 173.141 168.576 172.785C169.442 172.429 170.183 171.825 170.707 171.048C171.23 170.272 171.513 169.359 171.518 168.422C171.522 167.793 171.401 167.168 171.161 166.586C170.921 166.003 170.568 165.474 170.122 165.029C169.676 164.585 169.146 164.233 168.563 163.995C167.98 163.757 167.355 163.638 166.725 163.644Z" fill="white"/>
<path d="M170.052 161.744L166.661 158.339L163.066 161.934C164.118 161.308 165.312 160.962 166.534 160.929C167.757 160.896 168.968 161.176 170.052 161.744Z" fill="white"/>
<path d="M176.779 168.425L173.374 165.034C173.941 166.118 174.222 167.329 174.189 168.552C174.155 169.774 173.809 170.968 173.184 172.019L176.779 168.425Z" fill="white"/>
<path d="M156.678 168.305L160.083 171.71C159.552 170.684 159.271 169.548 159.264 168.393C159.275 167.103 159.623 165.839 160.273 164.725L156.678 168.305Z" fill="white"/>
<path d="M163.406 175.043L166.811 178.447L170.392 174.853C169.336 175.465 168.143 175.804 166.923 175.837C165.703 175.87 164.494 175.597 163.406 175.043Z" fill="white"/>
<path d="M44.9994 214.091C47.6225 214.091 49.7489 211.964 49.7489 209.341C49.7489 206.718 47.6225 204.592 44.9994 204.592C42.3764 204.592 40.25 206.718 40.25 209.341C40.25 211.964 42.3764 214.091 44.9994 214.091Z" fill="white"/>
<path d="M48.3154 202.69L44.9104 199.285L41.3301 202.88C42.3812 202.254 43.5751 201.908 44.798 201.875C46.0208 201.842 47.2318 202.123 48.3154 202.69Z" fill="white"/>
<path d="M52.4488 209.341C52.4421 210.629 52.0996 211.893 51.4551 213.009L55.05 209.414L51.6889 206.023C52.1947 207.056 52.4547 208.191 52.4488 209.341Z" fill="white"/>
<path d="M34.9453 209.253L38.3503 212.658C37.7826 211.575 37.5021 210.364 37.5353 209.141C37.5686 207.918 37.9146 206.724 38.5403 205.673L34.9453 209.253Z" fill="white"/>
<path d="M41.6758 215.989L45.0662 219.394L48.6611 215.799C47.6099 216.425 46.416 216.77 45.1932 216.804C43.9704 216.837 42.7594 216.556 41.6758 215.989Z" fill="white"/>
<path d="M85.5815 214.091C88.2045 214.091 90.3309 211.964 90.3309 209.341C90.3309 206.718 88.2045 204.592 85.5815 204.592C82.9584 204.592 80.832 206.718 80.832 209.341C80.832 211.964 82.9584 214.091 85.5815 214.091Z" fill="white"/>
<path d="M88.8925 202.69L85.4875 199.285L81.8926 202.88C83.0091 202.224 84.28 201.876 85.5752 201.872C86.7301 201.879 87.8669 202.159 88.8925 202.69Z" fill="white"/>
<path d="M93.0328 209.341C93.0261 210.629 92.6836 211.893 92.0391 213.009L95.6194 209.414L92.229 206.023C92.75 207.052 93.0251 208.188 93.0328 209.341Z" fill="white"/>
<path d="M75.5195 209.253L78.9099 212.658C78.3556 211.571 78.0825 210.362 78.1157 209.141C78.1489 207.921 78.4873 206.729 79.0999 205.673L75.5195 209.253Z" fill="white"/>
<path d="M82.2461 215.989L85.6511 219.394L89.246 215.799C88.1922 216.424 86.9959 216.77 85.7707 216.804C84.5456 216.837 83.3323 216.556 82.2461 215.989Z" fill="white"/>
<path d="M126.146 214.091C128.769 214.091 130.895 211.964 130.895 209.341C130.895 206.718 128.769 204.592 126.146 204.592C123.523 204.592 121.396 206.718 121.396 209.341C121.396 211.964 123.523 214.091 126.146 214.091Z" fill="white"/>
<path d="M129.464 202.69L126.073 199.285L122.479 202.88C123.53 202.254 124.724 201.908 125.946 201.875C127.169 201.842 128.38 202.123 129.464 202.69Z" fill="white"/>
<path d="M133.61 209.341C133.604 210.631 133.256 211.897 132.602 213.009L136.197 209.414L132.806 206.023C133.327 207.052 133.602 208.188 133.61 209.341Z" fill="white"/>
<path d="M116.092 209.253L119.497 212.658C118.942 211.571 118.669 210.362 118.703 209.141C118.736 207.921 119.074 206.729 119.687 205.673L116.092 209.253Z" fill="white"/>
<path d="M122.83 215.989L126.235 219.394L129.815 215.799C128.764 216.425 127.57 216.77 126.348 216.804C125.125 216.837 123.914 216.556 122.83 215.989Z" fill="white"/>
<path d="M166.726 214.091C169.349 214.091 171.475 211.964 171.475 209.341C171.475 206.718 169.349 204.592 166.726 204.592C164.103 204.592 161.977 206.718 161.977 209.341C161.977 211.964 164.103 214.091 166.726 214.091Z" fill="white"/>
<path d="M170.052 202.69L166.661 199.285L163.066 202.88C164.118 202.254 165.312 201.908 166.534 201.875C167.757 201.842 168.968 202.123 170.052 202.69Z" fill="white"/>
<path d="M176.779 209.414L173.374 206.023C173.941 207.107 174.222 208.318 174.189 209.541C174.155 210.764 173.809 211.958 173.184 213.009L176.779 209.414Z" fill="white"/>
<path d="M156.678 209.253L160.083 212.658C159.552 211.633 159.271 210.496 159.264 209.341C159.275 208.051 159.623 206.787 160.273 205.673L156.678 209.253Z" fill="white"/>
<path d="M163.406 215.989L166.811 219.394L170.392 215.799C169.34 216.425 168.146 216.77 166.924 216.804C165.701 216.837 164.49 216.556 163.406 215.989Z" fill="white"/>
<path d="M44.9994 255.037C47.6225 255.037 49.7489 252.911 49.7489 250.288C49.7489 247.664 47.6225 245.538 44.9994 245.538C42.3764 245.538 40.25 247.664 40.25 250.288C40.25 252.911 42.3764 255.037 44.9994 255.037Z" fill="white"/>
<path d="M48.3154 243.638L44.9104 240.233L41.3301 243.828C42.3859 243.216 43.5783 242.877 44.7985 242.844C46.0188 242.811 47.2279 243.084 48.3154 243.638Z" fill="white"/>
<path d="M52.4488 250.258C52.4421 251.546 52.0996 252.81 51.4551 253.926L55.05 250.345L51.6889 246.97C52.1903 247.993 52.4502 249.118 52.4488 250.258Z" fill="white"/>
<path d="M34.9453 250.261L38.3503 253.651C37.7826 252.568 37.5021 251.357 37.5353 250.134C37.5686 248.911 37.9146 247.717 38.5403 246.666L34.9453 250.261Z" fill="white"/>
<path d="M41.6758 256.938L45.0662 260.343L48.6611 256.748C47.6099 257.374 46.416 257.72 45.1932 257.753C43.9704 257.786 42.7594 257.506 41.6758 256.938Z" fill="white"/>
<path d="M85.5815 255.037C88.2045 255.037 90.3309 252.911 90.3309 250.288C90.3309 247.664 88.2045 245.538 85.5815 245.538C82.9584 245.538 80.832 247.664 80.832 250.288C80.832 252.911 82.9584 255.037 85.5815 255.037Z" fill="white"/>
<path d="M88.8925 243.638L85.4875 240.233L81.8926 243.828C82.9502 243.213 84.1452 242.873 85.3683 242.84C86.5913 242.807 87.8031 243.081 88.8925 243.638Z" fill="white"/>
<path d="M93.0328 250.261C93.0261 251.549 92.6836 252.813 92.0391 253.929L95.6194 250.348L92.229 246.943C92.75 247.972 93.0251 249.108 93.0328 250.261Z" fill="white"/>
<path d="M75.5195 250.261L78.9099 253.651C78.3556 252.564 78.0825 251.355 78.1157 250.134C78.1489 248.914 78.4873 247.722 79.0999 246.666L75.5195 250.261Z" fill="white"/>
<path d="M82.2461 256.938L85.6511 260.343L89.246 256.748C88.1922 257.374 86.9959 257.72 85.7707 257.753C84.5456 257.786 83.3323 257.506 82.2461 256.938Z" fill="white"/>
<path d="M126.146 255.037C128.769 255.037 130.895 252.911 130.895 250.288C130.895 247.664 128.769 245.538 126.146 245.538C123.523 245.538 121.396 247.664 121.396 250.288C121.396 252.911 123.523 255.037 126.146 255.037Z" fill="white"/>
<path d="M129.464 243.638L126.073 240.233L122.479 243.828C123.534 243.216 124.727 242.877 125.947 242.844C127.167 242.811 128.376 243.084 129.464 243.638Z" fill="white"/>
<path d="M133.61 250.261C133.604 251.551 133.256 252.816 132.602 253.929L136.197 250.348L132.806 246.943C133.327 247.972 133.602 249.108 133.61 250.261Z" fill="white"/>
<path d="M116.092 250.261L119.497 253.651C118.942 252.564 118.669 251.355 118.703 250.134C118.736 248.914 119.074 247.722 119.687 246.666L116.092 250.261Z" fill="white"/>
<path d="M122.829 256.938L126.219 260.343L129.8 256.748C128.749 257.374 127.555 257.72 126.332 257.753C125.109 257.786 123.898 257.506 122.814 256.938H122.829Z" fill="white"/>
<path d="M166.726 255.037C169.349 255.037 171.475 252.911 171.475 250.288C171.475 247.664 169.349 245.538 166.726 245.538C164.103 245.538 161.977 247.664 161.977 250.288C161.977 252.911 164.103 255.037 166.726 255.037Z" fill="white"/>
<path d="M170.052 243.638L166.661 240.233L163.066 243.828C164.122 243.216 165.315 242.877 166.535 242.844C167.755 242.811 168.964 243.084 170.052 243.638Z" fill="white"/>
<path d="M176.779 250.375L173.374 246.97C173.941 248.053 174.222 249.264 174.189 250.487C174.155 251.71 173.809 252.904 173.184 253.955L176.779 250.375Z" fill="white"/>
<path d="M156.678 250.261L160.083 253.651C159.552 252.626 159.271 251.489 159.264 250.334C159.275 249.044 159.623 247.78 160.273 246.666L156.678 250.261Z" fill="white"/>
<path d="M163.406 256.938L166.811 260.343L170.392 256.748C169.34 257.374 168.146 257.72 166.924 257.753C165.701 257.786 164.49 257.506 163.406 256.938Z" fill="white"/>
<path d="M166.553 250.464V45.3613L44.9966 45.3613L44.9966 250.464H166.553Z" stroke="white" stroke-width="1.46136" stroke-miterlimit="10"/>
<path d="M126.146 209.179L126.146 86.3223H85.7397V209.179H126.146Z" stroke="white" stroke-width="1.46136" stroke-miterlimit="10"/>
<path d="M146.441 229.829V66.0098H65.2773L65.2773 229.829H146.441Z" stroke="white" stroke-width="1.46136" stroke-miterlimit="10"/>
</svg>
