<svg width="171" height="239" viewBox="0 0 171 239" fill="none" xmlns="http://www.w3.org/2000/svg">
<path d="M163.244 0H7.7561C3.47252 0 0 3.47252 0 7.7561V230.503C0 234.786 3.47252 238.259 7.7561 238.259H163.244C167.527 238.259 171 234.786 171 230.503V7.7561C171 3.47252 167.527 0 163.244 0Z" fill="#8B93BC"/>
<path d="M168.537 230.502V7.75508C168.537 4.7735 166.12 2.35645 163.138 2.35645L7.65073 2.35645C4.66914 2.35645 2.25208 4.7735 2.25208 7.75508V230.502C2.25208 233.483 4.66914 235.9 7.65073 235.9H163.138C166.12 235.9 168.537 233.483 168.537 230.502Z" fill="white"/>
<path d="M159.341 230.61H11.4328C10.922 230.61 10.4162 230.51 9.94423 230.314C9.47229 230.119 9.04349 229.832 8.68228 229.471C8.32108 229.11 8.03454 228.681 7.83906 228.209C7.64357 227.737 7.54297 227.231 7.54297 226.72V11.5529C7.54297 11.0421 7.64357 10.5363 7.83906 10.0643C8.03454 9.59241 8.32108 9.16361 8.68228 8.8024C9.04349 8.4412 9.47229 8.15466 9.94423 7.95917C10.4162 7.76369 10.922 7.66309 11.4328 7.66309H159.341C159.852 7.66308 160.357 7.7638 160.828 7.95943C161.299 8.15505 161.727 8.44176 162.088 8.80312C162.448 9.16448 162.733 9.59338 162.928 10.0652C163.122 10.5371 163.221 11.0427 163.219 11.5529V226.72C163.221 227.231 163.122 227.736 162.928 228.208C162.733 228.68 162.448 229.109 162.088 229.47C161.727 229.832 161.299 230.118 160.828 230.314C160.357 230.51 159.852 230.61 159.341 230.61ZM11.4328 8.84183C10.7138 8.84183 10.0242 9.12745 9.51576 9.63588C9.00733 10.1443 8.72171 10.8339 8.72171 11.5529V226.72C8.72171 227.439 9.00733 228.129 9.51576 228.637C10.0242 229.146 10.7138 229.432 11.4328 229.432H159.341C160.058 229.428 160.745 229.141 161.251 228.633C161.757 228.125 162.041 227.437 162.041 226.72V11.5529C162.041 10.8359 161.757 10.1481 161.251 9.64005C160.745 9.13196 160.058 8.84494 159.341 8.84183H11.4328Z" fill="#2F3247"/>
<path d="M160.285 226.708V11.5524C160.285 11.0316 159.863 10.6094 159.342 10.6094L11.4455 10.6094C10.9247 10.6094 10.5025 11.0316 10.5025 11.5524V226.708C10.5025 227.229 10.9247 227.651 11.4455 227.651H159.342C159.863 227.651 160.285 227.229 160.285 226.708Z" fill="#2F3247"/>
<path d="M159.098 226.472V11.7881L11.6725 11.7881V226.472H159.098Z" stroke="white" stroke-width="0.589371" stroke-miterlimit="10"/>
<path d="M154.379 221.756V16.502L16.3837 16.502V221.756H154.379Z" stroke="white" stroke-width="0.589371" stroke-miterlimit="10"/>
<path d="M153.213 220.578V17.6816L17.5751 17.6816V220.578H153.213Z" fill="white"/>
<path d="M150.846 218.398V20.2158L19.9229 20.2158V218.398H150.846Z" fill="#2F3247"/>
<path d="M52.6476 47.0018L46.4131 53.2363L52.6476 59.4709L58.8822 53.2363L52.6476 47.0018Z" fill="white"/>
<path d="M85.3928 47.0057L79.1582 53.2402L85.3928 59.4748L91.6273 53.2402L85.3928 47.0057Z" fill="white"/>
<path d="M118.117 47.0106L111.883 53.2451L118.117 59.4797L124.352 53.2451L118.117 47.0106Z" fill="white"/>
<path d="M52.6564 26.4514L58.892 20.2158H46.4209L52.6564 26.4514Z" fill="white"/>
<path d="M85.3898 26.4514L91.6254 20.2158H79.1543L85.3898 26.4514Z" fill="white"/>
<path d="M111.889 20.2158L118.124 26.4514L124.36 20.2158H111.889Z" fill="white"/>
<path d="M52.6555 80.0477L46.4209 86.2822L52.6554 92.5168L58.89 86.2822L52.6555 80.0477Z" fill="white"/>
<path d="M85.381 80.0379L79.1465 86.2725L85.381 92.507L91.6156 86.2724L85.381 80.0379Z" fill="white"/>
<path d="M118.123 80.0418L111.889 86.2764L118.123 92.5109L124.358 86.2764L118.123 80.0418Z" fill="white"/>
<path d="M52.6633 113.073L46.4287 119.308L52.6632 125.542L58.8978 119.308L52.6633 113.073Z" fill="white"/>
<path d="M85.3928 113.081L79.1582 119.315L85.3927 125.55L91.6273 119.315L85.3928 113.081Z" fill="white"/>
<path d="M118.123 113.082L111.889 119.316L118.123 125.551L124.358 119.316L118.123 113.082Z" fill="white"/>
<path d="M52.6584 146.105L46.4238 152.34L52.6584 158.574L58.8929 152.34L52.6584 146.105Z" fill="white"/>
<path d="M85.3849 146.098L79.1504 152.333L85.3849 158.568L91.6195 152.333L85.3849 146.098Z" fill="white"/>
<path d="M118.125 146.102L111.891 152.337L118.125 158.571L124.36 152.337L118.125 146.102Z" fill="white"/>
<path d="M52.6633 179.138L46.4287 185.372L52.6633 191.607L58.8978 185.372L52.6633 179.138Z" fill="white"/>
<path d="M85.3928 179.13L79.1582 185.364L85.3928 191.599L91.6273 185.364L85.3928 179.13Z" fill="white"/>
<path d="M118.117 179.136L111.883 185.37L118.117 191.605L124.352 185.37L118.117 179.136Z" fill="white"/>
<path d="M46.4209 218.397H58.892L52.6564 212.161L46.4209 218.397Z" fill="white"/>
<path d="M79.1543 218.397H91.6254L85.3898 212.161L79.1543 218.397Z" fill="white"/>
<path d="M118.124 212.161L111.889 218.397H124.36L118.124 212.161Z" fill="white"/>
<path d="M150.845 191.619V179.147L144.609 185.383L150.845 191.619Z" fill="white"/>
<path d="M150.845 158.577V146.105L144.609 152.341L150.845 158.577Z" fill="white"/>
<path d="M150.845 125.537V113.078L144.609 119.302L150.845 125.537Z" fill="white"/>
<path d="M150.845 92.5082V80.0371L144.609 86.2727L150.845 92.5082Z" fill="white"/>
<path d="M150.845 59.7757V47.3164L144.609 53.5519L150.845 59.7757Z" fill="white"/>
<path d="M143.699 19.8975L151.762 27.9718V19.8975H143.699Z" fill="white"/>
<path d="M152.422 219.671V210.288L143.039 219.671H152.422Z" fill="white"/>
<path d="M19.9238 191.619V179.147L26.1594 185.383L19.9238 191.619Z" fill="white"/>
<path d="M19.9238 158.882V146.411L26.1594 152.647L19.9238 158.882Z" fill="white"/>
<path d="M19.9238 125.537V113.078L26.1594 119.302L19.9238 125.537Z" fill="white"/>
<path d="M19.9238 92.5082V80.0371L26.1594 86.2727L19.9238 92.5082Z" fill="white"/>
<path d="M19.9238 59.7757V47.3164L26.1594 53.5519L19.9238 59.7757Z" fill="white"/>
<path d="M26.9567 20.0156L19.1299 27.8542V20.0156H26.9567Z" fill="white"/>
<path d="M19.2295 218.799V211.161L26.8677 218.799H19.2295Z" fill="white"/>
<path d="M49.5362 36.8419L36.1836 23.4893L23.0394 36.6335L36.392 49.9861L49.5362 36.8419Z" stroke="white" stroke-width="1.17874" stroke-miterlimit="10"/>
<path d="M82.2588 36.8282L68.9062 23.4756L55.762 36.6198L69.1146 49.9724L82.2588 36.8282Z" stroke="white" stroke-width="1.17874" stroke-miterlimit="10"/>
<path d="M114.995 36.8379L101.643 23.4854L88.4984 36.6296L101.851 49.9822L114.995 36.8379Z" stroke="white" stroke-width="1.17874" stroke-miterlimit="10"/>
<path d="M147.73 36.835L134.377 23.4824L121.233 36.6266L134.585 49.9793L147.73 36.835Z" stroke="white" stroke-width="1.17874" stroke-miterlimit="10"/>
<path d="M36.1796 83.0079L49.5322 69.6553L36.388 56.511L23.0354 69.8636L36.1796 83.0079Z" stroke="white" stroke-width="1.17874" stroke-miterlimit="10"/>
<path d="M68.9267 83.0079L82.2793 69.6553L69.1351 56.511L55.7825 69.8636L68.9267 83.0079Z" stroke="white" stroke-width="1.17874" stroke-miterlimit="10"/>
<path d="M101.649 83.003L115.002 69.6504L101.858 56.5061L88.5051 69.8587L101.649 83.003Z" stroke="white" stroke-width="1.17874" stroke-miterlimit="10"/>
<path d="M134.376 83.0128L147.729 69.6602L134.584 56.5159L121.232 69.8685L134.376 83.0128Z" stroke="white" stroke-width="1.17874" stroke-miterlimit="10"/>
<path d="M36.1874 116.046L49.54 102.693L36.3958 89.5491L23.0432 102.902L36.1874 116.046Z" stroke="white" stroke-width="1.17874" stroke-miterlimit="10"/>
<path d="M68.9189 116.032L82.2715 102.68L69.1273 89.5355L55.7747 102.888L68.9189 116.032Z" stroke="white" stroke-width="1.17874" stroke-miterlimit="10"/>
<path d="M101.647 116.039L115 102.687L101.856 89.5423L88.5032 102.895L101.647 116.039Z" stroke="white" stroke-width="1.17874" stroke-miterlimit="10"/>
<path d="M134.384 116.036L147.736 102.684L134.592 89.5394L121.239 102.892L134.384 116.036Z" stroke="white" stroke-width="1.17874" stroke-miterlimit="10"/>
<path d="M36.1796 149.069L49.5322 135.717L36.388 122.573L23.0354 135.925L36.1796 149.069Z" stroke="white" stroke-width="1.17874" stroke-miterlimit="10"/>
<path d="M68.9326 149.067L82.2852 135.715L69.1409 122.571L55.7883 135.923L68.9326 149.067Z" stroke="white" stroke-width="1.17874" stroke-miterlimit="10"/>
<path d="M101.655 149.065L115.008 135.713L101.864 122.569L88.511 135.921L101.655 149.065Z" stroke="white" stroke-width="1.17874" stroke-miterlimit="10"/>
<path d="M134.38 149.072L147.732 135.72L134.588 122.576L121.236 135.928L134.38 149.072Z" stroke="white" stroke-width="1.17874" stroke-miterlimit="10"/>
<path d="M36.1904 182.107L49.543 168.755L36.3987 155.611L23.0461 168.963L36.1904 182.107Z" stroke="white" stroke-width="1.17874" stroke-miterlimit="10"/>
<path d="M68.9267 182.107L82.2793 168.754L69.1351 155.61L55.7825 168.962L68.9267 182.107Z" stroke="white" stroke-width="1.17874" stroke-miterlimit="10"/>
<path d="M101.649 182.101L115.002 168.748L101.858 155.604L88.5051 168.956L101.649 182.101Z" stroke="white" stroke-width="1.17874" stroke-miterlimit="10"/>
<path d="M134.376 182.108L147.729 168.755L134.584 155.611L121.232 168.963L134.376 182.108Z" stroke="white" stroke-width="1.17874" stroke-miterlimit="10"/>
<path d="M36.1796 215.134L49.5322 201.781L36.388 188.637L23.0354 201.99L36.1796 215.134Z" stroke="white" stroke-width="1.17874" stroke-miterlimit="10"/>
<path d="M68.9267 215.123L82.2793 201.771L69.1351 188.626L55.7825 201.979L68.9267 215.123Z" stroke="white" stroke-width="1.17874" stroke-miterlimit="10"/>
<path d="M101.649 215.128L115.002 201.775L101.858 188.631L88.5051 201.984L101.649 215.128Z" stroke="white" stroke-width="1.17874" stroke-miterlimit="10"/>
<path d="M134.376 215.127L147.729 201.774L134.584 188.63L121.232 201.983L134.376 215.127Z" stroke="white" stroke-width="1.17874" stroke-miterlimit="10"/>
<path d="M36.2967 40.5612C38.4125 40.5612 40.1276 38.8461 40.1276 36.7303C40.1276 34.6146 38.4125 32.8994 36.2967 32.8994C34.181 32.8994 32.4658 34.6146 32.4658 36.7303C32.4658 38.8461 34.181 40.5612 36.2967 40.5612Z" fill="white"/>
<path d="M36.2967 40.5612C38.4125 40.5612 40.1276 38.8461 40.1276 36.7303C40.1276 34.6146 38.4125 32.8994 36.2967 32.8994C34.181 32.8994 32.4658 34.6146 32.4658 36.7303C32.4658 38.8461 34.181 40.5612 36.2967 40.5612Z" fill="white"/>
<path d="M36.2967 40.5612C38.4125 40.5612 40.1276 38.8461 40.1276 36.7303C40.1276 34.6146 38.4125 32.8994 36.2967 32.8994C34.181 32.8994 32.4658 34.6146 32.4658 36.7303C32.4658 38.8461 34.181 40.5612 36.2967 40.5612Z" fill="white"/>
<path d="M38.9713 31.3658L36.2248 28.584L33.3369 31.4837C34.1848 30.979 35.1478 30.6999 36.1341 30.6731C37.1205 30.6463 38.0972 30.8726 38.9713 31.3304V31.3658Z" fill="white"/>
<path d="M42.3054 36.7294C42.3 37.7686 42.0238 38.7883 41.5039 39.6881L44.4036 36.8355L41.6925 34.0537C42.1005 34.8864 42.3102 35.8022 42.3054 36.7294Z" fill="white"/>
<path d="M28.1875 36.6584L30.934 39.4049C30.4761 38.5308 30.2498 37.5541 30.2766 36.5678C30.3035 35.5814 30.5825 34.6184 31.0872 33.7705L28.1875 36.6584Z" fill="white"/>
<path d="M33.6162 42.0937L36.3509 44.8402L39.2506 41.9404C38.4027 42.4451 37.4397 42.7242 36.4534 42.751C35.467 42.7779 34.4903 42.5515 33.6162 42.0937Z" fill="white"/>
<path d="M69.0301 40.5612C71.1459 40.5612 72.861 38.8461 72.861 36.7303C72.861 34.6146 71.1459 32.8994 69.0301 32.8994C66.9144 32.8994 65.1992 34.6146 65.1992 36.7303C65.1992 38.8461 66.9144 40.5612 69.0301 40.5612Z" fill="white"/>
<path d="M71.7008 31.3658L68.9544 28.584L66.0547 31.4837C66.9552 30.9541 67.9804 30.6734 69.0251 30.6703C69.9595 30.6867 70.8767 30.9251 71.7008 31.3658Z" fill="white"/>
<path d="M75.0399 36.7294C75.0344 37.7686 74.7581 38.7883 74.2383 39.6881L77.1262 36.8002L74.3915 34.0537C74.8117 34.8835 75.0336 35.7994 75.0399 36.7294Z" fill="white"/>
<path d="M60.9141 36.6584L63.6488 39.4049C63.2016 38.5277 62.9814 37.5524 63.0082 36.5682C63.0349 35.584 63.3078 34.6221 63.802 33.7705L60.9141 36.6584Z" fill="white"/>
<path d="M66.3398 42.0937L69.0863 44.8402L71.986 41.9404C71.136 42.4451 70.171 42.7241 69.1828 42.7509C68.1947 42.7777 67.216 42.5515 66.3398 42.0937Z" fill="white"/>
<path d="M101.749 40.5612C103.865 40.5612 105.58 38.8461 105.58 36.7303C105.58 34.6146 103.865 32.8994 101.749 32.8994C99.6331 32.8994 97.918 34.6146 97.918 36.7303C97.918 38.8461 99.6331 40.5612 101.749 40.5612Z" fill="white"/>
<path d="M104.425 31.3658L101.691 28.584L98.791 31.4837C99.6389 30.979 100.602 30.6999 101.588 30.6731C102.575 30.6463 103.551 30.8726 104.425 31.3304V31.3658Z" fill="white"/>
<path d="M107.77 36.7294C107.765 37.7702 107.485 38.791 106.957 39.6881L109.857 36.8002L107.122 34.0537C107.542 34.8835 107.764 35.7994 107.77 36.7294Z" fill="white"/>
<path d="M93.6406 36.6584L96.3871 39.4049C95.9399 38.5277 95.7197 37.5524 95.7465 36.5682C95.7732 35.584 96.0462 34.6221 96.5403 33.7705L93.6406 36.6584Z" fill="white"/>
<path d="M99.0762 42.0937L101.823 44.8402L104.711 41.9404C103.863 42.4451 102.9 42.7242 101.913 42.751C100.927 42.7779 99.9502 42.5515 99.0762 42.0937Z" fill="white"/>
<path d="M134.481 40.5612C136.597 40.5612 138.312 38.8461 138.312 36.7303C138.312 34.6146 136.597 32.8994 134.481 32.8994C132.366 32.8994 130.65 34.6146 130.65 36.7303C130.65 38.8461 132.366 40.5612 134.481 40.5612Z" fill="white"/>
<path d="M137.168 31.3658L134.421 28.584L131.521 31.4837C132.369 30.979 133.332 30.6999 134.319 30.6731C135.305 30.6463 136.282 30.8726 137.156 31.3304L137.168 31.3658Z" fill="white"/>
<path d="M142.591 36.8363L139.845 34.0898C140.302 34.9639 140.529 35.9406 140.502 36.927C140.475 37.9133 140.196 38.8764 139.691 39.7242L142.591 36.8363Z" fill="white"/>
<path d="M126.377 36.6584L129.123 39.4049C128.695 38.5777 128.469 37.6607 128.463 36.7292C128.472 35.689 128.753 34.6691 129.277 33.7705L126.377 36.6584Z" fill="white"/>
<path d="M131.805 42.0937L134.551 44.8402L137.439 41.9404C136.591 42.4451 135.628 42.7242 134.642 42.751C133.655 42.7779 132.679 42.5515 131.805 42.0937Z" fill="white"/>
<path d="M36.2967 73.5905C38.4125 73.5905 40.1276 71.8754 40.1276 69.7596C40.1276 67.6439 38.4125 65.9287 36.2967 65.9287C34.181 65.9287 32.4658 67.6439 32.4658 69.7596C32.4658 71.8754 34.181 73.5905 36.2967 73.5905Z" fill="white"/>
<path d="M38.9713 64.3949L36.2248 61.6484L33.3369 64.5482C34.1885 64.054 35.1504 63.7811 36.1346 63.7543C37.1188 63.7276 38.0941 63.9478 38.9713 64.3949Z" fill="white"/>
<path d="M42.3054 69.7578C42.3 70.7969 42.0238 71.8167 41.5039 72.7164L44.4036 69.8403L41.6925 67.082C42.1005 67.9147 42.3102 68.8305 42.3054 69.7578Z" fill="white"/>
<path d="M28.1875 69.6985L30.934 72.4332C30.4761 71.5592 30.2498 70.5824 30.2766 69.596C30.3035 68.6097 30.5825 67.6467 31.0872 66.7988L28.1875 69.6985Z" fill="white"/>
<path d="M33.6162 75.121L36.3509 77.8675L39.2506 74.9678C38.4027 75.4725 37.4397 75.7515 36.4534 75.7783C35.467 75.8052 34.4903 75.5789 33.6162 75.121Z" fill="white"/>
<path d="M69.0301 73.5905C71.1459 73.5905 72.861 71.8754 72.861 69.7596C72.861 67.6439 71.1459 65.9287 69.0301 65.9287C66.9144 65.9287 65.1992 67.6439 65.1992 69.7596C65.1992 71.8754 66.9144 73.5905 69.0301 73.5905Z" fill="white"/>
<path d="M71.7008 64.3949L68.9544 61.6484L66.0547 64.5482C66.9077 64.052 67.8717 63.7779 68.8582 63.7511C69.8447 63.7244 70.8221 63.9457 71.7008 64.3949Z" fill="white"/>
<path d="M75.0399 69.7578C75.0344 70.7969 74.7581 71.8167 74.2383 72.7164L77.1262 69.8285L74.3915 67.082C74.8117 67.9118 75.0336 68.8277 75.0399 69.7578Z" fill="white"/>
<path d="M60.9141 69.6985L63.6488 72.4332C63.2016 71.556 62.9814 70.5807 63.0082 69.5965C63.0349 68.6123 63.3078 67.6504 63.802 66.7988L60.9141 69.6985Z" fill="white"/>
<path d="M66.3398 75.121L69.0863 77.8675L71.986 74.9678C71.136 75.4724 70.171 75.7514 69.1828 75.7782C68.1947 75.805 67.216 75.5788 66.3398 75.121Z" fill="white"/>
<path d="M101.749 73.5905C103.865 73.5905 105.58 71.8754 105.58 69.7596C105.58 67.6439 103.865 65.9287 101.749 65.9287C99.6331 65.9287 97.918 67.6439 97.918 69.7596C97.918 71.8754 99.6331 73.5905 101.749 73.5905Z" fill="white"/>
<path d="M104.425 64.3949L101.691 61.6484L98.791 64.5482C99.6426 64.054 100.604 63.7811 101.589 63.7543C102.573 63.7276 103.548 63.9478 104.425 64.3949Z" fill="white"/>
<path d="M107.77 69.7578C107.765 70.7985 107.485 71.8193 106.957 72.7164L109.857 69.8285L107.122 67.082C107.542 67.9118 107.764 68.8277 107.77 69.7578Z" fill="white"/>
<path d="M93.6406 69.6985L96.3871 72.4332C95.9399 71.556 95.7197 70.5807 95.7465 69.5965C95.7732 68.6123 96.0462 67.6504 96.5403 66.7988L93.6406 69.6985Z" fill="white"/>
<path d="M99.0762 75.121L101.823 77.8675L104.711 74.9678C103.863 75.4725 102.9 75.7515 101.913 75.7783C100.927 75.8052 99.9502 75.5789 99.0762 75.121Z" fill="white"/>
<path d="M134.481 73.5905C136.597 73.5905 138.312 71.8754 138.312 69.7596C138.312 67.6439 136.597 65.9287 134.481 65.9287C132.366 65.9287 130.65 67.6439 130.65 69.7596C130.65 71.8754 132.366 73.5905 134.481 73.5905Z" fill="white"/>
<path d="M137.164 64.3949L134.429 61.6484L131.529 64.5482C132.381 64.054 133.343 63.7811 134.327 63.7543C135.311 63.7276 136.286 63.9478 137.164 64.3949Z" fill="white"/>
<path d="M142.591 69.8412L139.845 67.0947C140.302 67.9688 140.529 68.9455 140.502 69.9319C140.475 70.9182 140.196 71.8812 139.691 72.7291L142.591 69.8412Z" fill="white"/>
<path d="M126.377 69.6985L129.123 72.4332C128.695 71.606 128.469 70.689 128.463 69.7574C128.472 68.7173 128.753 67.6974 129.277 66.7988L126.377 69.6985Z" fill="white"/>
<path d="M131.805 75.121L134.551 77.8675L137.439 74.9678C136.591 75.4725 135.628 75.7515 134.642 75.7783C133.655 75.8052 132.679 75.5789 131.805 75.121Z" fill="white"/>
<path d="M36.2967 106.617C38.4125 106.617 40.1276 104.902 40.1276 102.786C40.1276 100.67 38.4125 98.9551 36.2967 98.9551C34.181 98.9551 32.4658 100.67 32.4658 102.786C32.4658 104.902 34.181 106.617 36.2967 106.617Z" fill="white"/>
<path d="M38.9713 97.4232L36.2248 94.6885L33.3369 97.5764C34.1885 97.0823 35.1504 96.8093 36.1346 96.7826C37.1188 96.7558 38.0941 96.976 38.9713 97.4232Z" fill="white"/>
<path d="M42.3054 102.846C42.2988 103.889 42.0227 104.912 41.5039 105.816L44.4036 102.846L41.6925 100.111C42.1094 100.962 42.3194 101.899 42.3054 102.846Z" fill="white"/>
<path d="M28.1875 102.727L30.934 105.473C30.4762 104.597 30.25 103.619 30.2768 102.63C30.3036 101.642 30.5826 100.677 31.0872 99.8271L28.1875 102.727Z" fill="white"/>
<path d="M33.6162 108.161L36.3509 110.896L39.2506 108.008C38.399 108.502 37.4371 108.775 36.4529 108.802C35.4687 108.828 34.4934 108.608 33.6162 108.161Z" fill="white"/>
<path d="M69.0301 106.617C71.1459 106.617 72.861 104.902 72.861 102.786C72.861 100.67 71.1459 98.9551 69.0301 98.9551C66.9144 98.9551 65.1992 100.67 65.1992 102.786C65.1992 104.902 66.9144 106.617 69.0301 106.617Z" fill="white"/>
<path d="M71.7008 97.4232L68.9544 94.6885L66.0547 97.5764C66.9077 97.0802 67.8717 96.8061 68.8582 96.7794C69.8447 96.7526 70.8221 96.974 71.7008 97.4232Z" fill="white"/>
<path d="M75.0399 102.846C75.0332 103.888 74.7571 104.912 74.2383 105.816L77.1262 102.916L74.3915 100.17C74.8117 101 75.0336 101.916 75.0399 102.846Z" fill="white"/>
<path d="M60.9141 102.727L63.6488 105.473C63.1995 104.595 62.9782 103.617 63.005 102.631C63.0317 101.644 63.3058 100.68 63.802 99.8271L60.9141 102.727Z" fill="white"/>
<path d="M66.3398 108.161L69.0863 110.896L71.986 108.008C71.133 108.504 70.169 108.778 69.1825 108.805C68.196 108.832 67.2185 108.61 66.3398 108.161Z" fill="white"/>
<path d="M101.749 106.617C103.865 106.617 105.58 104.902 105.58 102.786C105.58 100.67 103.865 98.9551 101.749 98.9551C99.6331 98.9551 97.918 100.67 97.918 102.786C97.918 104.902 99.6331 106.617 101.749 106.617Z" fill="white"/>
<path d="M104.425 97.4232L101.691 94.6885L98.791 97.5764C99.6426 97.0823 100.604 96.8093 101.589 96.7826C102.573 96.7558 103.548 96.976 104.425 97.4232Z" fill="white"/>
<path d="M107.77 102.846C107.767 103.89 107.487 104.916 106.957 105.816L109.857 102.916L107.122 100.17C107.542 101 107.764 101.916 107.77 102.846Z" fill="white"/>
<path d="M93.6406 102.727L96.3871 105.473C95.9379 104.595 95.7165 103.617 95.7433 102.631C95.7701 101.644 96.0441 100.68 96.5403 99.8271L93.6406 102.727Z" fill="white"/>
<path d="M99.0762 108.161L101.823 110.896L104.711 108.008C103.859 108.502 102.897 108.775 101.913 108.802C100.929 108.828 99.9534 108.608 99.0762 108.161Z" fill="white"/>
<path d="M134.481 106.617C136.597 106.617 138.312 104.902 138.312 102.786C138.312 100.67 136.597 98.9551 134.481 98.9551C132.366 98.9551 130.65 100.67 130.65 102.786C130.65 104.902 132.366 106.617 134.481 106.617Z" fill="white"/>
<path d="M137.164 97.4232L134.429 94.6885L131.529 97.5764C132.381 97.0823 133.343 96.8093 134.327 96.7826C135.311 96.7558 136.286 96.976 137.164 97.4232Z" fill="white"/>
<path d="M142.591 102.846L139.845 100.1C140.273 100.927 140.499 101.844 140.505 102.775C140.502 103.82 140.221 104.845 139.691 105.746L142.591 102.846Z" fill="white"/>
<path d="M126.377 102.727L129.123 105.473C128.693 104.643 128.467 103.721 128.463 102.786C128.476 101.746 128.756 100.727 129.277 99.8271L126.377 102.727Z" fill="white"/>
<path d="M131.805 108.161L134.551 110.896L137.439 108.008C136.587 108.502 135.626 108.775 134.641 108.802C133.657 108.828 132.682 108.608 131.805 108.161Z" fill="white"/>
<path d="M36.2967 131.995C35.5391 131.995 34.7984 132.22 34.1684 132.641C33.5384 133.062 33.0474 133.66 32.7574 134.36C32.4675 135.06 32.3916 135.83 32.5394 136.573C32.6873 137.317 33.0521 137.999 33.5879 138.535C34.1236 139.071 34.8062 139.436 35.5493 139.583C36.2925 139.731 37.0628 139.655 37.7628 139.365C38.4628 139.075 39.0611 138.584 39.482 137.954C39.903 137.324 40.1277 136.584 40.1277 135.826C40.1292 135.323 40.0312 134.824 39.8392 134.358C39.6472 133.893 39.3651 133.47 39.0091 133.114C38.653 132.758 38.2301 132.476 37.7646 132.284C37.2991 132.092 36.8003 131.994 36.2967 131.995Z" fill="white"/>
<path d="M38.9713 130.463L36.2248 127.717L33.3369 130.616C34.1848 130.112 35.1478 129.833 36.1341 129.806C37.1205 129.779 38.0972 130.005 38.9713 130.463Z" fill="white"/>
<path d="M42.3054 135.851C42.2989 136.89 42.0228 137.909 41.5039 138.809L44.4036 135.851L41.6925 133.151C42.1053 133.991 42.3152 134.915 42.3054 135.851Z" fill="white"/>
<path d="M28.1875 135.755L30.934 138.502C30.4761 137.628 30.2498 136.651 30.2766 135.664C30.3035 134.678 30.5825 133.715 31.0872 132.867L28.1875 135.755Z" fill="white"/>
<path d="M33.6162 141.19L36.3509 143.937L39.2506 141.037C38.399 141.531 37.4371 141.804 36.4529 141.831C35.4687 141.858 34.4934 141.637 33.6162 141.19Z" fill="white"/>
<path d="M69.0263 131.995C68.2681 131.993 67.5263 132.215 66.8947 132.635C66.2632 133.055 65.7704 133.652 65.4786 134.352C65.1868 135.052 65.1093 135.822 65.2558 136.566C65.4023 137.31 65.7662 137.994 66.3015 138.531C66.8367 139.068 67.5193 139.434 68.2628 139.582C69.0062 139.731 69.7771 139.656 70.4778 139.366C71.1785 139.077 71.7775 138.586 72.1989 137.956C72.6204 137.325 72.8454 136.584 72.8454 135.826C72.8469 135.324 72.7493 134.826 72.5581 134.361C72.3669 133.896 72.0858 133.474 71.731 133.118C71.3762 132.762 70.9547 132.48 70.4905 132.287C70.0264 132.094 69.5288 131.995 69.0263 131.995Z" fill="white"/>
<path d="M71.7008 130.463L68.9544 127.717L66.0547 130.616C66.9552 130.087 67.9804 129.806 69.0251 129.803C69.9566 129.809 70.8736 130.035 71.7008 130.463Z" fill="white"/>
<path d="M75.0399 135.851C75.0334 136.89 74.7571 137.909 74.2383 138.809L77.1262 135.909L74.3915 133.175C74.8129 134.004 75.0349 134.92 75.0399 135.851Z" fill="white"/>
<path d="M60.9141 135.755L63.6488 138.502C63.2016 137.624 62.9814 136.649 63.0082 135.665C63.0349 134.681 63.3078 133.719 63.802 132.867L60.9141 135.755Z" fill="white"/>
<path d="M66.3398 141.19L69.0863 143.937L71.986 141.037C71.133 141.533 70.169 141.807 69.1825 141.834C68.196 141.861 67.2185 141.64 66.3398 141.19Z" fill="white"/>
<path d="M101.808 131.996C101.049 131.984 100.303 132.198 99.6661 132.611C99.0289 133.024 98.5288 133.616 98.2291 134.314C97.9294 135.011 97.8437 135.782 97.9829 136.528C98.1221 137.275 98.4799 137.963 99.0109 138.505C99.5418 139.048 100.222 139.421 100.965 139.576C101.708 139.731 102.481 139.662 103.185 139.378C103.888 139.093 104.492 138.606 104.918 137.978C105.345 137.35 105.575 136.609 105.58 135.85C105.586 134.84 105.193 133.868 104.487 133.147C103.78 132.425 102.818 132.011 101.808 131.996Z" fill="white"/>
<path d="M104.425 130.463L101.691 127.717L98.791 130.616C99.6389 130.112 100.602 129.833 101.588 129.806C102.575 129.779 103.551 130.005 104.425 130.463Z" fill="white"/>
<path d="M107.77 135.851C107.765 136.891 107.485 137.912 106.957 138.809L109.857 135.909L107.122 133.175C107.543 134.004 107.765 134.92 107.77 135.851Z" fill="white"/>
<path d="M93.6406 135.755L96.3871 138.502C95.9399 137.624 95.7197 136.649 95.7465 135.665C95.7732 134.681 96.0462 133.719 96.5403 132.867L93.6406 135.755Z" fill="white"/>
<path d="M99.0762 141.19L101.823 143.937L104.711 141.037C103.859 141.531 102.897 141.804 101.913 141.831C100.929 141.858 99.9534 141.637 99.0762 141.19Z" fill="white"/>
<path d="M134.481 131.995C133.726 132.002 132.99 132.232 132.365 132.656C131.74 133.081 131.255 133.68 130.969 134.379C130.684 135.078 130.612 135.846 130.762 136.586C130.912 137.326 131.277 138.006 131.812 138.539C132.347 139.072 133.027 139.435 133.768 139.583C134.508 139.731 135.276 139.656 135.974 139.369C136.673 139.081 137.27 138.594 137.693 137.968C138.115 137.342 138.343 136.605 138.347 135.85C138.35 135.342 138.252 134.838 138.059 134.368C137.866 133.898 137.581 133.472 137.221 133.113C136.861 132.754 136.434 132.471 135.963 132.279C135.493 132.087 134.989 131.991 134.481 131.995Z" fill="white"/>
<path d="M137.164 130.463L134.429 127.717L131.529 130.616C132.377 130.112 133.34 129.833 134.327 129.806C135.313 129.779 136.29 130.005 137.164 130.463Z" fill="white"/>
<path d="M142.591 135.852L139.845 133.117C140.302 133.991 140.529 134.968 140.502 135.954C140.475 136.941 140.196 137.904 139.691 138.752L142.591 135.852Z" fill="white"/>
<path d="M126.377 135.755L129.123 138.502C128.695 137.674 128.469 136.757 128.463 135.826C128.472 134.786 128.753 133.766 129.277 132.867L126.377 135.755Z" fill="white"/>
<path d="M131.805 141.19L134.551 143.937L137.439 141.037C136.587 141.531 135.626 141.804 134.641 141.831C133.657 141.858 132.682 141.637 131.805 141.19Z" fill="white"/>
<path d="M36.2967 172.686C38.4125 172.686 40.1276 170.971 40.1276 168.855C40.1276 166.74 38.4125 165.024 36.2967 165.024C34.181 165.024 32.4658 166.74 32.4658 168.855C32.4658 170.971 34.181 172.686 36.2967 172.686Z" fill="white"/>
<path d="M38.9713 163.491L36.2248 160.744L33.3369 163.644C34.1848 163.139 35.1478 162.86 36.1341 162.833C37.1205 162.806 38.0972 163.033 38.9713 163.491Z" fill="white"/>
<path d="M42.3054 168.855C42.3 169.895 42.0238 170.914 41.5039 171.814L44.4036 168.914L41.6925 166.18C42.1005 167.012 42.3102 167.928 42.3054 168.855Z" fill="white"/>
<path d="M28.1875 168.784L30.934 171.531C30.4761 170.657 30.2498 169.68 30.2766 168.694C30.3035 167.707 30.5825 166.744 31.0872 165.896L28.1875 168.784Z" fill="white"/>
<path d="M33.6162 174.218L36.3509 176.964L39.2506 174.064C38.4027 174.569 37.4397 174.848 36.4534 174.875C35.467 174.902 34.4903 174.676 33.6162 174.218Z" fill="white"/>
<path d="M69.0301 172.686C71.1459 172.686 72.861 170.971 72.861 168.855C72.861 166.74 71.1459 165.024 69.0301 165.024C66.9144 165.024 65.1992 166.74 65.1992 168.855C65.1992 170.971 66.9144 172.686 69.0301 172.686Z" fill="white"/>
<path d="M71.7008 163.491L68.9544 160.744L66.0547 163.644C66.9552 163.114 67.9804 162.834 69.0251 162.831C69.9566 162.836 70.8736 163.062 71.7008 163.491Z" fill="white"/>
<path d="M75.0399 168.855C75.0344 169.895 74.7581 170.914 74.2383 171.814L77.1262 168.914L74.3915 166.18C74.8117 167.009 75.0336 167.925 75.0399 168.855Z" fill="white"/>
<path d="M60.9141 168.784L63.6488 171.531C63.2016 170.654 62.9814 169.678 63.0082 168.694C63.0349 167.71 63.3078 166.748 63.802 165.896L60.9141 168.784Z" fill="white"/>
<path d="M66.3398 174.218L69.0863 176.964L71.986 174.064C71.136 174.569 70.171 174.848 69.1828 174.875C68.1947 174.902 67.216 174.675 66.3398 174.218Z" fill="white"/>
<path d="M101.749 172.686C103.865 172.686 105.58 170.971 105.58 168.855C105.58 166.74 103.865 165.024 101.749 165.024C99.6331 165.024 97.918 166.74 97.918 168.855C97.918 170.971 99.6331 172.686 101.749 172.686Z" fill="white"/>
<path d="M104.425 163.491L101.691 160.744L98.791 163.644C99.6389 163.139 100.602 162.86 101.588 162.833C102.575 162.806 103.551 163.033 104.425 163.491Z" fill="white"/>
<path d="M107.77 168.855C107.765 169.896 107.485 170.917 106.957 171.814L109.857 168.914L107.122 166.18C107.542 167.009 107.764 167.925 107.77 168.855Z" fill="white"/>
<path d="M93.6406 168.784L96.3871 171.531C95.9399 170.654 95.7197 169.678 95.7465 168.694C95.7732 167.71 96.0462 166.748 96.5403 165.896L93.6406 168.784Z" fill="white"/>
<path d="M99.0762 174.218L101.823 176.964L104.711 174.064C103.863 174.569 102.9 174.848 101.913 174.875C100.927 174.902 99.9502 174.676 99.0762 174.218Z" fill="white"/>
<path d="M134.481 172.686C136.597 172.686 138.312 170.971 138.312 168.855C138.312 166.74 136.597 165.024 134.481 165.024C132.366 165.024 130.65 166.74 130.65 168.855C130.65 170.971 132.366 172.686 134.481 172.686Z" fill="white"/>
<path d="M137.164 163.491L134.429 160.744L131.529 163.644C132.377 163.139 133.34 162.86 134.327 162.833C135.313 162.806 136.29 163.033 137.164 163.491Z" fill="white"/>
<path d="M142.591 168.914L139.845 166.18C140.302 167.054 140.529 168.03 140.502 169.017C140.475 170.003 140.196 170.966 139.691 171.814L142.591 168.914Z" fill="white"/>
<path d="M126.377 168.784L129.123 171.531C128.695 170.704 128.469 169.787 128.463 168.855C128.472 167.815 128.753 166.795 129.277 165.896L126.377 168.784Z" fill="white"/>
<path d="M131.805 174.218L134.551 176.964L137.439 174.064C136.591 174.569 135.628 174.848 134.642 174.875C133.655 174.902 132.679 174.676 131.805 174.218Z" fill="white"/>
<path d="M36.2967 205.714C38.4125 205.714 40.1276 203.998 40.1276 201.883C40.1276 199.767 38.4125 198.052 36.2967 198.052C34.181 198.052 32.4658 199.767 32.4658 201.883C32.4658 203.998 34.181 205.714 36.2967 205.714Z" fill="white"/>
<path d="M38.9713 196.52L36.2248 193.773L33.3369 196.673C34.1885 196.179 35.1504 195.906 36.1346 195.879C37.1188 195.853 38.0941 196.073 38.9713 196.52Z" fill="white"/>
<path d="M42.3054 201.859C42.3 202.898 42.0238 203.918 41.5039 204.818L44.4036 201.93L41.6925 199.207C42.0969 200.033 42.3066 200.94 42.3054 201.859Z" fill="white"/>
<path d="M28.1875 201.862L30.934 204.596C30.4761 203.722 30.2498 202.745 30.2766 201.759C30.3035 200.773 30.5825 199.81 31.0872 198.962L28.1875 201.862Z" fill="white"/>
<path d="M33.6162 207.247L36.3509 209.993L39.2506 207.094C38.4027 207.598 37.4397 207.877 36.4534 207.904C35.467 207.931 34.4903 207.705 33.6162 207.247Z" fill="white"/>
<path d="M69.0301 205.714C71.1459 205.714 72.861 203.998 72.861 201.883C72.861 199.767 71.1459 198.052 69.0301 198.052C66.9144 198.052 65.1992 199.767 65.1992 201.883C65.1992 203.998 66.9144 205.714 69.0301 205.714Z" fill="white"/>
<path d="M71.7008 196.52L68.9544 193.773L66.0547 196.673C66.9077 196.177 67.8717 195.903 68.8582 195.876C69.8447 195.849 70.8221 196.071 71.7008 196.52Z" fill="white"/>
<path d="M75.0399 201.861C75.0344 202.9 74.7581 203.92 74.2383 204.82L77.1262 201.932L74.3915 199.186C74.8117 200.015 75.0336 200.931 75.0399 201.861Z" fill="white"/>
<path d="M60.9141 201.862L63.6488 204.596C63.2016 203.719 62.9814 202.744 63.0082 201.76C63.0349 200.775 63.3078 199.814 63.802 198.962L60.9141 201.862Z" fill="white"/>
<path d="M66.3398 207.247L69.0863 209.993L71.986 207.094C71.136 207.598 70.171 207.877 69.1828 207.904C68.1947 207.931 67.216 207.705 66.3398 207.247Z" fill="white"/>
<path d="M101.749 205.714C103.865 205.714 105.58 203.998 105.58 201.883C105.58 199.767 103.865 198.052 101.749 198.052C99.6331 198.052 97.918 199.767 97.918 201.883C97.918 203.998 99.6331 205.714 101.749 205.714Z" fill="white"/>
<path d="M104.425 196.52L101.691 193.773L98.791 196.673C99.6426 196.179 100.604 195.906 101.589 195.879C102.573 195.853 103.548 196.073 104.425 196.52Z" fill="white"/>
<path d="M107.77 201.861C107.765 202.902 107.485 203.923 106.957 204.82L109.857 201.932L107.122 199.186C107.542 200.015 107.764 200.931 107.77 201.861Z" fill="white"/>
<path d="M93.6406 201.862L96.3871 204.596C95.9399 203.719 95.7197 202.744 95.7465 201.76C95.7732 200.775 96.0462 199.814 96.5403 198.962L93.6406 201.862Z" fill="white"/>
<path d="M99.0743 207.247L101.809 209.993L104.697 207.094C103.849 207.598 102.886 207.877 101.9 207.904C100.913 207.931 99.9365 207.705 99.0625 207.247H99.0743Z" fill="white"/>
<path d="M134.481 205.714C136.597 205.714 138.312 203.998 138.312 201.883C138.312 199.767 136.597 198.052 134.481 198.052C132.366 198.052 130.65 199.767 130.65 201.883C130.65 203.998 132.366 205.714 134.481 205.714Z" fill="white"/>
<path d="M137.164 196.52L134.429 193.773L131.529 196.673C132.381 196.179 133.343 195.906 134.327 195.879C135.311 195.853 136.286 196.073 137.164 196.52Z" fill="white"/>
<path d="M142.591 201.953L139.845 199.207C140.302 200.081 140.529 201.058 140.502 202.044C140.475 203.031 140.196 203.994 139.691 204.841L142.591 201.953Z" fill="white"/>
<path d="M126.377 201.862L129.123 204.596C128.695 203.769 128.469 202.852 128.463 201.921C128.472 200.88 128.753 199.861 129.277 198.962L126.377 201.862Z" fill="white"/>
<path d="M131.805 207.247L134.551 209.993L137.439 207.094C136.591 207.598 135.628 207.877 134.642 207.904C133.655 207.931 132.679 207.705 131.805 207.247Z" fill="white"/>
<path d="M134.342 202.025V36.5889L36.2941 36.5889L36.2941 202.025H134.342Z" stroke="white" stroke-width="1.17874" stroke-miterlimit="10"/>
<path d="M101.75 168.725V69.6279H69.1578V168.725H101.75Z" stroke="white" stroke-width="1.17874" stroke-miterlimit="10"/>
<path d="M118.121 185.381L118.121 53.2441L52.6538 53.2441L52.6538 185.381H118.121Z" stroke="white" stroke-width="1.17874" stroke-miterlimit="10"/>
</svg>
