<svg width="126" height="175" viewBox="0 0 126 175" fill="none" xmlns="http://www.w3.org/2000/svg">
<path d="M119.394 0H5.67269C2.53975 0 0 2.53975 0 5.67269V168.586C0 171.719 2.53975 174.259 5.67269 174.259H119.394C122.527 174.259 125.067 171.719 125.067 168.586V5.67269C125.067 2.53975 122.527 0 119.394 0Z" fill="#8B93BC"/>
<path d="M123.267 168.586L123.267 5.67211C123.267 3.49143 121.499 1.72363 119.318 1.72363L5.59676 1.72363C3.41608 1.72363 1.64827 3.49143 1.64827 5.67211L1.64827 168.586C1.64827 170.766 3.41608 172.534 5.59676 172.534H119.318C121.499 172.534 123.267 170.766 123.267 168.586Z" fill="white"/>
<path d="M116.54 168.665H8.36156C7.98796 168.665 7.61802 168.591 7.27285 168.448C6.92768 168.305 6.61406 168.096 6.34988 167.831C6.0857 167.567 5.87613 167.254 5.73316 166.908C5.59018 166.563 5.5166 166.193 5.5166 165.82V8.44946C5.5166 8.07585 5.59018 7.70591 5.73316 7.36074C5.87613 7.01557 6.0857 6.70195 6.34988 6.43777C6.61406 6.17359 6.92768 5.96402 7.27285 5.82105C7.61802 5.67807 7.98796 5.60449 8.36156 5.60449H116.54C116.913 5.60449 117.282 5.67815 117.627 5.82123C117.972 5.96431 118.285 6.174 118.548 6.4383C118.812 6.70259 119.02 7.01628 119.162 7.3614C119.305 7.70651 119.377 8.07626 119.376 8.44946V165.82C119.377 166.193 119.305 166.563 119.162 166.908C119.02 167.253 118.812 167.567 118.548 167.831C118.285 168.095 117.972 168.305 117.627 168.448C117.282 168.591 116.913 168.665 116.54 168.665ZM8.36156 6.46661C7.83568 6.46661 7.33133 6.67551 6.95947 7.04736C6.58761 7.41922 6.37871 7.92357 6.37871 8.44946V165.82C6.37871 166.346 6.58761 166.85 6.95947 167.222C7.33133 167.594 7.83568 167.803 8.36156 167.803H116.54C117.064 167.8 117.566 167.59 117.936 167.219C118.306 166.847 118.514 166.344 118.514 165.82V8.44946C118.514 7.92506 118.306 7.42203 117.936 7.05042C117.566 6.6788 117.064 6.46889 116.54 6.46661H8.36156Z" fill="#2F3247"/>
<path d="M117.23 165.811L117.23 8.44946C117.23 8.06855 116.922 7.75977 116.541 7.75977L8.37144 7.75977C7.99054 7.75977 7.68174 8.06855 7.68174 8.44946L7.68174 165.811C7.68174 166.192 7.99054 166.501 8.37144 166.501H116.541C116.922 166.501 117.23 166.192 117.23 165.811Z" fill="#2F3247"/>
<path d="M116.361 165.638L116.361 8.62109L8.53684 8.62109L8.53684 165.638H116.361Z" stroke="white" stroke-width="0.431057" stroke-miterlimit="10"/>
<path d="M112.91 162.189L112.91 12.0693L11.9826 12.0693L11.9826 162.189H112.91Z" stroke="white" stroke-width="0.431057" stroke-miterlimit="10"/>
<path d="M112.058 161.327L112.058 12.9316L12.8542 12.9316L12.8542 161.327H112.058Z" fill="white"/>
<path d="M110.326 159.732L110.326 14.7852L14.5712 14.7852L14.5712 159.732H110.326Z" fill="#2F3247"/>
<path d="M38.5052 34.3757L33.9453 38.9355L38.5052 43.4954L43.065 38.9355L38.5052 34.3757Z" fill="white"/>
<path d="M62.4544 34.3796L57.8945 38.9395L62.4544 43.4993L67.0143 38.9395L62.4544 34.3796Z" fill="white"/>
<path d="M86.3889 34.3825L81.8291 38.9424L86.389 43.5022L90.9488 38.9424L86.3889 34.3825Z" fill="white"/>
<path d="M38.5108 19.3457L43.0713 14.7852H33.9502L38.5108 19.3457Z" fill="white"/>
<path d="M62.4522 19.3457L67.0127 14.7852H57.8916L62.4522 19.3457Z" fill="white"/>
<path d="M81.834 14.7852L86.3946 19.3457L90.9552 14.7852H81.834Z" fill="white"/>
<path d="M38.5101 58.5456L33.9502 63.1055L38.51 67.6653L43.0699 63.1055L38.5101 58.5456Z" fill="white"/>
<path d="M62.4466 58.5388L57.8867 63.0986L62.4466 67.6585L67.0064 63.0986L62.4466 58.5388Z" fill="white"/>
<path d="M86.3938 58.5407L81.834 63.1006L86.3938 67.6604L90.9537 63.1006L86.3938 58.5407Z" fill="white"/>
<path d="M38.5169 82.6999L33.957 87.2598L38.5169 91.8196L43.0767 87.2597L38.5169 82.6999Z" fill="white"/>
<path d="M62.4544 82.7048L57.8945 87.2646L62.4544 91.8245L67.0142 87.2646L62.4544 82.7048Z" fill="white"/>
<path d="M86.3938 82.7058L81.834 87.2656L86.3938 91.8255L90.9537 87.2656L86.3938 82.7058Z" fill="white"/>
<path d="M38.514 106.859L33.9541 111.419L38.514 115.979L43.0738 111.419L38.514 106.859Z" fill="white"/>
<path d="M62.4495 106.854L57.8896 111.414L62.4495 115.974L67.0094 111.414L62.4495 106.854Z" fill="white"/>
<path d="M86.3958 106.857L81.8359 111.417L86.3958 115.977L90.9556 111.417L86.3958 106.857Z" fill="white"/>
<path d="M38.5169 131.018L33.957 135.578L38.5169 140.138L43.0768 135.578L38.5169 131.018Z" fill="white"/>
<path d="M62.4544 131.012L57.8945 135.572L62.4544 140.132L67.0143 135.572L62.4544 131.012Z" fill="white"/>
<path d="M86.3889 131.016L81.8291 135.576L86.389 140.136L90.9488 135.576L86.3889 131.016Z" fill="white"/>
<path d="M33.9502 159.731H43.0713L38.5108 155.171L33.9502 159.731Z" fill="white"/>
<path d="M57.8916 159.731H67.0127L62.4522 155.171L57.8916 159.731Z" fill="white"/>
<path d="M86.3946 155.171L81.834 159.731H90.9552L86.3946 155.171Z" fill="white"/>
<path d="M110.325 140.147V131.025L105.765 135.586L110.325 140.147Z" fill="white"/>
<path d="M110.325 115.981V106.859L105.765 111.42L110.325 115.981Z" fill="white"/>
<path d="M110.325 91.8157V82.7031L105.765 87.2551L110.325 91.8157Z" fill="white"/>
<path d="M110.325 67.6583V58.5371L105.765 63.0977L110.325 67.6583Z" fill="white"/>
<path d="M110.325 43.719V34.6064L105.765 39.167L110.325 43.719Z" fill="white"/>
<path d="M105.099 14.5527L110.995 20.4582V14.5527H105.099Z" fill="white"/>
<path d="M111.479 160.664V153.802L104.616 160.664H111.479Z" fill="white"/>
<path d="M14.5723 140.147V131.025L19.1329 135.586L14.5723 140.147Z" fill="white"/>
<path d="M14.5723 116.204V107.083L19.1329 111.644L14.5723 116.204Z" fill="white"/>
<path d="M14.5723 91.8157V82.7031L19.1329 87.2551L14.5723 91.8157Z" fill="white"/>
<path d="M14.5723 67.6583V58.5371L19.1329 63.0977L14.5723 67.6583Z" fill="white"/>
<path d="M14.5723 43.719V34.6064L19.1329 39.167L14.5723 43.719Z" fill="white"/>
<path d="M19.7166 14.6387L13.9922 20.3717V14.6387H19.7166Z" fill="white"/>
<path d="M14.0635 160.026V154.439L19.65 160.026H14.0635Z" fill="white"/>
<path d="M36.2298 26.9456L26.4639 17.1797L16.8504 26.7932L26.6163 36.5591L36.2298 26.9456Z" stroke="white" stroke-width="0.862113" stroke-miterlimit="10"/>
<path d="M60.1624 26.9358L50.3965 17.1699L40.783 26.7834L50.5489 36.5493L60.1624 26.9358Z" stroke="white" stroke-width="0.862113" stroke-miterlimit="10"/>
<path d="M84.1048 26.9426L74.3389 17.1768L64.7254 26.7902L74.4913 36.5561L84.1048 26.9426Z" stroke="white" stroke-width="0.862113" stroke-miterlimit="10"/>
<path d="M108.048 26.9407L98.2822 17.1748L88.6687 26.7883L98.4346 36.5542L108.048 26.9407Z" stroke="white" stroke-width="0.862113" stroke-miterlimit="10"/>
<path d="M26.4607 60.7102L36.2266 50.9443L26.6131 41.3308L16.8472 51.0967L26.4607 60.7102Z" stroke="white" stroke-width="0.862113" stroke-miterlimit="10"/>
<path d="M50.4118 60.7102L60.1777 50.9443L50.5642 41.3308L40.7984 51.0967L50.4118 60.7102Z" stroke="white" stroke-width="0.862113" stroke-miterlimit="10"/>
<path d="M74.3445 60.7073L84.1104 50.9414L74.4969 41.3279L64.731 51.0938L74.3445 60.7073Z" stroke="white" stroke-width="0.862113" stroke-miterlimit="10"/>
<path d="M98.28 60.7141L108.046 50.9482L98.4324 41.3347L88.6665 51.1006L98.28 60.7141Z" stroke="white" stroke-width="0.862113" stroke-miterlimit="10"/>
<path d="M26.4656 84.8743L36.2314 75.1084L26.618 65.4949L16.8521 75.2608L26.4656 84.8743Z" stroke="white" stroke-width="0.862113" stroke-miterlimit="10"/>
<path d="M50.407 84.8645L60.1729 75.0986L50.5594 65.4852L40.7935 75.251L50.407 84.8645Z" stroke="white" stroke-width="0.862113" stroke-miterlimit="10"/>
<path d="M74.3425 84.8694L84.1084 75.1035L74.4949 65.49L64.729 75.2559L74.3425 84.8694Z" stroke="white" stroke-width="0.862113" stroke-miterlimit="10"/>
<path d="M98.2859 84.8665L108.052 75.1006L98.4383 65.4871L88.6724 75.253L98.2859 84.8665Z" stroke="white" stroke-width="0.862113" stroke-miterlimit="10"/>
<path d="M26.4607 109.027L36.2266 99.2607L26.6131 89.6473L16.8472 99.4131L26.4607 109.027Z" stroke="white" stroke-width="0.862113" stroke-miterlimit="10"/>
<path d="M50.4158 109.026L60.1816 99.2598L50.5682 89.6463L40.8023 99.4122L50.4158 109.026Z" stroke="white" stroke-width="0.862113" stroke-miterlimit="10"/>
<path d="M74.3493 109.025L84.1152 99.2588L74.5018 89.6453L64.7359 99.4112L74.3493 109.025Z" stroke="white" stroke-width="0.862113" stroke-miterlimit="10"/>
<path d="M98.2839 109.03L108.05 99.2637L98.4363 89.6502L88.6704 99.4161L98.2839 109.03Z" stroke="white" stroke-width="0.862113" stroke-miterlimit="10"/>
<path d="M26.4695 133.191L36.2354 123.425L26.6219 113.811L16.856 123.577L26.4695 133.191Z" stroke="white" stroke-width="0.862113" stroke-miterlimit="10"/>
<path d="M50.4118 133.19L60.1777 123.424L50.5642 113.81L40.7984 123.576L50.4118 133.19Z" stroke="white" stroke-width="0.862113" stroke-miterlimit="10"/>
<path d="M74.3445 133.186L84.1104 123.42L74.4969 113.806L64.731 123.572L74.3445 133.186Z" stroke="white" stroke-width="0.862113" stroke-miterlimit="10"/>
<path d="M98.28 133.191L108.046 123.425L98.4324 113.811L88.6665 123.577L98.28 133.191Z" stroke="white" stroke-width="0.862113" stroke-miterlimit="10"/>
<path d="M26.4607 157.346L36.2266 147.58L26.6131 137.967L16.8472 147.732L26.4607 157.346Z" stroke="white" stroke-width="0.862113" stroke-miterlimit="10"/>
<path d="M50.4118 157.337L60.1777 147.571L50.5643 137.958L40.7984 147.724L50.4118 157.337Z" stroke="white" stroke-width="0.862113" stroke-miterlimit="10"/>
<path d="M74.3445 157.342L84.1104 147.576L74.4969 137.963L64.731 147.729L74.3445 157.342Z" stroke="white" stroke-width="0.862113" stroke-miterlimit="10"/>
<path d="M98.28 157.341L108.046 147.575L98.4324 137.962L88.6665 147.728L98.28 157.341Z" stroke="white" stroke-width="0.862113" stroke-miterlimit="10"/>
<path d="M26.547 29.6653C28.0944 29.6653 29.3489 28.4108 29.3489 26.8634C29.3489 25.316 28.0944 24.0615 26.547 24.0615C24.9996 24.0615 23.7451 25.316 23.7451 26.8634C23.7451 28.4108 24.9996 29.6653 26.547 29.6653Z" fill="white"/>
<path d="M26.547 29.6653C28.0944 29.6653 29.3489 28.4108 29.3489 26.8634C29.3489 25.316 28.0944 24.0615 26.547 24.0615C24.9996 24.0615 23.7451 25.316 23.7451 26.8634C23.7451 28.4108 24.9996 29.6653 26.547 29.6653Z" fill="white"/>
<path d="M26.547 29.6653C28.0944 29.6653 29.3489 28.4108 29.3489 26.8634C29.3489 25.316 28.0944 24.0615 26.547 24.0615C24.9996 24.0615 23.7451 25.316 23.7451 26.8634C23.7451 28.4108 24.9996 29.6653 26.547 29.6653Z" fill="white"/>
<path d="M28.5027 22.9408L26.494 20.9062L24.3818 23.027C25.002 22.6579 25.7063 22.4538 26.4277 22.4342C27.1491 22.4146 27.8635 22.5801 28.5027 22.915V22.9408Z" fill="white"/>
<path d="M30.9417 26.8632C30.9377 27.6232 30.7357 28.3691 30.3555 29.0271L32.4763 26.9408L30.4934 24.9062C30.7918 25.5153 30.9452 26.1851 30.9417 26.8632Z" fill="white"/>
<path d="M20.6162 26.8114L22.6249 28.8201C22.2901 28.1809 22.1245 27.4665 22.1442 26.7451C22.1638 26.0237 22.3679 25.3193 22.737 24.6992L20.6162 26.8114Z" fill="white"/>
<path d="M24.585 30.7869L26.5851 32.7956L28.7059 30.6748C28.0857 31.0439 27.3814 31.248 26.66 31.2677C25.9386 31.2873 25.2242 31.1218 24.585 30.7869Z" fill="white"/>
<path d="M50.4874 29.6653C52.0348 29.6653 53.2893 28.4108 53.2893 26.8634C53.2893 25.316 52.0348 24.0615 50.4874 24.0615C48.94 24.0615 47.6855 25.316 47.6855 26.8634C47.6855 28.4108 48.94 29.6653 50.4874 29.6653Z" fill="white"/>
<path d="M52.441 22.9408L50.4323 20.9062L48.3115 23.027C48.9702 22.6397 49.7199 22.4344 50.484 22.4322C51.1675 22.4442 51.8382 22.6185 52.441 22.9408Z" fill="white"/>
<path d="M54.8822 26.8632C54.8782 27.6232 54.6761 28.3691 54.2959 29.0271L56.4081 26.915L54.408 24.9062C54.7153 25.5131 54.8776 26.183 54.8822 26.8632Z" fill="white"/>
<path d="M44.5518 26.8114L46.5519 28.8201C46.2248 28.1785 46.0638 27.4652 46.0833 26.7454C46.1029 26.0255 46.3025 25.3221 46.6639 24.6992L44.5518 26.8114Z" fill="white"/>
<path d="M48.5195 30.7869L50.5282 32.7956L52.6491 30.6748C52.0274 31.0439 51.3216 31.2479 50.5989 31.2676C49.8761 31.2872 49.1603 31.1217 48.5195 30.7869Z" fill="white"/>
<path d="M74.4181 29.6653C75.9655 29.6653 77.2199 28.4108 77.2199 26.8634C77.2199 25.316 75.9655 24.0615 74.4181 24.0615C72.8707 24.0615 71.6162 25.316 71.6162 26.8634C71.6162 28.4108 72.8707 29.6653 74.4181 29.6653Z" fill="white"/>
<path d="M76.3748 22.9408L74.3747 20.9062L72.2539 23.027C72.874 22.6579 73.5784 22.4538 74.2998 22.4342C75.0212 22.4146 75.7355 22.5801 76.3748 22.915V22.9408Z" fill="white"/>
<path d="M78.8214 26.8632C78.8177 27.6244 78.6124 28.371 78.2266 29.0271L80.3474 26.915L78.3473 24.9062C78.6546 25.5131 78.8169 26.183 78.8214 26.8632Z" fill="white"/>
<path d="M68.4883 26.8114L70.497 28.8201C70.17 28.1785 70.0089 27.4652 70.0285 26.7454C70.048 26.0255 70.2477 25.3221 70.6091 24.6992L68.4883 26.8114Z" fill="white"/>
<path d="M72.4619 30.7869L74.4707 32.7956L76.5828 30.6748C75.9627 31.0439 75.2584 31.248 74.537 31.2677C73.8156 31.2873 73.1012 31.1218 72.4619 30.7869Z" fill="white"/>
<path d="M98.3575 29.6653C99.905 29.6653 101.159 28.4108 101.159 26.8634C101.159 25.316 99.905 24.0615 98.3575 24.0615C96.8101 24.0615 95.5557 25.316 95.5557 26.8634C95.5557 28.4108 96.8101 29.6653 98.3575 29.6653Z" fill="white"/>
<path d="M100.323 22.9408L98.3142 20.9062L96.1934 23.027C96.8135 22.6579 97.5178 22.4538 98.2392 22.4342C98.9606 22.4146 99.675 22.5801 100.314 22.915L100.323 22.9408Z" fill="white"/>
<path d="M104.289 26.9413L102.28 24.9326C102.615 25.5719 102.78 26.2863 102.761 27.0077C102.741 27.729 102.537 28.4334 102.168 29.0535L104.289 26.9413Z" fill="white"/>
<path d="M92.4307 26.8114L94.4394 28.8201C94.1261 28.2151 93.9606 27.5445 93.9566 26.8631C93.9632 26.1024 94.1682 25.3565 94.5515 24.6992L92.4307 26.8114Z" fill="white"/>
<path d="M96.3994 30.7869L98.4081 32.7956L100.52 30.6748C99.9002 31.0439 99.1958 31.248 98.4745 31.2677C97.7531 31.2873 97.0387 31.1218 96.3994 30.7869Z" fill="white"/>
<path d="M26.547 53.8235C28.0944 53.8235 29.3489 52.569 29.3489 51.0216C29.3489 49.4742 28.0944 48.2197 26.547 48.2197C24.9996 48.2197 23.7451 49.4742 23.7451 51.0216C23.7451 52.569 24.9996 53.8235 26.547 53.8235Z" fill="white"/>
<path d="M28.5027 47.0976L26.494 45.0889L24.3818 47.2097C25.0047 46.8483 25.7082 46.6487 26.428 46.6291C27.1479 46.6095 27.8612 46.7706 28.5027 47.0976Z" fill="white"/>
<path d="M30.9417 51.0205C30.9377 51.7805 30.7357 52.5263 30.3555 53.1844L32.4763 51.0808L30.4934 49.0635C30.7918 49.6725 30.9452 50.3423 30.9417 51.0205Z" fill="white"/>
<path d="M20.6162 50.9763L22.6249 52.9764C22.2901 52.3371 22.1245 51.6227 22.1442 50.9013C22.1638 50.1799 22.3679 49.4756 22.737 48.8555L20.6162 50.9763Z" fill="white"/>
<path d="M24.585 54.9431L26.5851 56.9518L28.7059 54.8311C28.0857 55.2002 27.3814 55.4043 26.66 55.4239C25.9386 55.4435 25.2242 55.278 24.585 54.9431Z" fill="white"/>
<path d="M50.4874 53.8235C52.0348 53.8235 53.2893 52.569 53.2893 51.0216C53.2893 49.4742 52.0348 48.2197 50.4874 48.2197C48.94 48.2197 47.6855 49.4742 47.6855 51.0216C47.6855 52.569 48.94 53.8235 50.4874 53.8235Z" fill="white"/>
<path d="M52.441 47.0976L50.4323 45.0889L48.3115 47.2097C48.9354 46.8468 49.6404 46.6463 50.362 46.6267C51.0835 46.6072 51.7984 46.7691 52.441 47.0976Z" fill="white"/>
<path d="M54.8822 51.0205C54.8782 51.7805 54.6761 52.5263 54.2959 53.1844L56.4081 51.0722L54.408 49.0635C54.7153 49.6703 54.8776 50.3402 54.8822 51.0205Z" fill="white"/>
<path d="M44.5518 50.9763L46.5519 52.9764C46.2248 52.3348 46.0638 51.6215 46.0833 50.9016C46.1029 50.1818 46.3025 49.4783 46.6639 48.8555L44.5518 50.9763Z" fill="white"/>
<path d="M48.5195 54.9431L50.5282 56.9518L52.6491 54.8311C52.0274 55.2001 51.3216 55.4042 50.5989 55.4238C49.8761 55.4434 49.1603 55.278 48.5195 54.9431Z" fill="white"/>
<path d="M74.4181 53.8235C75.9655 53.8235 77.2199 52.569 77.2199 51.0216C77.2199 49.4742 75.9655 48.2197 74.4181 48.2197C72.8707 48.2197 71.6162 49.4742 71.6162 51.0216C71.6162 52.569 72.8707 53.8235 74.4181 53.8235Z" fill="white"/>
<path d="M76.3748 47.0976L74.3747 45.0889L72.2539 47.2097C72.8768 46.8483 73.5802 46.6487 74.3001 46.6291C75.0199 46.6095 75.7332 46.7706 76.3748 47.0976Z" fill="white"/>
<path d="M78.8214 51.0205C78.8177 51.7816 78.6124 52.5282 78.2266 53.1844L80.3474 51.0722L78.3473 49.0635C78.6546 49.6703 78.8169 50.3402 78.8214 51.0205Z" fill="white"/>
<path d="M68.4883 50.9763L70.497 52.9764C70.17 52.3348 70.0089 51.6215 70.0285 50.9016C70.048 50.1818 70.2477 49.4783 70.6091 48.8555L68.4883 50.9763Z" fill="white"/>
<path d="M72.4619 54.9431L74.4707 56.9518L76.5828 54.8311C75.9627 55.2002 75.2584 55.4043 74.537 55.4239C73.8156 55.4435 73.1012 55.278 72.4619 54.9431Z" fill="white"/>
<path d="M98.3575 53.8235C99.905 53.8235 101.159 52.569 101.159 51.0216C101.159 49.4742 99.905 48.2197 98.3575 48.2197C96.8101 48.2197 95.5557 49.4742 95.5557 51.0216C95.5557 52.569 96.8101 53.8235 98.3575 53.8235Z" fill="white"/>
<path d="M100.319 47.0976L98.319 45.0889L96.1982 47.2097C96.8211 46.8483 97.5246 46.6487 98.2444 46.6291C98.9643 46.6095 99.6776 46.7706 100.319 47.0976Z" fill="white"/>
<path d="M104.289 51.081L102.28 49.0723C102.615 49.7115 102.78 50.4259 102.761 51.1473C102.741 51.8687 102.537 52.573 102.168 53.1932L104.289 51.081Z" fill="white"/>
<path d="M92.4307 50.9763L94.4394 52.9764C94.1261 52.3714 93.9606 51.7007 93.9566 51.0194C93.9632 50.2586 94.1682 49.5127 94.5515 48.8555L92.4307 50.9763Z" fill="white"/>
<path d="M96.3994 54.9431L98.4081 56.9518L100.52 54.8311C99.9002 55.2002 99.1958 55.4043 98.4745 55.4239C97.7531 55.4435 97.0387 55.278 96.3994 54.9431Z" fill="white"/>
<path d="M26.547 77.9778C28.0944 77.9778 29.3489 76.7233 29.3489 75.1759C29.3489 73.6285 28.0944 72.374 26.547 72.374C24.9996 72.374 23.7451 73.6285 23.7451 75.1759C23.7451 76.7233 24.9996 77.9778 26.547 77.9778Z" fill="white"/>
<path d="M28.5027 71.254L26.494 69.2539L24.3818 71.3661C25.0047 71.0047 25.7082 70.8051 26.428 70.7855C27.1479 70.7659 27.8612 70.927 28.5027 71.254Z" fill="white"/>
<path d="M30.9417 75.2198C30.9369 75.9824 30.7349 76.7308 30.3555 77.3924L32.4763 75.2198L30.4934 73.2197C30.7983 73.8418 30.9519 74.5271 30.9417 75.2198Z" fill="white"/>
<path d="M20.6162 75.1325L22.6249 77.1412C22.2901 76.5004 22.1247 75.7847 22.1443 75.0619C22.1639 74.3392 22.3679 73.6334 22.737 73.0117L20.6162 75.1325Z" fill="white"/>
<path d="M24.585 79.1082L26.5851 81.1083L28.7059 78.9961C28.083 79.3575 27.3795 79.5571 26.6597 79.5767C25.9398 79.5963 25.2265 79.4352 24.585 79.1082Z" fill="white"/>
<path d="M50.4874 77.9778C52.0348 77.9778 53.2893 76.7233 53.2893 75.1759C53.2893 73.6285 52.0348 72.374 50.4874 72.374C48.94 72.374 47.6855 73.6285 47.6855 75.1759C47.6855 76.7233 48.94 77.9778 50.4874 77.9778Z" fill="white"/>
<path d="M52.441 71.254L50.4323 69.2539L48.3115 71.3661C48.9354 71.0032 49.6404 70.8027 50.362 70.7832C51.0835 70.7636 51.7984 70.9255 52.441 71.254Z" fill="white"/>
<path d="M54.8822 75.2197C54.8773 75.9823 54.6754 76.7307 54.2959 77.3922L56.4081 75.2714L54.408 73.2627C54.7153 73.8696 54.8776 74.5395 54.8822 75.2197Z" fill="white"/>
<path d="M44.5518 75.1325L46.5519 77.1412C46.2233 76.4986 46.0614 75.7837 46.081 75.0622C46.1006 74.3407 46.301 73.6356 46.6639 73.0117L44.5518 75.1325Z" fill="white"/>
<path d="M48.5195 79.1082L50.5282 81.1083L52.6491 78.9961C52.0252 79.359 51.3201 79.5595 50.5986 79.579C49.8771 79.5986 49.1622 79.4367 48.5195 79.1082Z" fill="white"/>
<path d="M74.4181 77.9778C75.9655 77.9778 77.2199 76.7233 77.2199 75.1759C77.2199 73.6285 75.9655 72.374 74.4181 72.374C72.8707 72.374 71.6162 73.6285 71.6162 75.1759C71.6162 76.7233 72.8707 77.9778 74.4181 77.9778Z" fill="white"/>
<path d="M76.3748 71.254L74.3747 69.2539L72.2539 71.3661C72.8768 71.0047 73.5802 70.8051 74.3001 70.7855C75.0199 70.7659 75.7332 70.927 76.3748 71.254Z" fill="white"/>
<path d="M78.8214 75.2197C78.8192 75.9838 78.6139 76.7335 78.2266 77.3922L80.3474 75.2714L78.3473 73.2627C78.6546 73.8696 78.8169 74.5395 78.8214 75.2197Z" fill="white"/>
<path d="M68.4883 75.1325L70.497 77.1412C70.1684 76.4986 70.0065 75.7837 70.0261 75.0622C70.0457 74.3407 70.2462 73.6356 70.6091 73.0117L68.4883 75.1325Z" fill="white"/>
<path d="M72.4619 79.1082L74.4707 81.1083L76.5828 78.9961C75.96 79.3575 75.2565 79.5571 74.5366 79.5767C73.8168 79.5963 73.1035 79.4352 72.4619 79.1082Z" fill="white"/>
<path d="M98.3575 77.9778C99.905 77.9778 101.159 76.7233 101.159 75.1759C101.159 73.6285 99.905 72.374 98.3575 72.374C96.8101 72.374 95.5557 73.6285 95.5557 75.1759C95.5557 76.7233 96.8101 77.9778 98.3575 77.9778Z" fill="white"/>
<path d="M100.319 71.254L98.319 69.2539L96.1982 71.3661C96.8211 71.0047 97.5246 70.8051 98.2444 70.7855C98.9643 70.7659 99.6776 70.927 100.319 71.254Z" fill="white"/>
<path d="M104.289 75.2196L102.28 73.2109C102.593 73.8159 102.759 74.4866 102.763 75.1679C102.761 75.932 102.555 76.6818 102.168 77.3404L104.289 75.2196Z" fill="white"/>
<path d="M92.4307 75.1325L94.4394 77.1412C94.1247 76.5336 93.9592 75.8599 93.9566 75.1756C93.9655 74.4152 94.1704 73.6699 94.5515 73.0117L92.4307 75.1325Z" fill="white"/>
<path d="M96.3994 79.1082L98.4081 81.1083L100.52 78.9961C99.8975 79.3575 99.194 79.5571 98.4741 79.5767C97.7543 79.5963 97.041 79.4352 96.3994 79.1082Z" fill="white"/>
<path d="M26.547 96.5391C25.9928 96.5391 25.4511 96.7034 24.9904 97.0113C24.5296 97.3191 24.1705 97.7567 23.9584 98.2687C23.7463 98.7807 23.6908 99.344 23.799 99.8876C23.9071 100.431 24.1739 100.93 24.5658 101.322C24.9576 101.714 25.4569 101.981 26.0004 102.089C26.5439 102.197 27.1072 102.142 27.6192 101.93C28.1312 101.717 28.5688 101.358 28.8767 100.898C29.1845 100.437 29.3489 99.8951 29.3489 99.3409C29.35 98.9727 29.2783 98.6078 29.1379 98.2674C28.9975 97.9269 28.7911 97.6176 28.5307 97.3572C28.2703 97.0968 27.961 96.8904 27.6206 96.75C27.2801 96.6096 26.9153 96.5379 26.547 96.5391Z" fill="white"/>
<path d="M28.5027 95.4189L26.494 93.4102L24.3818 95.5309C25.002 95.1618 25.7063 94.9577 26.4277 94.9381C27.1491 94.9185 27.8635 95.084 28.5027 95.4189Z" fill="white"/>
<path d="M30.9417 99.359C30.9369 100.119 30.7349 100.865 30.3555 101.523L32.4763 99.359L30.4934 97.3848C30.7953 97.9987 30.9488 98.6749 30.9417 99.359Z" fill="white"/>
<path d="M20.6162 99.2889L22.6249 101.298C22.2901 100.658 22.1245 99.944 22.1442 99.2226C22.1638 98.5012 22.3679 97.7969 22.737 97.1768L20.6162 99.2889Z" fill="white"/>
<path d="M24.585 103.264L26.5851 105.273L28.7059 103.152C28.083 103.514 27.3795 103.713 26.6597 103.733C25.9398 103.753 25.2265 103.591 24.585 103.264Z" fill="white"/>
<path d="M50.4843 96.5391C49.9298 96.5374 49.3872 96.7002 48.9253 97.0071C48.4634 97.3139 48.103 97.7509 47.8896 98.2627C47.6762 98.7745 47.6195 99.3382 47.7266 99.8822C47.8338 100.426 48.0999 100.926 48.4914 101.319C48.8829 101.712 49.3822 101.98 49.9259 102.088C50.4696 102.197 51.0334 102.142 51.5459 101.93C52.0584 101.719 52.4965 101.359 52.8047 100.898C53.113 100.438 53.2776 99.8955 53.2776 99.3409C53.2787 98.9734 53.2073 98.6092 53.0674 98.2694C52.9276 97.9295 52.722 97.6205 52.4625 97.3602C52.203 97.0999 51.8947 96.8934 51.5552 96.7525C51.2158 96.6116 50.8519 96.5391 50.4843 96.5391Z" fill="white"/>
<path d="M52.441 95.4189L50.4323 93.4102L48.3115 95.5309C48.9702 95.1436 49.7199 94.9383 50.484 94.9361C51.1654 94.9401 51.836 95.1055 52.441 95.4189Z" fill="white"/>
<path d="M54.8822 99.3593C54.8774 100.119 54.6754 100.865 54.2959 101.523L56.4081 99.4024L54.408 97.4023C54.7162 98.0089 54.8786 98.679 54.8822 99.3593Z" fill="white"/>
<path d="M44.5518 99.2889L46.5519 101.298C46.2248 100.656 46.0638 99.9428 46.0833 99.2229C46.1029 98.5031 46.3025 97.7996 46.6639 97.1768L44.5518 99.2889Z" fill="white"/>
<path d="M48.5195 103.264L50.5282 105.273L52.6491 103.152C52.0252 103.515 51.3201 103.716 50.5986 103.735C49.8771 103.755 49.1622 103.593 48.5195 103.264Z" fill="white"/>
<path d="M74.4611 96.5394C73.906 96.5309 73.3608 96.6875 72.8948 96.9893C72.4288 97.2912 72.0629 97.7247 71.8437 98.2349C71.6246 98.745 71.5619 99.3088 71.6637 99.8546C71.7655 100.4 72.0272 100.904 72.4155 101.301C72.8039 101.697 73.3014 101.97 73.8449 102.084C74.3884 102.197 74.9534 102.147 75.4682 101.939C75.9829 101.73 76.4243 101.374 76.7362 100.915C77.048 100.455 77.2164 99.9137 77.2199 99.3585C77.2245 98.6198 76.9373 97.9092 76.4206 97.3812C75.904 96.8533 75.1997 96.5507 74.4611 96.5394Z" fill="white"/>
<path d="M76.3748 95.4189L74.3747 93.4102L72.2539 95.5309C72.874 95.1618 73.5784 94.9577 74.2998 94.9381C75.0212 94.9185 75.7355 95.084 76.3748 95.4189Z" fill="white"/>
<path d="M78.8214 99.3593C78.8177 100.121 78.6124 100.867 78.2266 101.523L80.3474 99.4024L78.3473 97.4023C78.6555 98.0089 78.8178 98.679 78.8214 99.3593Z" fill="white"/>
<path d="M68.4883 99.2889L70.497 101.298C70.17 100.656 70.0089 99.9428 70.0285 99.2229C70.048 98.5031 70.2477 97.7996 70.6091 97.1768L68.4883 99.2889Z" fill="white"/>
<path d="M72.4619 103.264L74.4707 105.273L76.5828 103.152C75.96 103.514 75.2565 103.713 74.5366 103.733C73.8168 103.753 73.1035 103.591 72.4619 103.264Z" fill="white"/>
<path d="M98.357 96.5392C97.8047 96.5443 97.2663 96.7125 96.8093 97.0227C96.3523 97.3329 95.9972 97.7713 95.7886 98.2827C95.58 98.7941 95.5272 99.3557 95.6368 99.897C95.7464 100.438 96.0136 100.935 96.4047 101.325C96.7959 101.715 97.2935 101.981 97.8352 102.089C98.3768 102.197 98.9383 102.142 99.4491 101.932C99.9599 101.722 100.397 101.365 100.706 100.907C101.015 100.45 101.181 99.9106 101.185 99.3583C101.187 98.9867 101.115 98.6184 100.974 98.2747C100.833 97.9311 100.624 97.619 100.361 97.3567C100.098 97.0943 99.7853 96.8869 99.4412 96.7466C99.0971 96.6062 98.7286 96.5357 98.357 96.5392Z" fill="white"/>
<path d="M100.319 95.4189L98.319 93.4102L96.1982 95.5309C96.8184 95.1618 97.5227 94.9577 98.2441 94.9381C98.9655 94.9185 99.6799 95.084 100.319 95.4189Z" fill="white"/>
<path d="M104.289 99.3605L102.28 97.3604C102.615 97.9996 102.78 98.714 102.761 99.4354C102.741 100.157 102.537 100.861 102.168 101.481L104.289 99.3605Z" fill="white"/>
<path d="M92.4307 99.2889L94.4394 101.298C94.1261 100.693 93.9606 100.022 93.9566 99.3407C93.9632 98.5799 94.1682 97.834 94.5515 97.1768L92.4307 99.2889Z" fill="white"/>
<path d="M96.3994 103.264L98.4081 105.273L100.52 103.152C99.8975 103.514 99.194 103.713 98.4741 103.733C97.7543 103.753 97.041 103.591 96.3994 103.264Z" fill="white"/>
<path d="M26.547 126.3C28.0944 126.3 29.3489 125.046 29.3489 123.498C29.3489 121.951 28.0944 120.696 26.547 120.696C24.9996 120.696 23.7451 121.951 23.7451 123.498C23.7451 125.046 24.9996 126.3 26.547 126.3Z" fill="white"/>
<path d="M28.5027 119.574L26.494 117.565L24.3818 119.686C25.002 119.317 25.7063 119.113 26.4277 119.093C27.1491 119.074 27.8635 119.239 28.5027 119.574Z" fill="white"/>
<path d="M30.9417 123.498C30.9377 124.258 30.7357 125.004 30.3555 125.662L32.4763 123.541L30.4934 121.541C30.7918 122.15 30.9452 122.82 30.9417 123.498Z" fill="white"/>
<path d="M20.6162 123.446L22.6249 125.455C22.2901 124.816 22.1245 124.101 22.1442 123.38C22.1638 122.658 22.3679 121.954 22.737 121.334L20.6162 123.446Z" fill="white"/>
<path d="M24.585 127.42L26.5851 129.428L28.7059 127.308C28.0857 127.677 27.3814 127.881 26.66 127.9C25.9386 127.92 25.2242 127.755 24.585 127.42Z" fill="white"/>
<path d="M50.4874 126.3C52.0348 126.3 53.2893 125.046 53.2893 123.498C53.2893 121.951 52.0348 120.696 50.4874 120.696C48.94 120.696 47.6855 121.951 47.6855 123.498C47.6855 125.046 48.94 126.3 50.4874 126.3Z" fill="white"/>
<path d="M52.441 119.574L50.4323 117.565L48.3115 119.686C48.9702 119.299 49.7199 119.094 50.484 119.091C51.1654 119.095 51.836 119.261 52.441 119.574Z" fill="white"/>
<path d="M54.8822 123.498C54.8782 124.258 54.6761 125.004 54.2959 125.662L56.4081 123.541L54.408 121.541C54.7153 122.148 54.8776 122.818 54.8822 123.498Z" fill="white"/>
<path d="M44.5518 123.446L46.5519 125.455C46.2248 124.813 46.0638 124.1 46.0833 123.38C46.1029 122.66 46.3025 121.957 46.6639 121.334L44.5518 123.446Z" fill="white"/>
<path d="M48.5195 127.42L50.5282 129.428L52.6491 127.308C52.0274 127.677 51.3216 127.881 50.5989 127.9C49.8761 127.92 49.1603 127.754 48.5195 127.42Z" fill="white"/>
<path d="M74.4181 126.3C75.9655 126.3 77.2199 125.046 77.2199 123.498C77.2199 121.951 75.9655 120.696 74.4181 120.696C72.8707 120.696 71.6162 121.951 71.6162 123.498C71.6162 125.046 72.8707 126.3 74.4181 126.3Z" fill="white"/>
<path d="M76.3748 119.574L74.3747 117.565L72.2539 119.686C72.874 119.317 73.5784 119.113 74.2998 119.093C75.0212 119.074 75.7355 119.239 76.3748 119.574Z" fill="white"/>
<path d="M78.8214 123.498C78.8177 124.259 78.6124 125.006 78.2266 125.662L80.3474 123.541L78.3473 121.541C78.6546 122.148 78.8169 122.818 78.8214 123.498Z" fill="white"/>
<path d="M68.4883 123.446L70.497 125.455C70.17 124.813 70.0089 124.1 70.0285 123.38C70.048 122.66 70.2477 121.957 70.6091 121.334L68.4883 123.446Z" fill="white"/>
<path d="M72.4619 127.42L74.4707 129.428L76.5828 127.308C75.9627 127.677 75.2584 127.881 74.537 127.9C73.8156 127.92 73.1012 127.755 72.4619 127.42Z" fill="white"/>
<path d="M98.3575 126.3C99.905 126.3 101.159 125.046 101.159 123.498C101.159 121.951 99.905 120.696 98.3575 120.696C96.8101 120.696 95.5557 121.951 95.5557 123.498C95.5557 125.046 96.8101 126.3 98.3575 126.3Z" fill="white"/>
<path d="M100.319 119.574L98.319 117.565L96.1982 119.686C96.8184 119.317 97.5227 119.113 98.2441 119.093C98.9655 119.074 99.6799 119.239 100.319 119.574Z" fill="white"/>
<path d="M104.289 123.541L102.28 121.541C102.615 122.18 102.78 122.895 102.761 123.616C102.741 124.337 102.537 125.042 102.168 125.662L104.289 123.541Z" fill="white"/>
<path d="M92.4307 123.446L94.4394 125.455C94.1261 124.85 93.9606 124.179 93.9566 123.498C93.9632 122.737 94.1682 121.991 94.5515 121.334L92.4307 123.446Z" fill="white"/>
<path d="M96.3994 127.42L98.4081 129.428L100.52 127.308C99.9002 127.677 99.1958 127.881 98.4745 127.9C97.7531 127.92 97.0387 127.755 96.3994 127.42Z" fill="white"/>
<path d="M26.547 150.456C28.0944 150.456 29.3489 149.202 29.3489 147.654C29.3489 146.107 28.0944 144.853 26.547 144.853C24.9996 144.853 23.7451 146.107 23.7451 147.654C23.7451 149.202 24.9996 150.456 26.547 150.456Z" fill="white"/>
<path d="M28.5027 143.731L26.494 141.723L24.3818 143.843C25.0047 143.482 25.7082 143.282 26.428 143.263C27.1479 143.243 27.8612 143.404 28.5027 143.731Z" fill="white"/>
<path d="M30.9417 147.637C30.9377 148.397 30.7357 149.143 30.3555 149.801L32.4763 147.689L30.4934 145.697C30.7892 146.301 30.9425 146.965 30.9417 147.637Z" fill="white"/>
<path d="M20.6162 147.638L22.6249 149.638C22.2901 148.999 22.1245 148.285 22.1442 147.563C22.1638 146.842 22.3679 146.138 22.737 145.518L20.6162 147.638Z" fill="white"/>
<path d="M24.585 151.577L26.5851 153.586L28.7059 151.465C28.0857 151.834 27.3814 152.038 26.66 152.058C25.9386 152.077 25.2242 151.912 24.585 151.577Z" fill="white"/>
<path d="M50.4874 150.456C52.0348 150.456 53.2893 149.202 53.2893 147.654C53.2893 146.107 52.0348 144.853 50.4874 144.853C48.94 144.853 47.6855 146.107 47.6855 147.654C47.6855 149.202 48.94 150.456 50.4874 150.456Z" fill="white"/>
<path d="M52.441 143.731L50.4323 141.723L48.3115 143.843C48.9354 143.481 49.6404 143.28 50.362 143.261C51.0835 143.241 51.7984 143.403 52.441 143.731Z" fill="white"/>
<path d="M54.8822 147.638C54.8782 148.398 54.6761 149.143 54.2959 149.802L56.4081 147.689L54.408 145.681C54.7153 146.288 54.8776 146.957 54.8822 147.638Z" fill="white"/>
<path d="M44.5518 147.638L46.5519 149.638C46.2248 148.997 46.0638 148.284 46.0833 147.564C46.1029 146.844 46.3025 146.14 46.6639 145.518L44.5518 147.638Z" fill="white"/>
<path d="M48.5195 151.577L50.5282 153.586L52.6491 151.465C52.0274 151.834 51.3216 152.038 50.5989 152.058C49.8761 152.077 49.1603 151.912 48.5195 151.577Z" fill="white"/>
<path d="M74.4181 150.456C75.9655 150.456 77.2199 149.202 77.2199 147.654C77.2199 146.107 75.9655 144.853 74.4181 144.853C72.8707 144.853 71.6162 146.107 71.6162 147.654C71.6162 149.202 72.8707 150.456 74.4181 150.456Z" fill="white"/>
<path d="M76.3748 143.731L74.3747 141.723L72.2539 143.843C72.8768 143.482 73.5802 143.282 74.3001 143.263C75.0199 143.243 75.7332 143.404 76.3748 143.731Z" fill="white"/>
<path d="M78.8214 147.638C78.8177 148.399 78.6124 149.145 78.2266 149.802L80.3474 147.689L78.3473 145.681C78.6546 146.288 78.8169 146.957 78.8214 147.638Z" fill="white"/>
<path d="M68.4883 147.638L70.497 149.638C70.17 148.997 70.0089 148.284 70.0285 147.564C70.048 146.844 70.2477 146.14 70.6091 145.518L68.4883 147.638Z" fill="white"/>
<path d="M72.4617 151.577L74.4618 153.586L76.574 151.465C75.9539 151.834 75.2496 152.038 74.5282 152.058C73.8068 152.077 73.0924 151.912 72.4531 151.577H72.4617Z" fill="white"/>
<path d="M98.3575 150.456C99.905 150.456 101.159 149.202 101.159 147.654C101.159 146.107 99.905 144.853 98.3575 144.853C96.8101 144.853 95.5557 146.107 95.5557 147.654C95.5557 149.202 96.8101 150.456 98.3575 150.456Z" fill="white"/>
<path d="M100.319 143.731L98.319 141.723L96.1982 143.843C96.8211 143.482 97.5246 143.282 98.2444 143.263C98.9643 143.243 99.6776 143.404 100.319 143.731Z" fill="white"/>
<path d="M104.289 147.706L102.28 145.697C102.615 146.337 102.78 147.051 102.761 147.772C102.741 148.494 102.537 149.198 102.168 149.818L104.289 147.706Z" fill="white"/>
<path d="M92.4307 147.638L94.4394 149.638C94.1261 149.033 93.9606 148.363 93.9566 147.681C93.9632 146.921 94.1682 146.175 94.5515 145.518L92.4307 147.638Z" fill="white"/>
<path d="M96.3994 151.577L98.4081 153.586L100.52 151.465C99.9002 151.834 99.1958 152.038 98.4745 152.058C97.7531 152.077 97.0387 151.912 96.3994 151.577Z" fill="white"/>
<path d="M98.2549 147.758L98.2549 26.7607L26.5443 26.7607L26.5443 147.758H98.2549Z" stroke="white" stroke-width="0.862113" stroke-miterlimit="10"/>
<path d="M74.4189 123.403V50.9248H50.5815V123.403H74.4189Z" stroke="white" stroke-width="0.862113" stroke-miterlimit="10"/>
<path d="M86.3916 135.584V38.9414H38.5099L38.5099 135.584H86.3916Z" stroke="white" stroke-width="0.862113" stroke-miterlimit="10"/>
</svg>
