<svg width="231" height="352" viewBox="0 0 231 352" fill="none" xmlns="http://www.w3.org/2000/svg">
<rect width="231" height="352" fill="white"/>
<rect x="15.125" y="15.125" width="200.75" height="321.75" stroke="#00FFC2" stroke-opacity="0.1" stroke-width="0.25"/>
<line x1="40" y1="36.5" x2="231" y2="36.5" stroke="#DF523D"/>
<line x1="-4.37114e-08" y1="309.5" x2="188" y2="309.5" stroke="#DF523D"/>
<line x1="4.37114e-08" y1="73.5" x2="231" y2="73.5" stroke="#DF523D"/>
<line x1="40.5" y1="1" x2="40.5" y2="352" stroke="#DF523D"/>
<line x1="187.5" y1="73" x2="187.5" y2="352" stroke="#DF523D"/>
<path d="M64.2324 51.2715H59.6914V63H55.9414L55.9414 51.2715H51.4004V48.459H64.2324V51.2715ZM74.6426 52.9121C74.6426 52.5475 74.5677 52.235 74.418 51.9746C74.2682 51.7142 74.0111 51.5091 73.6465 51.3594C73.3926 51.2552 73.0964 51.1934 72.7578 51.1738C72.4193 51.1478 72.0254 51.1348 71.5762 51.1348H70.2188V55.0508H71.3711C71.9701 55.0508 72.4714 55.0215 72.875 54.9629C73.2786 54.9043 73.6172 54.7708 73.8906 54.5625C74.151 54.3607 74.3398 54.1393 74.457 53.8984C74.5807 53.651 74.6426 53.3223 74.6426 52.9121ZM80.4922 63H75.9121L71.9473 57.668H70.2188V63H66.4883V48.459H72.7773C73.6367 48.459 74.3757 48.5078 74.9941 48.6055C75.6126 48.7031 76.1921 48.9147 76.7324 49.2402C77.2793 49.5658 77.7122 49.9889 78.0312 50.5098C78.3568 51.0241 78.5195 51.6719 78.5195 52.4531C78.5195 53.5273 78.2689 54.403 77.7676 55.0801C77.2728 55.7572 76.5632 56.3203 75.6387 56.7695L80.4922 63ZM95.5703 63H91.6934L90.6875 60.0605H85.2969L84.291 63L80.5117 63L85.8828 48.459H90.1992L95.5703 63ZM89.7793 57.3945L87.9922 52.1797L86.2051 57.3945H89.7793ZM104.232 63.2832C103.152 63.2832 102.152 63.1237 101.234 62.8047C100.323 62.4857 99.5384 62.0104 98.8809 61.3789C98.2233 60.7474 97.7122 59.9596 97.3477 59.0156C96.9896 58.0716 96.8105 56.9811 96.8105 55.7441C96.8105 54.5918 96.9831 53.5469 97.3281 52.6094C97.6732 51.6719 98.1745 50.8678 98.832 50.1973C99.4635 49.5527 100.245 49.0547 101.176 48.7031C102.113 48.3516 103.135 48.1758 104.242 48.1758C104.854 48.1758 105.404 48.2116 105.893 48.2832C106.387 48.3483 106.843 48.4362 107.26 48.5469C107.696 48.6706 108.09 48.8105 108.441 48.9668C108.799 49.1165 109.112 49.2565 109.379 49.3867V52.9121H108.949C108.767 52.7559 108.536 52.5703 108.256 52.3555C107.982 52.1406 107.67 51.929 107.318 51.7207C106.96 51.5124 106.573 51.3366 106.156 51.1934C105.74 51.0501 105.294 50.9785 104.818 50.9785C104.291 50.9785 103.79 51.0632 103.314 51.2324C102.839 51.3952 102.4 51.6686 101.996 52.0527C101.612 52.4238 101.299 52.9154 101.059 53.5273C100.824 54.1393 100.707 54.8815 100.707 55.7539C100.707 56.6654 100.834 57.4271 101.088 58.0391C101.348 58.651 101.674 59.1328 102.064 59.4844C102.462 59.8424 102.904 60.0996 103.393 60.2559C103.881 60.4056 104.363 60.4805 104.838 60.4805C105.294 60.4805 105.743 60.4121 106.186 60.2754C106.635 60.1387 107.048 59.9531 107.426 59.7188C107.745 59.5299 108.041 59.3281 108.314 59.1133C108.588 58.8984 108.812 58.7129 108.988 58.5566H109.379V62.0332C109.014 62.196 108.666 62.349 108.334 62.4922C108.002 62.6354 107.654 62.7591 107.289 62.8633C106.814 63 106.368 63.1042 105.951 63.1758C105.535 63.2474 104.962 63.2832 104.232 63.2832ZM123.51 51.2715H118.969V63H115.219V51.2715L110.678 51.2715V48.459L123.51 48.459V51.2715ZM139.906 55.7344C139.906 58.0521 139.242 59.8945 137.914 61.2617C136.586 62.6224 134.75 63.3027 132.406 63.3027C130.069 63.3027 128.236 62.6224 126.908 61.2617C125.58 59.8945 124.916 58.0521 124.916 55.7344C124.916 53.3971 125.58 51.5514 126.908 50.1973C128.236 48.8366 130.069 48.1563 132.406 48.1563C134.737 48.1563 136.57 48.8366 137.904 50.1973C139.239 51.5514 139.906 53.3971 139.906 55.7344ZM134.936 59.416C135.3 58.9733 135.57 58.4525 135.746 57.8535C135.922 57.248 136.01 56.5384 136.01 55.7246C136.01 54.8522 135.909 54.11 135.707 53.498C135.505 52.8861 135.242 52.3913 134.916 52.0137C134.584 51.623 134.2 51.3398 133.764 51.1641C133.334 50.9883 132.885 50.9004 132.416 50.9004C131.941 50.9004 131.492 50.985 131.068 51.1543C130.652 51.3236 130.268 51.6035 129.916 51.9941C129.59 52.3587 129.324 52.8633 129.115 53.5078C128.913 54.1458 128.812 54.888 128.812 55.7344C128.812 56.6003 128.91 57.3392 129.105 57.9512C129.307 58.5566 129.571 59.0514 129.896 59.4355C130.222 59.8197 130.603 60.1029 131.039 60.2852C131.475 60.4674 131.934 60.5586 132.416 60.5586C132.898 60.5586 133.357 60.4674 133.793 60.2852C134.229 60.0964 134.61 59.8066 134.936 59.416ZM150.932 52.9121C150.932 52.5475 150.857 52.235 150.707 51.9746C150.557 51.7142 150.3 51.5091 149.936 51.3594C149.682 51.2552 149.385 51.1934 149.047 51.1738C148.708 51.1478 148.314 51.1348 147.865 51.1348H146.508V55.0508H147.66C148.259 55.0508 148.76 55.0215 149.164 54.9629C149.568 54.9043 149.906 54.7708 150.18 54.5625C150.44 54.3607 150.629 54.1393 150.746 53.8984C150.87 53.651 150.932 53.3223 150.932 52.9121ZM156.781 63H152.201L148.236 57.668H146.508V63H142.777V48.459H149.066C149.926 48.459 150.665 48.5078 151.283 48.6055C151.902 48.7031 152.481 48.9147 153.021 49.2402C153.568 49.5658 154.001 49.9889 154.32 50.5098C154.646 51.0241 154.809 51.6719 154.809 52.4531C154.809 53.5273 154.558 54.403 154.057 55.0801C153.562 55.7572 152.852 56.3203 151.928 56.7695L156.781 63Z" fill="black"/>
<path d="M54.242 30.0576C53.7099 30.0576 53.2272 29.9342 52.7938 29.6873C52.3604 29.435 52.0176 29.0866 51.7652 28.6423C51.5184 28.1925 51.395 27.6851 51.395 27.12C51.395 26.555 51.5184 26.0503 51.7652 25.606C52.0176 25.1562 52.3604 24.8078 52.7938 24.561C53.2272 24.3086 53.7099 24.1825 54.242 24.1825C54.7796 24.1825 55.2651 24.3086 55.6985 24.561C56.1318 24.8078 56.4719 25.1562 56.7188 25.606C56.9656 26.0503 57.0891 26.555 57.0891 27.12C57.0891 27.6851 56.9656 28.1925 56.7188 28.6423C56.4719 29.0866 56.1318 29.435 55.6985 29.6873C55.2651 29.9342 54.7796 30.0576 54.242 30.0576ZM54.242 29.5557C54.6699 29.5557 55.0539 29.4569 55.394 29.2594C55.7341 29.062 56.0029 28.7794 56.2004 28.4119C56.3979 28.0389 56.4966 27.6083 56.4966 27.12C56.4966 26.6318 56.3979 26.2039 56.2004 25.8364C56.0029 25.4689 55.7341 25.1863 55.394 24.9889C55.0539 24.7914 54.6699 24.6926 54.242 24.6926C53.8141 24.6926 53.4301 24.7914 53.09 24.9889C52.7499 25.1863 52.4811 25.4689 52.2836 25.8364C52.0862 26.2039 51.9874 26.6318 51.9874 27.12C51.9874 27.6083 52.0862 28.0389 52.2836 28.4119C52.4811 28.7794 52.7499 29.062 53.09 29.2594C53.4301 29.4569 53.8141 29.5557 54.242 29.5557ZM60.8337 27.0295C61.1574 27.0899 61.4317 27.2544 61.6566 27.5232C61.8815 27.792 61.9939 28.1047 61.9939 28.4613C61.9939 28.752 61.9199 29.0153 61.7718 29.2512C61.6291 29.4816 61.4179 29.6654 61.1382 29.8025C60.8584 29.9342 60.5238 30 60.1343 30H58.143V24.2483H60.0767C60.6582 24.2483 61.0998 24.3827 61.4015 24.6515C61.7087 24.9203 61.8623 25.2686 61.8623 25.6965C61.8623 26.0531 61.7663 26.3438 61.5743 26.5687C61.3823 26.7882 61.1354 26.9418 60.8337 27.0295ZM58.719 26.7909H60.0603C60.4497 26.7909 60.7487 26.7004 60.9572 26.5194C61.1711 26.3328 61.2781 26.0778 61.2781 25.7541C61.2781 25.4359 61.1711 25.1863 60.9572 25.0053C60.7487 24.8243 60.4415 24.7338 60.0356 24.7338H58.719V26.7909ZM60.0932 29.5145C60.5101 29.5145 60.8337 29.4158 61.0641 29.2183C61.3 29.0208 61.4179 28.7493 61.4179 28.4037C61.4179 28.0581 61.2945 27.7838 61.0477 27.5808C60.8063 27.3724 60.4799 27.2681 60.0685 27.2681H58.719V29.5145H60.0932ZM65.7106 24.2483V28.6012C65.7106 29.04 65.5762 29.3938 65.3074 29.6626C65.0386 29.9259 64.6793 30.0576 64.2294 30.0576C63.7632 30.0576 63.3901 29.9177 63.1104 29.6379C62.8361 29.3527 62.699 28.9687 62.699 28.486H63.2832C63.2887 28.7986 63.3655 29.0537 63.5136 29.2512C63.6672 29.4487 63.9058 29.5474 64.2294 29.5474C64.5366 29.5474 64.7643 29.4569 64.9124 29.2759C65.0605 29.0949 65.1346 28.87 65.1346 28.6012V24.2483H65.7106ZM67.735 24.7173V26.865H69.9155V27.3422H67.735V29.5227H70.1624V30L67.159 30V24.2401H70.1624V24.7173H67.735ZM71.034 27.12C71.034 26.555 71.1574 26.0503 71.4043 25.606C71.6511 25.1562 71.9885 24.8078 72.4164 24.561C72.8443 24.3086 73.3215 24.1825 73.8481 24.1825C74.49 24.1825 75.0385 24.3361 75.4938 24.6433C75.9546 24.945 76.2893 25.3729 76.4977 25.9269H75.823C75.6584 25.5374 75.4061 25.233 75.066 25.0135C74.7313 24.7941 74.3254 24.6844 73.8481 24.6844C73.4257 24.6844 73.0445 24.7832 72.7044 24.9806C72.3698 25.1781 72.1064 25.4634 71.9145 25.8364C71.7225 26.2039 71.6265 26.6318 71.6265 27.12C71.6265 27.6083 71.7225 28.0361 71.9145 28.4037C72.1064 28.7712 72.3698 29.0537 72.7044 29.2512C73.0445 29.4487 73.4257 29.5474 73.8481 29.5474C74.3254 29.5474 74.7313 29.4405 75.066 29.2265C75.4061 29.0071 75.6584 28.7054 75.823 28.3214H76.4977C76.2893 28.87 75.9546 29.2951 75.4938 29.5968C75.033 29.8985 74.4845 30.0494 73.8481 30.0494C73.3215 30.0494 72.8443 29.9259 72.4164 29.6791C71.9885 29.4268 71.6511 29.0784 71.4043 28.6341C71.1574 28.1897 71.034 27.6851 71.034 27.12ZM81.0109 24.2483V24.7256H79.4146V30H78.8386V24.7256H77.234V24.2483H81.0109ZM82.4964 24.2483V30H81.9204V24.2483H82.4964ZM86.9111 24.2483V24.7256H84.3767V26.8732H86.5161V27.3504H84.3767V30H83.8007V24.2483H86.9111Z" fill="#000D39"/>
<path d="M52.543 322.02C52.543 322.28 52.4974 322.535 52.4062 322.785C52.3151 323.033 52.1849 323.241 52.0156 323.41C51.7839 323.639 51.5247 323.812 51.2383 323.93C50.9544 324.047 50.6003 324.105 50.1758 324.105H49.2422V326H47.7422V320.184H50.2109C50.5807 320.184 50.8919 320.216 51.1445 320.281C51.3997 320.344 51.625 320.439 51.8203 320.566C52.0547 320.72 52.2331 320.917 52.3555 321.156C52.4805 321.396 52.543 321.684 52.543 322.02ZM50.9922 322.055C50.9922 321.891 50.9479 321.75 50.8594 321.633C50.7708 321.513 50.668 321.43 50.5508 321.383C50.3945 321.32 50.2422 321.286 50.0938 321.281C49.9453 321.273 49.7474 321.27 49.5 321.27H49.2422V323.012H49.6719C49.9271 323.012 50.1367 322.996 50.3008 322.965C50.4674 322.934 50.6068 322.871 50.7188 322.777C50.8151 322.694 50.8841 322.595 50.9258 322.48C50.9701 322.363 50.9922 322.221 50.9922 322.055ZM58.8631 323.895C58.8631 324.613 58.6444 325.164 58.2069 325.547C57.7694 325.93 57.1248 326.121 56.2733 326.121C55.4217 326.121 54.7772 325.93 54.3397 325.547C53.9048 325.164 53.6873 324.615 53.6873 323.898V320.184H55.1952V323.812C55.1952 324.216 55.2798 324.517 55.4491 324.715C55.6183 324.913 55.8931 325.012 56.2733 325.012C56.6483 325.012 56.9217 324.917 57.0936 324.727C57.2681 324.536 57.3553 324.232 57.3553 323.812V320.184H58.8631V323.895ZM65.7184 326H64.2731L61.8044 322.008V326H60.4294V320.184H62.2223L64.3434 323.516V320.184H65.7184V326ZM70.3941 324.293C70.3941 324.548 70.3485 324.788 70.2573 325.012C70.1662 325.233 70.0308 325.421 69.8511 325.574C69.661 325.738 69.4318 325.866 69.1636 325.957C68.8954 326.046 68.5633 326.09 68.1675 326.09C67.8993 326.09 67.6467 326.079 67.4097 326.059C67.1727 326.04 66.9644 326.013 66.7847 325.977V324.797H66.9253C67.0503 324.844 67.1805 324.888 67.3159 324.93C67.4514 324.969 67.6245 324.988 67.8355 324.988C68.1089 324.988 68.3185 324.952 68.4644 324.879C68.6128 324.806 68.7183 324.704 68.7808 324.574C68.8407 324.447 68.8745 324.307 68.8823 324.156C68.8902 324.003 68.8941 323.807 68.8941 323.57V321.254H67.562V320.184H70.3941V324.293ZM77.3431 326H75.7923L75.39 324.824H73.2337L72.8314 326H71.3197L73.4681 320.184H75.1947L77.3431 326ZM75.0267 323.758L74.3119 321.672L73.597 323.758H75.0267ZM83.3156 324.219C83.3156 324.5 83.2583 324.751 83.1437 324.973C83.0318 325.194 82.8768 325.378 82.6789 325.523C82.4497 325.695 82.1971 325.818 81.9211 325.891C81.6477 325.964 81.3 326 80.8781 326H78.3391V320.184H80.5969C81.0656 320.184 81.4081 320.199 81.6242 320.23C81.843 320.262 82.0591 320.331 82.2727 320.438C82.494 320.549 82.6581 320.701 82.7648 320.891C82.8742 321.078 82.9289 321.293 82.9289 321.535C82.9289 321.816 82.8547 322.065 82.7062 322.281C82.5578 322.495 82.3482 322.661 82.0773 322.781V322.812C82.4576 322.888 82.7583 323.044 82.9797 323.281C83.2036 323.518 83.3156 323.831 83.3156 324.219ZM81.3937 321.828C81.3937 321.732 81.369 321.635 81.3195 321.539C81.2727 321.443 81.188 321.371 81.0656 321.324C80.9562 321.283 80.8195 321.26 80.6555 321.258C80.494 321.253 80.2661 321.25 79.9719 321.25H79.8312V322.48H80.0656C80.3026 322.48 80.5044 322.477 80.6711 322.469C80.8378 322.461 80.9693 322.435 81.0656 322.391C81.201 322.331 81.2896 322.254 81.3312 322.16C81.3729 322.064 81.3937 321.953 81.3937 321.828ZM81.7609 324.195C81.7609 324.01 81.7245 323.868 81.6516 323.77C81.5812 323.668 81.4602 323.592 81.2883 323.543C81.1711 323.509 81.0096 323.491 80.8039 323.488C80.5982 323.486 80.3833 323.484 80.1594 323.484H79.8312V324.934H79.9406C80.3625 324.934 80.6646 324.932 80.8469 324.93C81.0292 324.927 81.1971 324.893 81.3508 324.828C81.507 324.763 81.6138 324.677 81.6711 324.57C81.731 324.461 81.7609 324.336 81.7609 324.195ZM87.7373 326H84.3311V324.969H85.2842V321.215H84.3311V320.184H87.7373V321.215H86.7842V324.969H87.7373V326ZM90.5536 326H89.0927V324.465H90.5536V326ZM94.7995 326.113C94.3672 326.113 93.9675 326.049 93.6003 325.922C93.2357 325.794 92.9219 325.604 92.6589 325.352C92.3959 325.099 92.1915 324.784 92.0456 324.406C91.9024 324.029 91.8308 323.592 91.8308 323.098C91.8308 322.637 91.8998 322.219 92.0378 321.844C92.1758 321.469 92.3764 321.147 92.6394 320.879C92.892 320.621 93.2045 320.422 93.5769 320.281C93.9519 320.141 94.3607 320.07 94.8034 320.07C95.0482 320.07 95.2683 320.085 95.4636 320.113C95.6615 320.139 95.8438 320.174 96.0105 320.219C96.1849 320.268 96.3425 320.324 96.4831 320.387C96.6264 320.447 96.7514 320.503 96.8581 320.555V321.965H96.6862C96.6133 321.902 96.5209 321.828 96.4089 321.742C96.2995 321.656 96.1745 321.572 96.0339 321.488C95.8907 321.405 95.7357 321.335 95.5691 321.277C95.4024 321.22 95.224 321.191 95.0339 321.191C94.823 321.191 94.6224 321.225 94.4323 321.293C94.2422 321.358 94.0665 321.467 93.905 321.621C93.7514 321.77 93.6264 321.966 93.53 322.211C93.4362 322.456 93.3894 322.753 93.3894 323.102C93.3894 323.466 93.4402 323.771 93.5417 324.016C93.6459 324.26 93.7761 324.453 93.9323 324.594C94.0912 324.737 94.2683 324.84 94.4636 324.902C94.6589 324.962 94.8516 324.992 95.0417 324.992C95.224 324.992 95.4037 324.965 95.5808 324.91C95.7605 324.855 95.9258 324.781 96.0769 324.688C96.2045 324.612 96.323 324.531 96.4323 324.445C96.5417 324.359 96.6316 324.285 96.7019 324.223H96.8581V325.613C96.7123 325.678 96.573 325.74 96.4402 325.797C96.3073 325.854 96.168 325.904 96.0222 325.945C95.8321 326 95.6537 326.042 95.487 326.07C95.3204 326.099 95.0912 326.113 94.7995 326.113ZM103.776 323.094C103.776 324.021 103.51 324.758 102.979 325.305C102.448 325.849 101.713 326.121 100.776 326.121C99.841 326.121 99.108 325.849 98.5767 325.305C98.0455 324.758 97.7798 324.021 97.7798 323.094C97.7798 322.159 98.0455 321.421 98.5767 320.879C99.108 320.335 99.841 320.062 100.776 320.062C101.708 320.062 102.441 320.335 102.975 320.879C103.509 321.421 103.776 322.159 103.776 323.094ZM101.788 324.566C101.933 324.389 102.042 324.181 102.112 323.941C102.182 323.699 102.217 323.415 102.217 323.09C102.217 322.741 102.177 322.444 102.096 322.199C102.016 321.954 101.91 321.757 101.78 321.605C101.647 321.449 101.493 321.336 101.319 321.266C101.147 321.195 100.967 321.16 100.78 321.16C100.59 321.16 100.41 321.194 100.241 321.262C100.074 321.329 99.9205 321.441 99.7798 321.598C99.6496 321.743 99.5429 321.945 99.4595 322.203C99.3788 322.458 99.3384 322.755 99.3384 323.094C99.3384 323.44 99.3775 323.736 99.4556 323.98C99.5364 324.223 99.6418 324.421 99.772 324.574C99.9022 324.728 100.055 324.841 100.229 324.914C100.404 324.987 100.587 325.023 100.78 325.023C100.973 325.023 101.156 324.987 101.331 324.914C101.505 324.839 101.657 324.723 101.788 324.566ZM111.182 326H109.69V322.105L108.612 324.633H107.577L106.498 322.105V326H105.084V320.184H106.827L108.135 323.102L109.44 320.184H111.182V326Z" fill="black"/>
<path d="M21.1034 56.2556C20.3855 55.425 20.0032 54.3987 20.001 53.0271C19.9896 52.6026 20.0796 52.0552 20.2596 51.5389C20.8778 49.7653 22.2947 48.7645 23.845 49.0512C25.1223 49.2872 25.9974 50.1955 26.4874 51.6738C26.6458 52.1505 26.6988 52.6541 26.7187 53.1648C26.7255 53.3414 26.7996 53.4586 26.9363 53.4982C27.0748 53.5384 27.1893 53.4713 27.2486 53.3131C27.2782 53.234 27.2776 53.1344 27.2816 53.044C27.3448 51.6688 27.8098 50.5656 28.7134 49.7512C30.1177 48.4855 32.2172 48.8598 33.2741 50.5684C34.3685 52.3377 34.2119 54.7335 32.8958 56.2528C30.9718 58.4748 29.0427 60.6912 27.1192 62.914C27.0258 63.0213 26.9774 63.034 26.8777 62.9189C24.9548 60.6954 23.0251 58.4805 21.1023 56.2563L21.1034 56.2556Z" fill="#DF523D"/>
<path d="M207.897 296.744C208.614 297.575 208.997 298.601 208.999 299.973C209.01 300.397 208.92 300.945 208.74 301.461C208.122 303.235 206.705 304.236 205.155 303.949C203.878 303.713 203.003 302.805 202.513 301.326C202.354 300.849 202.301 300.346 202.281 299.835C202.274 299.659 202.2 299.541 202.064 299.502C201.925 299.462 201.811 299.529 201.751 299.687C201.722 299.766 201.722 299.866 201.718 299.956C201.655 301.331 201.19 302.434 200.287 303.249C198.882 304.515 196.783 304.14 195.726 302.432C194.631 300.662 194.788 298.266 196.104 296.747C198.028 294.525 199.957 292.309 201.881 290.086C201.974 289.979 202.023 289.966 202.122 290.081C204.045 292.305 205.975 294.52 207.898 296.744L207.897 296.744Z" fill="#DF523D"/>
<path d="M32.52 31.9321L26.2671 43H22.2964L28.7905 31.8301H21.6934V29.186H32.52V31.9321Z" fill="#DF523D"/>
<path d="M196.48 320.068L202.733 309L206.704 309L200.209 320.17L207.307 320.17L207.307 322.814L196.48 322.814L196.48 320.068Z" fill="#DF523D"/>
<path d="M119.28 150.562H126.037V158.259" stroke="#263238" stroke-width="0.394827" stroke-miterlimit="10"/>
<path d="M124.845 164.872H124.253V151.858H124.845C126.488 151.858 127.82 153.19 127.82 154.833V161.897C127.82 163.54 126.488 164.872 124.845 164.872Z" fill="#263238"/>
<path d="M170.935 187.424H167.929V200.714H170.935V187.424Z" fill="#263238"/>
<path d="M91.1496 219.984C92.1241 220.099 166.04 219.823 166.04 219.823L168.722 207.546L134.321 196.388L132.152 177.189H118.9L116.697 192.487L93.7697 183.255L64.7558 180.801L62.2061 198.601L91.1496 219.984Z" fill="#DF523D"/>
<path opacity="0.5" d="M91.1496 219.984C92.1241 220.099 166.04 219.823 166.04 219.823L168.722 207.546L134.321 196.388L132.152 177.189H118.9L116.697 192.487L93.7697 183.255L64.7558 180.801L62.2061 198.601L91.1496 219.984Z" fill="black"/>
<path d="M65.1655 147.746L61.8047 183.737L83.3701 184.427L96.8136 190.357L107.316 202.354H122.58L121.925 194.613L119.071 145.126L65.1655 147.746Z" fill="#DF523D"/>
<path opacity="0.5" d="M65.2006 147.746L61.8398 183.737L83.4053 184.427L96.8488 190.357L107.352 202.354H122.616L121.96 194.613L121.044 179.44L119.106 145.126L65.2006 147.746Z" fill="white"/>
<path d="M91.6518 179.662C91.6518 179.662 83.2949 163.106 82.0306 163.106C80.7664 163.106 79.9941 163.631 78.8002 164.159C77.6062 164.687 79.2215 179.66 79.2215 179.66L91.6518 179.662Z" fill="#263238"/>
<path opacity="0.3" d="M68.8018 179.444L100.034 148.689C100.034 148.689 114.039 148.689 113.48 148.689C112.92 148.689 83.3085 179.441 83.3085 179.441L68.8018 179.444Z" fill="white"/>
<path d="M168.107 184.233C166.338 181.338 123.698 176.511 123.282 176.373L124.795 207.947L134.618 208.365C134.618 208.365 167.067 209.606 167.379 209.469C167.691 209.33 169.875 187.129 168.107 184.233Z" fill="#DF523D"/>
<path d="M120.039 148.689H63.8113C63.1923 148.689 62.6904 148.187 62.6904 147.568C62.6904 146.949 63.1923 146.447 63.8113 146.447H120.039C120.659 146.447 121.16 146.949 121.16 147.568C121.16 148.187 120.659 148.689 120.039 148.689Z" fill="#DF523D"/>
<path d="M119.867 146.934H64.2852V144.685C64.2852 143.755 65.0397 143 65.9703 143H118.182C119.112 143 119.867 143.755 119.867 144.685V146.934Z" fill="#DF523D"/>
<path d="M130.041 182.048V147.862C130.041 147.862 130.342 144.033 135.46 144.033V146.832C135.46 146.832 132.751 146.123 132.751 148.76C132.751 151.398 132.751 182.18 132.751 182.18L130.041 182.048Z" fill="#263238"/>
<path d="M76.6038 241.641C91.2967 241.641 103.208 229.987 103.208 215.611C103.208 201.236 91.2967 189.582 76.6038 189.582C61.9109 189.582 50 201.236 50 215.611C50 229.987 61.9109 241.641 76.6038 241.641Z" fill="#263238"/>
<path d="M76.6038 241.641C91.2967 241.641 103.208 229.987 103.208 215.611C103.208 201.236 91.2967 189.582 76.6038 189.582C61.9109 189.582 50 201.236 50 215.611C50 229.987 61.9109 241.641 76.6038 241.641Z" stroke="#263238" stroke-width="2.36896" stroke-miterlimit="10" stroke-dasharray="4.86 4.86"/>
<path opacity="0.3" d="M76.6038 228.175C83.6953 228.175 89.444 222.55 89.444 215.612C89.444 208.673 83.6953 203.049 76.6038 203.049C69.5124 203.049 63.7637 208.673 63.7637 215.612C63.7637 222.55 69.5124 228.175 76.6038 228.175Z" fill="white"/>
<path opacity="0.3" d="M76.604 224.075C81.3812 224.075 85.2538 220.286 85.2538 215.612C85.2538 210.938 81.3812 207.148 76.604 207.148C71.8268 207.148 67.9541 210.938 67.9541 215.612C67.9541 220.286 71.8268 224.075 76.604 224.075Z" fill="white"/>
<path d="M161.035 241.64C172.061 241.64 181 232.894 181 222.106C181 211.318 172.061 202.572 161.035 202.572C150.009 202.572 141.07 211.318 141.07 222.106C141.07 232.894 150.009 241.64 161.035 241.64Z" fill="#263238"/>
<path d="M161.035 241.64C172.061 241.64 181 232.894 181 222.106C181 211.318 172.061 202.572 161.035 202.572C150.009 202.572 141.07 211.318 141.07 222.106C141.07 232.894 150.009 241.64 161.035 241.64Z" stroke="#263238" stroke-width="2.36896" stroke-miterlimit="10" stroke-dasharray="4.77 4.77"/>
<path opacity="0.3" d="M161.035 231.534C166.357 231.534 170.671 227.313 170.671 222.106C170.671 216.9 166.357 212.679 161.035 212.679C155.713 212.679 151.399 216.9 151.399 222.106C151.399 227.313 155.713 231.534 161.035 231.534Z" fill="white"/>
<path opacity="0.3" d="M161.035 228.458C164.62 228.458 167.527 225.615 167.527 222.107C167.527 218.599 164.62 215.756 161.035 215.756C157.45 215.756 154.544 218.599 154.544 222.107C154.544 225.615 157.45 228.458 161.035 228.458Z" fill="white"/>
<path d="M61.8047 184.651L62.2054 179.444L121.044 179.44L122.374 202.351L106.382 202.354L94.6977 186.991L82.2208 185.04L61.8047 184.651Z" fill="#DF523D"/>
<path d="M120.588 171.069L117.63 170.538L110.132 177.086L107.767 173.162L112.046 169.168C112.265 168.906 112.258 168.538 112.027 168.284C111.796 168.028 111.404 167.956 111.084 168.109L99.1651 173.833C98.7537 174.031 98.559 174.474 98.7059 174.88C98.8362 175.24 99.2054 175.481 99.6172 175.475L103.989 174.71L106.975 180.142L103.187 183.926L109.106 190.619L111.947 191.201L112.736 197.677L121.928 197.744L121.044 179.439L120.588 171.069Z" fill="#263238"/>
<path d="M61.8047 184.651L62.2054 179.444L121.044 179.44L122.58 202.354H106.382L94.6977 186.991L82.2208 185.04L61.8047 184.651Z" fill="#DF523D"/>
<path d="M55.8635 187.185C55.8635 187.185 55.5642 182.635 55.8635 182.635C56.1628 182.635 80.3961 177.532 94.9059 187.185C109.416 196.838 109.117 204.009 109.117 204.009L105.228 205.112C105.228 205.112 95.8038 179.601 55.8635 187.185Z" fill="#DF523D"/>
<path opacity="0.3" d="M55.8635 187.185C55.8635 187.185 55.5642 182.635 55.8635 182.635C56.1628 182.635 80.3961 177.532 94.9059 187.185C109.416 196.838 109.117 204.009 109.117 204.009L105.228 205.112C105.228 205.112 95.8038 179.601 55.8635 187.185Z" fill="black"/>
<path d="M93.7691 147.656H90.6855V180.221H93.7691V147.656Z" fill="#DF523D"/>
<path d="M96.6166 156.473H93.0596V153.995H96.6166C97.3008 153.995 97.8555 154.55 97.8555 155.234C97.8555 155.918 97.3008 156.473 96.6166 156.473Z" fill="#DF523D"/>
<path d="M96.6166 170.601H93.0596V168.123H96.6166C97.3008 168.123 97.8555 168.678 97.8555 169.362C97.8555 170.046 97.3008 170.601 96.6166 170.601Z" fill="#DF523D"/>
<path opacity="0.3" d="M62.7922 173.157C62.7922 173.157 85.0802 148.689 85.3996 148.689C85.719 148.689 90.6851 148.689 90.6851 148.689L62.2051 179.444L62.7922 173.157Z" fill="white"/>
<g opacity="0.3">
<path d="M123.55 181.957C138.382 182.501 149.531 182.844 149.531 182.844C149.531 182.844 133.808 178.446 123.382 178.446L123.55 181.957Z" fill="black"/>
</g>
<path d="M123.876 210.719H108.454V217.11H123.876V210.719Z" fill="#263238"/>
<path d="M123.997 218.238H108.333V220.614H123.997V218.238Z" fill="#263238"/>
<path opacity="0.3" d="M133.579 201.299C133.122 201.299 132.751 200.929 132.751 200.471V190.41C132.751 189.953 133.122 189.582 133.579 189.582C134.037 189.582 134.408 189.953 134.408 190.41V200.471C134.408 200.929 134.037 201.299 133.579 201.299Z" fill="black"/>
<path opacity="0.3" d="M136.729 201.299C136.271 201.299 135.9 200.929 135.9 200.471V190.41C135.9 189.953 136.271 189.582 136.729 189.582C137.186 189.582 137.557 189.953 137.557 190.41V200.471C137.557 200.929 137.186 201.299 136.729 201.299Z" fill="black"/>
<path opacity="0.3" d="M139.879 201.299C139.422 201.299 139.051 200.929 139.051 200.471V190.41C139.051 189.953 139.422 189.582 139.879 189.582C140.337 189.582 140.707 189.953 140.707 190.41V200.471C140.707 200.929 140.336 201.299 139.879 201.299Z" fill="black"/>
<path opacity="0.3" d="M143.029 201.299C142.571 201.299 142.2 200.929 142.2 200.471V190.41C142.2 189.953 142.571 189.582 143.029 189.582C143.486 189.582 143.857 189.953 143.857 190.41V200.471C143.857 200.929 143.486 201.299 143.029 201.299Z" fill="black"/>
<path opacity="0.3" d="M119.867 146.34C101.37 146.34 82.8215 146.34 64.3242 146.34V145.126H119.867V146.34Z" fill="black"/>
<path d="M62.2119 179.256C78.6276 179.198 103.406 179.271 120.045 179.256C117.636 179.336 115.226 179.387 112.817 179.445C95.9823 179.754 79.0335 179.689 62.2119 179.256Z" fill="#263238"/>
<path d="M132.751 190.242C133.02 193.616 133.02 197.032 132.751 200.407C132.482 197.032 132.482 193.617 132.751 190.242Z" fill="#263238"/>
<path d="M135.927 190.242C136.196 193.616 136.196 197.032 135.927 200.407C135.657 197.032 135.657 193.617 135.927 190.242Z" fill="#263238"/>
<path d="M139.101 190.242C139.371 193.616 139.371 197.032 139.101 200.407C138.832 197.032 138.832 193.617 139.101 190.242Z" fill="#263238"/>
<path d="M142.277 190.242C142.547 193.616 142.547 197.032 142.277 200.407C142.008 197.032 142.008 193.617 142.277 190.242Z" fill="#263238"/>
<path d="M123.382 186.123C137.988 186.816 154.208 187.884 168.79 189.095C154.171 188.395 137.957 187.34 123.382 186.123Z" fill="#263238"/>
<path d="M92.1234 179.332C92.3938 181.413 92.3958 183.499 92.1234 185.581C91.8509 183.499 91.8533 181.413 92.1234 179.332Z" fill="#263238"/>
<path opacity="0.3" d="M99.7121 183.195H95.4516C94.9249 183.195 94.498 182.768 94.498 182.241C94.498 181.714 94.9249 181.287 95.4516 181.287H99.7121C100.239 181.287 100.666 181.714 100.666 182.241C100.666 182.767 100.239 183.195 99.7121 183.195Z" fill="black"/>
</svg>
