<svg width="27" height="27" viewBox="0 0 27 27" fill="none" xmlns="http://www.w3.org/2000/svg">
<circle cx="13.5" cy="13.5" r="13" fill="white" stroke="white"/>
<path d="M17 16.1888C16.4933 16.1888 16.04 16.3845 15.6933 16.6913L10.94 13.9829C10.9733 13.8328 11 13.6827 11 13.5261C11 13.3695 10.9733 13.2194 10.94 13.0693L15.64 10.387C16 10.7134 16.4733 10.9157 17 10.9157C18.1067 10.9157 19 10.0412 19 8.95783C19 7.8745 18.1067 7 17 7C15.8933 7 15 7.8745 15 8.95783C15 9.11446 15.0267 9.26456 15.06 9.41466L10.36 12.0969C10 11.7706 9.52667 11.5683 9 11.5683C7.89333 11.5683 7 12.4428 7 13.5261C7 14.6094 7.89333 15.4839 9 15.4839C9.52667 15.4839 10 15.2816 10.36 14.9553L15.1067 17.6702C15.0733 17.8072 15.0533 17.9508 15.0533 18.0944C15.0533 19.1451 15.9267 20 17 20C18.0733 20 18.9467 19.1451 18.9467 18.0944C18.9467 17.0437 18.0733 16.1888 17 16.1888Z" fill="#348214"/>
</svg>
