<svg width="24" height="25" viewBox="0 0 24 25" fill="none" xmlns="http://www.w3.org/2000/svg">
<path d="M18.9844 19.9766V9.00781H5.01562V19.9766H18.9844ZM18.9844 3.99219C19.5156 3.99219 19.9844 4.19531 20.3906 4.60156C20.7969 5.00781 21 5.47656 21 6.00781V19.9766C21 20.5078 20.7969 20.9766 20.3906 21.3828C19.9844 21.7891 19.5156 21.9922 18.9844 21.9922H5.01562C4.45312 21.9922 3.97656 21.7891 3.58594 21.3828C3.19531 20.9766 3 20.5078 3 19.9766V6.00781C3 5.47656 3.19531 5.00781 3.58594 4.60156C3.97656 4.19531 4.45312 3.99219 5.01562 3.99219H6V1.97656H8.01562V3.99219H15.9844V1.97656H18V3.99219H18.9844ZM16.5469 12.0547L10.5938 18.0078L7.40625 14.8203L8.48438 13.7422L10.5938 15.8516L15.4688 10.9766L16.5469 12.0547Z" fill="#348214"/>
</svg>
