<svg width="149" height="48" viewBox="0 0 149 48" fill="none" xmlns="http://www.w3.org/2000/svg">
<g clip-path="url(#clip0_1731_1545)">
<mask id="mask0_1731_1545" style="mask-type:luminance" maskUnits="userSpaceOnUse" x="0" y="0" width="149" height="48">
<path d="M149 0H0V47.8572H149V0Z" fill="white"/>
</mask>
<g mask="url(#mask0_1731_1545)">
<path d="M28.668 19.5007C36.0729 14.0783 56.7869 7.21307 81.0531 17.0133L91.36 14.7747C62.1405 3.9795 37.3737 11.8894 28.668 19.5007Z" fill="#002F6C"/>
<path d="M28.668 19.5007C39.2252 9.55122 71.1964 0.0991774 107.721 17.2621L118.278 14.9737C76.7502 -3.23391 40.576 7.31258 28.668 19.5007Z" fill="#3E87CB"/>
<path d="M28.668 19.5008C40.776 6.56643 76.1998 -4.22877 117.978 10.6458L128.185 8.45686C81.5534 -7.51212 42.1271 4.47704 28.668 19.5008Z" fill="#9ADBE8"/>
<path d="M70.5465 40.8922V41.6386H62.091V40.8922C63.8421 40.6934 64.5427 40.1959 64.5427 38.3553V30.147C64.5925 26.3661 63.9422 25.4209 61.5406 25.4209C59.8394 25.4209 58.2883 26.3163 57.4878 27.8087V38.3553C57.4378 40.1959 58.1884 40.7432 59.9395 40.8922V41.6386H51.3836V40.8922C53.185 40.6934 53.8853 40.1959 53.9354 38.3553V29.9977C53.9354 27.9082 53.7855 25.4209 51.2337 25.4209C49.4824 25.4706 47.7814 26.3163 46.7306 27.7092V38.3553C46.7807 40.1959 47.481 40.7432 49.2824 40.8922V41.6386H40.6765V40.8427C42.6278 40.6436 43.1782 39.9968 43.1281 38.3055V28.6047C43.1281 26.4158 42.8781 26.0676 40.6765 26.0676V25.1721L46.6806 23.033V26.2666C48.6819 24.0777 50.9834 23.0827 52.8346 23.0827C54.7859 23.1325 56.4872 24.5254 56.8874 26.4158C58.3383 24.7244 60.79 23.0827 62.9916 23.0827C67.7948 23.0827 68.0949 27.2615 68.0949 30.7935V38.3553C68.0949 40.1959 68.7454 40.7432 70.5465 40.8922ZM85.6068 34.8729C84.4059 36.9624 82.2543 39.1512 79.6027 39.1512C75.2999 39.1512 73.3984 34.3257 73.2985 30.5449H85.6068C85.5067 26.3661 83.0551 23.0827 78.552 23.0827C73.5986 23.0827 70.4467 27.2118 70.4467 32.9328C70.4467 37.7583 73.4484 42.0365 78.0516 41.9867C82.2046 42.0365 85.2063 38.6537 86.4573 35.0718L85.6068 34.8729ZM77.7015 24.6746C80.1531 24.6746 81.2536 26.8138 81.3538 29.0524H73.4484C73.8489 26.6646 75.0496 24.6746 77.7015 24.6746ZM31.5705 23.0827C28.3683 22.9832 25.4163 24.7741 24.0654 27.6595L23.8152 19.5507H22.8646C22.2642 21.0928 21.5637 21.1923 20.1628 20.7446C19.5123 20.5456 18.7118 20.1974 17.7612 19.9486C16.6104 19.6502 15.4596 19.5009 14.2588 19.5009C6.25345 19.5009 0.64968 25.4209 0.64968 33.4801C0.549612 42.2854 6.50362 47.3097 14.2588 47.3595C18.1114 47.3097 21.7638 45.5189 24.1154 42.4842L23.3649 41.539C20.6131 44.2753 18.5117 45.3198 14.609 45.3695C8.20475 45.3695 5.35283 39.4001 5.35283 33.7784C5.35283 26.5651 8.20475 20.9933 14.3088 21.2918C21.0134 21.6401 22.8146 26.5651 22.9146 32.7835C22.9146 37.7085 26.417 42.0365 31.5204 41.9867C37.0742 42.0365 40.4765 37.211 40.4765 31.9378C40.4765 26.6646 36.8239 23.1325 31.5705 23.0827ZM36.5238 34.3257C36.2235 37.7583 34.5225 40.8922 31.5705 40.6436C27.918 40.3452 26.417 35.8679 26.9173 30.2463C27.2675 26.7641 28.9687 24.2269 31.8205 24.4259C36.1734 24.8239 36.8239 30.694 36.5238 34.3257ZM105.87 38.3553L105.82 22.6847L99.9162 25.0726C99.7162 23.829 98.5654 23.0827 97.2646 23.0827C95.3633 23.0827 93.7121 25.0726 92.8616 26.4158V23.033L86.3572 25.2219V26.0676C89.4093 25.1721 89.3092 26.7143 89.3092 29.5499V38.3553C89.3092 39.9968 88.7588 40.6934 86.3572 40.8922V41.6386H95.8136V40.8922C93.8623 40.7432 92.8616 40.4445 92.8616 38.3553V28.754C92.8616 27.6595 94.1123 25.7691 95.2132 25.7193C96.9642 25.6199 96.5139 27.3113 98.2653 27.361C99.266 27.4108 99.9162 26.5153 101.067 26.4656C102.368 26.3661 102.318 27.8585 102.318 28.953V38.4051C102.268 40.0466 101.718 40.7929 99.266 40.942V41.7381H108.772V40.9918C106.921 40.7432 105.87 40.4445 105.87 38.3553ZM140.093 41.937L130.487 19.4512H129.536L123.132 34.6738C122.031 37.3604 120.28 38.9521 117.228 38.9521C113.225 39.0516 111.174 34.9227 111.174 31.2412C111.174 27.958 112.825 24.3762 116.177 24.3264C118.229 24.3264 119.129 25.4706 119.129 27.0128C119.179 28.0077 120.03 28.8037 121.03 28.8535C122.081 28.8535 122.882 28.0575 122.932 27.0128C122.732 24.2269 119.179 22.9832 116.928 22.9832C110.974 22.9832 107.972 27.6097 107.972 32.8332C107.972 37.8578 111.124 41.937 115.427 41.8872C117.778 41.8872 119.98 40.8427 121.381 38.9521C120.78 40.5441 120.08 42.0863 119.229 43.5787C118.579 44.6732 117.778 45.5687 116.377 45.6682V46.7624H124.333V45.8172C123.382 45.8172 121.681 45.6682 121.631 44.1758C121.581 42.6833 123.232 39.6487 123.732 38.1064H133.989L135.39 41.4395C136.691 44.4741 137.341 45.6184 133.589 45.8172V46.7624H143.896V45.8172C141.544 45.867 140.844 43.529 140.093 41.937ZM124.583 36.3156L128.936 25.5701L133.389 36.3156H124.583Z" fill="#002F6C"/>
<path d="M145.763 43.6379V42.8477H146.166C146.198 42.8477 146.234 42.8568 146.272 42.8755C146.31 42.8933 146.342 42.9211 146.369 42.9588C146.396 42.9961 146.41 43.0432 146.41 43.1004C146.41 43.1582 146.396 43.2074 146.368 43.2483C146.34 43.2883 146.305 43.3185 146.265 43.3392C146.226 43.36 146.188 43.3703 146.153 43.3703H145.862V43.2417H146.1C146.123 43.2417 146.149 43.2299 146.176 43.2065C146.204 43.1828 146.218 43.1475 146.218 43.1004C146.218 43.0518 146.204 43.0189 146.176 43.0017C146.149 42.9845 146.125 42.976 146.104 42.976H145.938V43.6379H145.763ZM146.244 43.2651L146.442 43.6379H146.25L146.056 43.2651H146.244ZM146.065 44.1093C145.946 44.1093 145.834 44.0871 145.73 44.0429C145.626 43.9985 145.534 43.9371 145.455 43.8586C145.376 43.7801 145.314 43.6891 145.27 43.5854C145.225 43.482 145.203 43.3709 145.203 43.2524C145.203 43.1339 145.225 43.0228 145.27 42.9194C145.314 42.8157 145.376 42.7247 145.455 42.6462C145.534 42.5677 145.626 42.5063 145.73 42.4619C145.834 42.4177 145.946 42.3955 146.065 42.3955C146.184 42.3955 146.296 42.4177 146.4 42.4619C146.504 42.5063 146.596 42.5677 146.675 42.6462C146.754 42.7247 146.815 42.8157 146.86 42.9194C146.904 43.0228 146.927 43.1339 146.927 43.2524C146.927 43.3709 146.904 43.482 146.86 43.5854C146.815 43.6891 146.754 43.7801 146.675 43.8586C146.596 43.9371 146.504 43.9985 146.4 44.0429C146.296 44.0871 146.184 44.1093 146.065 44.1093ZM146.065 43.9037C146.186 43.9037 146.296 43.8743 146.395 43.816C146.494 43.7573 146.573 43.6788 146.631 43.5801C146.69 43.4817 146.72 43.3724 146.72 43.2524C146.72 43.1324 146.69 43.0231 146.631 42.9247C146.573 42.826 146.494 42.7475 146.395 42.6888C146.296 42.6305 146.186 42.6011 146.065 42.6011C145.944 42.6011 145.834 42.6305 145.735 42.6888C145.636 42.7475 145.557 42.826 145.498 42.9247C145.439 43.0231 145.41 43.1324 145.41 43.2524C145.41 43.3724 145.439 43.4817 145.498 43.5801C145.557 43.6788 145.636 43.7573 145.735 43.816C145.834 43.8743 145.944 43.9037 146.065 43.9037Z" fill="black"/>
</g>
</g>
<defs>
<clipPath id="clip0_1731_1545">
<rect width="149" height="48" fill="white"/>
</clipPath>
</defs>
</svg>
