<svg width="201" height="33" viewBox="0 0 201 33" fill="none" xmlns="http://www.w3.org/2000/svg">
<g clip-path="url(#clip0_1731_1555)">
<mask id="mask0_1731_1555" style="mask-type:luminance" maskUnits="userSpaceOnUse" x="0" y="0" width="201" height="33">
<path d="M201 0H0V32.9365H201V0Z" fill="white"/>
</mask>
<g mask="url(#mask0_1731_1555)">
<mask id="mask1_1731_1555" style="mask-type:luminance" maskUnits="userSpaceOnUse" x="-1038" y="-67" width="1600" height="989">
<path d="M-1037.52 -66.3018H561.544V921.213H-1037.52V-66.3018Z" fill="white"/>
</mask>
<g mask="url(#mask1_1731_1555)">
<path fill-rule="evenodd" clip-rule="evenodd" d="M199.293 32.8195C198.368 32.8195 197.628 32.0876 197.628 31.1857C197.628 30.2839 198.368 29.552 199.293 29.552C200.205 29.552 200.945 30.2839 200.945 31.1857C200.945 32.0876 200.205 32.8195 199.293 32.8195ZM200.76 31.2119C200.76 30.4277 200.112 29.8003 199.32 29.8003C198.527 29.8003 197.879 30.4277 197.879 31.2119C197.879 31.9961 198.527 32.6365 199.32 32.6365C200.112 32.6365 200.76 31.9961 200.76 31.2119ZM199.756 32.1398L199.254 31.3426H199.002V32.1398H198.751V30.297H199.385C199.689 30.297 199.941 30.5322 199.941 30.8459C199.941 31.0943 199.756 31.2772 199.504 31.3426L200.007 32.1398H199.756ZM199.32 30.4799H198.936V31.1596H199.32C199.571 31.1596 199.689 31.0289 199.689 30.8459C199.689 30.663 199.571 30.4799 199.32 30.4799ZM192.315 32.7019V24.6769C192.315 22.638 191.14 21.7753 189.633 21.7753C188.193 21.7753 186.95 22.7033 186.95 24.6769V32.7019H184.268V19.6188H186.884V20.9127C187.756 19.9194 189.078 19.4227 190.386 19.4227C191.761 19.4227 192.884 19.854 193.637 20.599C194.694 21.5923 195.011 22.8209 195.011 24.2979V32.7019H192.315ZM180.198 31.2772C179.325 32.1398 178.004 32.8195 176.259 32.8195C174.449 32.8195 173.14 32.1398 172.321 31.2772C171.013 29.9833 170.696 28.3103 170.696 26.0884C170.696 23.9319 171.013 22.272 172.321 20.965C173.14 20.1024 174.449 19.4227 176.259 19.4227C178.004 19.4227 179.325 20.1024 180.198 20.965C181.44 22.272 181.757 23.9319 181.757 26.0884C181.757 28.3103 181.44 29.9833 180.198 31.2772ZM178.189 22.5203C177.7 22.0236 177.013 21.7753 176.259 21.7753C175.466 21.7753 174.819 22.0236 174.317 22.5203C173.511 23.3176 173.378 24.6769 173.378 26.0884C173.378 27.513 173.511 28.8723 174.317 29.6696C174.819 30.1663 175.44 30.4799 176.259 30.4799C177.013 30.4799 177.7 30.1663 178.189 29.6696C179.008 28.8723 179.127 27.513 179.127 26.0884C179.127 24.6769 179.008 23.3176 178.189 22.5203ZM165.634 19.6188H168.331V32.7019H165.634V19.6188ZM165.582 14.247H168.383V17.0178H165.582V14.247ZM162.014 32.7019C159.516 32.7019 158.393 30.9112 158.393 29.0684V21.5923H156.833V19.6188H158.393V15.8546H161.023V19.6188H163.573V21.5923H161.023V28.9377C161.023 29.8657 161.511 30.4277 162.516 30.4277H163.573V32.7019H162.014ZM152.644 32.7019V31.4733C151.653 32.4535 150.715 32.8326 149.089 32.8326C147.464 32.8326 146.341 32.4535 145.534 31.6563C144.847 30.9766 144.53 29.931 144.53 28.8201C144.53 26.6635 146.024 25.0559 149.089 25.0559H152.591V24.1279C152.591 22.4549 151.772 21.7231 149.658 21.7231C148.283 21.7231 147.53 22.0236 146.777 22.9516L145.032 21.344C146.274 19.9324 147.53 19.4358 149.777 19.4358C153.397 19.4358 155.208 20.9781 155.208 23.945V32.7019H152.644ZM152.644 26.8988H149.591C147.966 26.8988 147.147 27.5784 147.147 28.8201C147.147 29.9833 147.9 30.663 149.644 30.663C150.583 30.663 151.336 30.5453 152.023 29.8657C152.459 29.4997 152.644 28.8854 152.644 27.9574V26.8988ZM141.596 32.7019C139.085 32.7019 137.962 31.0289 137.962 29.0553V14.2992H140.658V28.9377C140.658 29.9179 141.028 30.4146 142.086 30.4146H143.275V32.7019H141.596ZM134.54 32.7019C132.042 32.7019 130.919 31.0289 130.919 29.0553V14.2992H133.601V28.9377C133.601 29.9179 133.984 30.4146 135.042 30.4146H136.231V32.7019H134.54ZM120.109 26.8988C120.109 29.1729 121.232 30.5322 123.479 30.5322C124.919 30.5322 125.725 30.1663 126.664 29.2383L128.355 30.7806C126.981 32.1398 125.725 32.8195 123.413 32.8195C120.109 32.8195 117.426 31.0943 117.426 26.1538C117.426 21.8929 119.673 19.4227 123.042 19.4227C126.597 19.4227 128.659 21.9583 128.659 25.7878V26.8988H120.109ZM125.739 23.3176C125.236 22.3243 124.364 21.6446 123.109 21.6446C121.8 21.6446 120.928 22.3243 120.492 23.3176C120.175 23.8665 120.175 24.2456 120.109 25.0428H126.043C126.043 24.2456 125.99 23.8665 125.739 23.3176ZM114.559 32.7019C112.114 32.7019 110.938 30.9112 110.938 29.0553V21.5923H109.431V19.6057H110.938V15.8415H113.62V19.6057H116.184V21.5923H113.62V28.9377C113.62 29.8526 114.057 30.4146 115.061 30.4146H116.184V32.7019H114.559ZM102.692 32.8195C100.564 32.8195 98.6873 32.4535 97.1279 30.9635L98.8726 29.2383C99.9427 30.2839 101.37 30.5976 102.692 30.5976C104.37 30.5976 105.625 30.0486 105.625 28.807C105.625 27.879 105.123 27.3824 103.815 27.2647L101.687 27.0817C99.1894 26.8334 97.8153 25.7225 97.8153 23.4352C97.8153 20.8474 99.9958 19.4227 102.811 19.4227C104.806 19.4227 106.497 19.854 107.687 20.9127L105.995 22.5726C105.189 21.8929 104 21.6446 102.744 21.6446C101.119 21.6446 100.379 22.3243 100.379 23.3176C100.379 24.2456 100.868 24.6769 102.189 24.7945L104.066 24.9775C106.801 25.2258 108.242 26.4021 108.242 28.6894C108.242 31.3949 105.876 32.8195 102.692 32.8195ZM92.6348 32.7019V24.7292C92.6348 22.7033 91.4983 21.7753 90.0053 21.7753C88.5119 21.7753 87.2564 22.7033 87.2564 24.7292V32.7019H84.5739V19.6057H87.1905V20.9127C88.1287 19.9194 89.3842 19.4227 90.7582 19.4227C92.0667 19.4227 93.1899 19.854 94.0092 20.6644C95.0005 21.5923 95.3177 22.8209 95.3177 24.2979V32.7019H92.6348ZM80.8867 31.2772C80.0807 32.1398 78.7593 32.8195 76.9487 32.8195C75.1381 32.8195 73.8959 32.1398 73.024 31.2772C71.7686 29.9833 71.4514 28.3103 71.4514 26.1538C71.4514 23.9319 71.7686 22.272 73.024 20.965C73.8959 20.1024 75.1381 19.4227 76.9487 19.4227C78.7593 19.4227 80.0807 20.1024 80.8867 20.965C82.1952 22.272 82.5124 23.9319 82.5124 26.1538C82.5124 28.3103 82.1952 29.9833 80.8867 31.2772ZM74.0813 26.1538C74.0813 27.5784 74.1999 28.9377 75.0195 29.735C75.5216 30.2316 76.1427 30.4799 76.9487 30.4799C77.7021 30.4799 78.3891 30.2316 78.8912 29.735C79.6976 28.9377 79.8295 27.5784 79.8295 26.1538C79.8295 24.7292 79.6976 23.3176 78.8912 22.5072C78.3891 22.0236 77.7021 21.7753 76.9487 21.7753C76.1648 21.7753 75.5216 22.0193 75.0195 22.5072C74.1999 23.3176 74.0813 24.7292 74.0813 26.1538ZM62.8353 32.8195C60.8398 32.8195 59.2804 32.1398 58.025 30.9635C56.2803 29.1729 56.1484 27.3301 56.1484 23.5006C56.1484 19.6711 56.2803 17.8282 58.025 16.0376C59.2804 14.7959 60.8398 14.1816 62.8353 14.1816C66.2712 14.1816 68.8348 16.1552 69.4558 19.8017H66.588C66.2049 17.9458 64.8968 16.6519 62.8353 16.6519C61.7117 16.6519 60.7734 17.0178 60.0864 17.7628C59.1482 18.7431 58.9632 19.854 58.9632 23.5006C58.9632 27.1471 59.1482 28.2581 60.0864 29.2383C60.7734 29.918 61.7117 30.3493 62.8353 30.3493C64.8968 30.3493 66.2049 29.0553 66.641 27.1994H69.4558C68.8348 30.8459 66.2712 32.8195 62.8353 32.8195Z" fill="#146CBB"/>
<path d="M4.30635 19.7366C4.1874 19.802 4.05526 19.8543 3.87024 19.985C3.87024 19.985 3.11699 20.9652 2.37695 22.2069C1.6237 23.3179 0.870444 24.6771 0.368273 25.6574C0.249338 25.7881 0.117188 26.0887 0.117188 26.0887C1.43869 25.1738 3.06413 24.6771 5.17853 24.3634C7.80829 24.0628 10.861 24.1151 14.059 24.2458C16.7945 24.3634 19.7415 24.5464 22.7413 24.7425C27.7365 24.9777 34.1722 22.4552 37.661 18.9917C37.661 18.9917 37.5421 19.1224 37.476 19.1224C30.9742 22.8865 25.1068 22.0239 19.7943 21.0959C15.8034 20.351 11.7992 18.874 8.24442 18.874C6.87006 18.874 5.56176 19.1224 4.30635 19.7366Z" fill="url(#paint0_linear_1731_1555)"/>
<path fill-rule="evenodd" clip-rule="evenodd" d="M4.4375 19.6711C8.74561 17.6322 14.2959 20.1024 19.7933 21.0957C25.1058 22.0237 30.9732 22.8863 37.475 19.1222C37.5411 19.1222 37.66 18.9915 37.66 18.9915C37.66 18.9915 36.3517 19.1222 34.3562 19.1745C32.3476 19.1745 28.2245 19.0568 25.7269 18.8085C20.4805 18.3772 16.5557 18.0635 13.3708 18.0635C9.5517 18.0635 6.80299 18.5079 4.4375 19.6711Z" fill="url(#paint1_linear_1731_1555)"/>
<path d="M47.8498 1.77798C45.2199 2.07859 42.1672 2.02631 38.9692 1.89561C36.2205 1.77798 33.2867 1.595 30.2869 1.41202C25.2916 1.16369 18.8559 3.6862 15.3672 7.14976C15.3672 7.14976 15.4861 7.01907 15.5522 7.01907C22.054 3.25489 27.9214 4.1175 33.2339 5.04547C38.7842 6.03881 44.3476 8.50904 48.6558 6.40475C48.8408 6.33943 48.973 6.28715 49.1579 6.15646C49.1579 6.15646 49.845 5.1762 50.6514 3.93454C51.4043 2.82358 52.1577 1.4643 52.6598 0.484048C52.7128 0.353345 52.911 0.0527344 52.911 0.0527344C51.5896 0.967637 49.964 1.4643 47.8498 1.77798Z" fill="url(#paint2_linear_1731_1555)"/>
<path fill-rule="evenodd" clip-rule="evenodd" d="M15.5522 7.01889C15.4861 7.01889 15.3672 7.14962 15.3672 7.14962C15.3672 7.14962 16.6755 7.01889 18.6709 6.95357C20.6796 6.95357 24.8027 7.08426 27.3004 7.33259C38.9163 8.31285 44.2286 8.56119 48.5895 6.46998C44.2817 8.5089 38.7313 6.03867 33.2339 5.04533C30.9213 4.61403 28.5425 4.24805 25.9789 4.24805C22.7412 4.24805 19.2392 4.92769 15.5522 7.01889Z" fill="url(#paint3_linear_1731_1555)"/>
<path d="M28.0398 10.2997C22.6745 9.85531 17.177 9.48936 12.1818 10.169C10.0938 12.2253 8.15565 14.3645 6.36719 16.5864C11.4285 14.7958 18.0493 15.3578 24.9211 15.8545C30.3524 16.2858 35.8498 16.6517 40.8452 15.9721C42.1007 14.7958 45.7215 10.731 46.5934 9.55469C41.5982 11.3453 34.9116 10.8486 28.0398 10.2997Z" fill="url(#paint4_linear_1731_1555)"/>
</g>
</g>
</g>
<defs>
<linearGradient id="paint0_linear_1731_1555" x1="26.4811" y1="30.1143" x2="10.2368" y2="13.6237" gradientUnits="userSpaceOnUse">
<stop stop-color="#B8C746"/>
<stop offset="1" stop-color="#169244"/>
</linearGradient>
<linearGradient id="paint1_linear_1731_1555" x1="37.66" y1="19.8018" x2="4.30536" y2="19.8018" gradientUnits="userSpaceOnUse">
<stop stop-color="#B8C746"/>
<stop offset="0.8" stop-color="#169244"/>
<stop offset="1" stop-color="#169244"/>
</linearGradient>
<linearGradient id="paint2_linear_1731_1555" x1="28.5425" y1="-2.43057" x2="40.2787" y2="9.43578" gradientUnits="userSpaceOnUse">
<stop stop-color="#1F9CD7"/>
<stop offset="1" stop-color="#09409C"/>
</linearGradient>
<linearGradient id="paint3_linear_1731_1555" x1="15.3672" y1="5.90795" x2="48.6558" y2="5.90795" gradientUnits="userSpaceOnUse">
<stop stop-color="#1F9CD7"/>
<stop offset="0.8" stop-color="#09409C"/>
<stop offset="1" stop-color="#09409C"/>
</linearGradient>
<linearGradient id="paint4_linear_1731_1555" x1="21.6041" y1="8.24769" x2="33.288" y2="20.0612" gradientUnits="userSpaceOnUse">
<stop stop-color="#FF521C"/>
<stop offset="0.9" stop-color="#FF9836"/>
<stop offset="1" stop-color="#FF9836"/>
</linearGradient>
<clipPath id="clip0_1731_1555">
<rect width="201" height="33" fill="white"/>
</clipPath>
</defs>
</svg>
