<svg width="190" height="36" viewBox="0 0 190 36" fill="none" xmlns="http://www.w3.org/2000/svg">
<g clip-path="url(#clip0_1731_1570)">
<mask id="mask0_1731_1570" style="mask-type:luminance" maskUnits="userSpaceOnUse" x="0" y="0" width="190" height="36">
<path d="M190 0H0V35.8085H190V0Z" fill="white"/>
</mask>
<g mask="url(#mask0_1731_1570)">
<path fill-rule="evenodd" clip-rule="evenodd" d="M109.402 26.1191V12.9638H106.4V21.8298L98.553 12.9638H95.57V26.1191H98.572V17.1574L106.381 26.1191H109.402ZM171.513 18.6128C172.14 18.6128 173.185 18.4213 173.185 17.1191C173.185 16.1809 172.577 15.6638 171.513 15.6638H166.022V18.6128H171.513ZM176.643 26.1191H173.014L169.385 21.3128H165.851V26.1191H162.849V12.9638H171.342C174.268 12.9638 176.016 14.534 176.016 17.1766C176.016 18.766 175.142 20.5468 172.862 21.1021L176.643 26.1191ZM124.146 9.68936C129.903 9.68936 133.342 12.8106 133.342 18.0191C133.342 21.7532 130.929 26.1191 124.146 26.1191H116.888V9.68936H124.146ZM119.909 12.4085V23.4H124.165C126.464 23.4 130.34 22.6723 130.34 17.8468C130.34 14.3808 128.079 12.4085 124.165 12.4085H119.909ZM181.032 23.4191V20.8723H187.967V18.1915H181.032V15.6638H190V12.9638H178.03V26.1191H190V23.4383H181.032V23.4191ZM151.886 23.4191V20.8723H158.821V18.1915H151.886V15.6638H160.854V12.9638H148.884V26.1191H160.854V23.4383H151.886V23.4191ZM137.902 23.4191V20.8723H144.837V18.1915H137.902V15.6638H146.87V12.9638H134.9V26.1191H146.87V23.4383C146.87 23.4191 137.902 23.4191 137.902 23.4191ZM90.117 12.9638V18.1915H82.289V12.9638H79.287V26.1191H82.289V20.8915H90.117V26.1191H93.119V12.9638H90.117ZM69.787 23.7447C68.02 23.7447 65.075 23.1894 65.075 19.5128C65.075 16.8702 66.804 15.3574 69.787 15.3574C72.789 15.3574 74.499 16.8702 74.499 19.5128C74.499 23.1894 71.535 23.7447 69.787 23.7447ZM62.073 19.6468C62.073 22.7681 64.087 26.4255 69.787 26.4255C75.487 26.4255 77.501 22.7681 77.501 19.6468C77.501 15.2617 74.613 12.6574 69.787 12.6574C64.942 12.6574 62.073 15.2617 62.073 19.6468ZM48.849 22.9979C48.849 22.9979 50.559 23.6106 52.459 23.6106C54.492 23.6106 55.765 23.3234 56.468 22.5957C57.057 22.0021 57.285 21.0064 57.266 19.5128V9.70851H60.268V19.9532C60.23 24.4915 58.045 26.4255 52.991 26.4255C50.54 26.4255 48.83 26.0234 48.83 26.0234V22.9979H48.849ZM36.309 3.86809C31.312 1.39787 25.555 0 19.551 0C13.528 0 7.771 1.39787 2.755 3.88723C0.931 8.32979 0 13.0979 0 17.9043C0 22.8638 0.988 27.5745 2.755 31.9213C7.771 34.4106 13.528 35.8085 19.551 35.8085C25.555 35.8085 31.312 34.4106 36.328 31.9404C38.152 27.4979 39.102 22.7298 39.102 17.9043C39.083 12.9447 38.095 8.21489 36.309 3.86809Z" fill="#367C2B"/>
<path fill-rule="evenodd" clip-rule="evenodd" d="M14.211 13.8444C13.356 15.5678 12.805 17.4253 12.615 19.3402C12.539 19.3402 12.14 19.3785 12.14 19.3785C10.449 19.5317 8.72 19.6657 7.029 20.3168L7.143 21.0061C9.898 24.453 14.078 26.5402 14.116 26.5593L14.211 26.4636L13.318 25.0083C13.109 24.8359 12.539 24.721 12.52 24.721C10.639 24.0891 9.328 21.6189 9.1 21.1976C10.658 21.1976 12.007 21.6381 13.318 22.0785C14.192 22.3657 15.009 22.6338 15.845 22.787C17.327 23.0359 18.885 22.7487 20.291 22.5764C21.431 22.4423 22.533 22.4423 23.635 22.5189C23.768 22.6721 24.927 24.0891 26.029 24.6827C27.416 25.4104 31.444 26.6359 31.653 26.6934C31.729 26.77 33.287 28.3402 34.237 30.1785C29.715 32.2657 24.642 33.3764 19.531 33.3764C14.42 33.3764 9.309 32.2657 4.787 30.1402C3.286 26.253 2.526 22.0976 2.526 17.9232C2.526 13.7295 3.286 9.61252 4.787 5.70614C9.328 3.58061 14.42 2.46997 19.531 2.46997C24.642 2.46997 29.734 3.58061 34.256 5.68699C35.757 9.59338 36.517 13.7295 36.517 17.9232C36.517 21.7721 35.89 25.5444 34.636 29.1253C33.192 26.6168 32.622 25.8508 32.622 25.8508C32.603 25.8317 30.589 24.7785 30.095 24.3381C29.696 23.9934 29.506 23.2849 29.297 22.4615C28.993 21.3317 28.613 19.9338 27.511 18.7657L28.727 18.2678C28.385 15.8934 25.611 14.3615 25.592 14.3615L25.44 14.4381C26.504 15.7785 26.808 16.9083 26.808 17.5976C26.808 17.9423 26.751 18.1912 26.732 18.287C26.409 18.1721 24.376 17.5019 19.721 17.6742C19.037 17.6934 18.068 17.6742 17.479 17.0998C17.156 16.7742 16.985 16.3147 16.985 15.721C16.985 14.0934 17.669 11.9104 17.764 11.604L18.98 11.7572C20.424 10.953 20.994 10.2444 21.07 10.1487L20.994 10.0721C19.759 10.2253 18.144 10.5508 18.144 10.5508C18.258 10.2636 18.581 9.32529 18.581 8.2721C18.581 7.12316 18.201 5.84018 16.757 5.09338L16.605 5.16997C16.624 5.18912 17.441 6.08912 17.441 7.3338C17.441 7.67848 17.365 8.04231 17.213 8.44444C16.738 8.25295 16.548 8.2338 15.978 8.21465C15.712 7.23806 14.857 6.41465 13.698 5.99338L13.565 6.06997C13.584 6.06997 14.8 6.95082 14.857 8.2338C14.249 8.29125 13.983 8.34869 13.223 8.57848C12.9 8.04231 12.178 7.65933 11.266 7.54444L11.152 7.64019C11.171 7.64019 12.235 8.02316 12.463 8.84657C11.798 9.15295 11.114 9.63167 10.639 10.0147L10.677 10.187C13.451 9.0955 16.035 8.78912 16.7 9.57423C16.814 9.70827 16.871 9.88061 16.871 10.053C16.871 10.2827 16.776 10.5508 16.605 10.8572C15.237 11.1636 13.185 11.7381 11.494 12.3891L11.722 13.0976C11.722 13.0976 13.413 13.4423 14.059 13.5764C14.097 13.5764 14.325 13.5955 14.211 13.8444ZM35.111 4.92104C30.437 2.69976 25.098 1.45508 19.531 1.45508C13.964 1.45508 8.625 2.69976 3.932 4.94018C2.336 9.07635 1.5 13.4806 1.5 17.9232C1.5 22.4806 2.355 26.8466 3.932 30.8678C8.625 33.1083 13.964 34.353 19.531 34.353C25.079 34.353 30.437 33.1083 35.111 30.887C36.726 26.77 37.562 22.3657 37.562 17.9232C37.581 13.3466 36.707 8.96146 35.111 4.92104Z" fill="#FFDE00"/>
</g>
</g>
<defs>
<clipPath id="clip0_1731_1570">
<rect width="190" height="36" fill="white"/>
</clipPath>
</defs>
</svg>
