<svg width="135" height="37" viewBox="0 0 135 37" fill="none" xmlns="http://www.w3.org/2000/svg">
<g clip-path="url(#clip0_1731_1577)">
<path d="M43.7658 7.17893L47.0274 18.8317H40.2712L43.7658 7.17893ZM37.8353 26.994L34.8674 36.6604H52.2184L49.428 26.994H37.8353ZM83.1226 0.193359H49.813V10.5737H60.3219V36.6604H77.2326C76.189 36.0215 69.0127 30.3637 69.0127 19.8073C69.0127 11.0314 74.376 2.44646 83.1226 0.193359ZM88.896 27.3211C92.8262 27.3211 95.9814 24.0822 95.9814 19.9884C95.9814 15.9197 93.0238 12.2384 89.0429 12.2384C85.0421 12.2384 81.8968 15.9197 81.8968 19.9884C81.8968 24.0822 84.8496 27.3211 88.896 27.3211ZM123.832 23.1166L117.07 0.193359H99.7598V36.6604H110.572V13.8025H110.649L117.349 36.6604H134.807V0.193359H123.897V23.1166H123.832ZM21.1474 36.6604L24.2723 26.4359H12.6896V23.3429H25.2194L28.1974 13.5409H12.6896V10.5737H29.0584L32.2185 0.193359H0.195312V36.6604H21.1474Z" fill="#1175C7"/>
</g>
<defs>
<clipPath id="clip0_1731_1577">
<rect width="135" height="37" fill="white"/>
</clipPath>
</defs>
</svg>
