<svg width="201" height="40" viewBox="0 0 201 40" fill="none" xmlns="http://www.w3.org/2000/svg">
<g clip-path="url(#clip0_1731_1579)">
<mask id="mask0_1731_1579" style="mask-type:luminance" maskUnits="userSpaceOnUse" x="0" y="0" width="201" height="40">
<path d="M201 0H0V39.9781H201V0Z" fill="white"/>
</mask>
<g mask="url(#mask0_1731_1579)">
<path d="M0.0898438 0.0673828H54.1096V39.9401H0.0898438V0.0673828Z" fill="white"/>
<path d="M66.6836 26.4736H68.6819V34.2876H66.6836V26.4736Z" fill="white"/>
<path d="M72.7812 34.2876V26.4736H74.5589L80.1125 31.8485H80.1387V26.4736H80.9949V34.2876H80.1125L73.6636 28.0517H73.6246V34.2876H72.7812Z" fill="white"/>
<path d="M86.3013 34.2876V26.9805H84.1992V26.4736H90.4149V26.9805H88.2996V34.2876H86.3013Z" fill="white"/>
<path d="M93.6484 34.2876V26.4736H99.916V26.9805H95.6468V29.9931H99.6692V30.5001H95.6468V33.7807H99.9807V34.2876H93.6484Z" fill="white"/>
<path d="M103.547 34.2876V26.4736H108.127C110.061 26.4736 111.138 27.5161 111.138 28.769C111.138 29.9644 109.957 30.4906 108.374 30.634L111.19 34.2876H108.997L106.103 30.2802H106.233C107.998 30.2802 109.14 29.7733 109.14 28.6064C109.14 27.7361 108.569 26.8562 106.622 26.8562H105.545V34.2876H103.547Z" fill="white"/>
<path d="M114.668 34.2876V26.4736H116.446L122 31.8485H122.025V26.4736H122.882V34.2876H122L115.55 28.0517H115.511V34.2876H114.668Z" fill="white"/>
<path fill-rule="evenodd" clip-rule="evenodd" d="M134.159 34.2878H132.121L130.993 32.2505H127.346L126.282 34.2878H125.348L129.669 26.2539H129.695L134.159 34.2878ZM129.163 28.8745L127.619 31.7438H130.707L129.163 28.8745Z" fill="white"/>
<path d="M137.532 34.2876V26.9805H135.43V26.4736H141.645V26.9805H139.53V34.2876H137.532Z" fill="white"/>
<path d="M145.109 26.4736H147.108V34.2876H145.109V26.4736Z" fill="white"/>
<path fill-rule="evenodd" clip-rule="evenodd" d="M155.701 34.4982C152.794 34.4982 150.445 32.6618 150.445 30.3761C150.445 28.0998 152.794 26.2539 155.701 26.2539C158.608 26.2539 160.956 28.0998 160.956 30.3761C160.956 32.6618 158.608 34.4982 155.701 34.4982ZM158.815 30.3761C158.815 28.3771 157.426 26.7608 155.701 26.7608C153.975 26.7608 152.586 28.3771 152.586 30.3761C152.586 32.3749 153.975 33.9912 155.701 33.9912C157.426 33.9912 158.815 32.3749 158.815 30.3761Z" fill="white"/>
<path d="M164.211 34.2876V26.4736H165.989L171.53 31.8485H171.568V26.4736H172.425V34.2876H171.53L165.093 28.0517H165.054V34.2876H164.211Z" fill="white"/>
<path fill-rule="evenodd" clip-rule="evenodd" d="M183.701 34.2878H181.664L180.535 32.2505H176.889L175.825 34.2878H174.891L179.212 26.2539H179.237L183.701 34.2878ZM178.692 28.8745L177.161 31.7438H180.25L178.692 28.8745Z" fill="white"/>
<path d="M186.363 34.2876V26.4736H188.362V33.6657H192.618V34.2876H186.363Z" fill="white"/>
<path d="M66.5273 21.9975V3.98828H80.97V5.15513H71.121V12.0987H80.3988V13.2655H71.121V20.8307H81.1256V21.9975H66.5273Z" fill="white"/>
<path fill-rule="evenodd" clip-rule="evenodd" d="M87.0039 3.98828H94.9583C103.782 3.98828 107.973 8.59821 107.973 13.3229C107.973 19.0805 102.951 21.9975 95.8274 21.9975H87.0039V3.98828ZM91.6104 20.8307H94.465C101.822 20.8307 103.367 16.9094 103.367 13.3802C103.367 8.84686 100.512 5.15513 94.6986 5.15513H91.6104V20.8307Z" fill="white"/>
<path d="M113.461 21.9975V3.98828H118.067V21.9975H113.461Z" fill="white"/>
<path d="M126.451 18.7745C127.723 20.276 129.086 21.0794 131.499 21.0794C133.614 21.0794 135.872 19.8265 135.872 17.9711C135.872 12.7395 124.414 15.2166 124.414 8.76082C124.414 5.87247 127.697 3.48145 132.252 3.48145C135.275 3.48145 138.324 4.70565 139.609 6.71413L138.026 7.46011C137.079 6.01593 135.613 4.90651 133.004 4.90651C130.487 4.90651 129.008 6.32198 129.008 8.04352C129.008 12.2709 140.479 10.4919 140.479 16.9955C140.479 20.3047 136.547 22.4949 132.446 22.4949C129.125 22.4949 126.451 21.7776 124.752 19.6926L126.451 18.7745Z" fill="white"/>
<path fill-rule="evenodd" clip-rule="evenodd" d="M156.541 22.4951C149.846 22.4951 144.422 18.2486 144.422 12.9884C144.422 7.73767 149.846 3.49121 156.541 3.49121C163.25 3.49121 168.674 7.73767 168.674 12.9884C168.674 18.2486 163.25 22.4951 156.541 22.4951ZM156.529 21.3283C162.407 21.3283 163.73 16.4984 163.73 12.9884C163.73 9.48792 162.407 4.65803 156.529 4.65803C150.637 4.65803 149.366 9.48792 149.366 12.9884C149.366 16.4984 150.637 21.3283 156.529 21.3283Z" fill="white"/>
<path d="M173.66 21.9975V3.98828H177.774L190.555 16.3834H190.633V3.98828H192.592V21.9975H190.555L175.697 7.63222H175.62V21.9975H173.66Z" fill="white"/>
<path d="M195.25 28.3395C195.25 27.2301 196.47 26.3311 197.975 26.3311C199.48 26.3311 200.7 27.2301 200.7 28.3395C200.7 29.449 199.48 30.3479 197.975 30.3479C196.47 30.3479 195.25 29.449 195.25 28.3395Z" stroke="white" stroke-width="2.3"/>
<path fill-rule="evenodd" clip-rule="evenodd" d="M196.613 29.4484H196.73C196.951 29.4484 197.002 29.4197 197.002 29.238V27.3061C197.002 27.1148 196.951 27.0861 196.73 27.0861H196.613V27C196.834 27.0096 197.054 27.0191 197.262 27.0191C197.548 27.0191 197.768 27 197.989 27C198.612 27 199.182 27.1435 199.182 27.6886C199.182 28.0234 198.897 28.2912 198.326 28.3868C198.404 28.4251 198.508 28.492 198.612 28.5972L199.286 29.2476C199.481 29.4293 199.585 29.4389 199.767 29.4484V29.5345C199.637 29.5249 199.507 29.5154 199.377 29.5154C199.247 29.5154 199.118 29.5249 199.001 29.5345L198.067 28.645C197.898 28.4729 197.885 28.4537 197.483 28.4537V29.238C197.483 29.4197 197.535 29.4484 197.755 29.4484H197.872V29.5345C197.651 29.5249 197.431 29.5154 197.262 29.5154C197.054 29.5154 196.834 29.5249 196.613 29.5345V29.4484ZM197.483 28.339C197.548 28.339 197.626 28.3486 197.716 28.3486C198.534 28.3486 198.663 27.9851 198.663 27.7556C198.663 27.44 198.56 27.1244 197.664 27.1244C197.509 27.1244 197.483 27.1244 197.483 27.2104V28.339Z" fill="white"/>
<path d="M0.0898438 0.0673828H54.1096V39.9211H0.0898438V0.0673828Z" fill="white"/>
<path d="M22.4218 30.3188L0.115796 34.0008H0.0898438V0.0673828H46.1291L40.7439 16.3646L33.5163 0.0865111L34.5414 16.3168L23.0186 4.53382L29.9609 18.4018L6.87633 5.0503L25.1078 22.0744L6.14968 16.9767L22.6812 25.9L0.128772 24.4846L22.4218 30.3188Z" fill="#FFD046"/>
<path d="M0.0898438 34.0201H46.1291V0.0673828H54.1096V39.9499H0.0898438V34.0201Z" fill="#006A53"/>
<path d="M66.6836 26.4736H68.6819V34.2876H66.6836V26.4736Z" fill="#808285"/>
<path d="M72.7812 34.2876V26.4736H74.5589L80.1125 31.8485H80.1387V26.4736H80.9949V34.2876H80.1125L73.6636 28.0517H73.6246V34.2876H72.7812Z" fill="#808285"/>
<path d="M86.3013 34.2876V26.9805H84.1992V26.4736H90.4149V26.9805H88.2996V34.2876H86.3013Z" fill="#808285"/>
<path d="M93.6484 34.2876V26.4736H99.916V26.9805H95.6468V29.9931H99.6692V30.5001H95.6468V33.7807H99.9807V34.2876H93.6484Z" fill="#808285"/>
<path d="M103.547 34.2876V26.4736H108.127C110.061 26.4736 111.138 27.5161 111.138 28.769C111.138 29.9644 109.957 30.4906 108.374 30.634L111.19 34.2876H108.997L106.103 30.2802H106.233C107.998 30.2802 109.14 29.7733 109.14 28.6064C109.14 27.7361 108.569 26.8562 106.622 26.8562H105.545V34.2876H103.547Z" fill="#808285"/>
<path d="M114.668 34.2876V26.4736H116.446L122 31.8485H122.025V26.4736H122.882V34.2876H122L115.55 28.0517H115.511V34.2876H114.668Z" fill="#808285"/>
<path fill-rule="evenodd" clip-rule="evenodd" d="M134.159 34.2878H132.121L130.993 32.2505H127.346L126.282 34.2878H125.348L129.669 26.2539H129.695L134.159 34.2878ZM129.163 28.8745L127.619 31.7438H130.707L129.163 28.8745Z" fill="#808285"/>
<path d="M137.532 34.2876V26.9805H135.43V26.4736H141.645V26.9805H139.53V34.2876H137.532Z" fill="#808285"/>
<path d="M145.109 26.4736H147.108V34.2876H145.109V26.4736Z" fill="#808285"/>
<path fill-rule="evenodd" clip-rule="evenodd" d="M155.701 34.4982C152.794 34.4982 150.445 32.6618 150.445 30.3761C150.445 28.0998 152.794 26.2539 155.701 26.2539C158.608 26.2539 160.956 28.0998 160.956 30.3761C160.956 32.6618 158.608 34.4982 155.701 34.4982ZM158.815 30.3761C158.815 28.3771 157.426 26.7608 155.701 26.7608C153.975 26.7608 152.586 28.3771 152.586 30.3761C152.586 32.3749 153.975 33.9912 155.701 33.9912C157.426 33.9912 158.815 32.3749 158.815 30.3761Z" fill="#808285"/>
<path d="M164.211 34.2876V26.4736H165.989L171.53 31.8485H171.568V26.4736H172.425V34.2876H171.53L165.093 28.0517H165.054V34.2876H164.211Z" fill="#808285"/>
<path fill-rule="evenodd" clip-rule="evenodd" d="M183.701 34.2878H181.664L180.535 32.2505H176.889L175.825 34.2878H174.891L179.212 26.2539H179.237L183.701 34.2878ZM178.692 28.8745L177.161 31.7438H180.25L178.692 28.8745Z" fill="#808285"/>
<path d="M186.363 34.2876V26.4736H188.362V33.6657H192.618V34.2876H186.363Z" fill="#808285"/>
<path d="M66.5273 21.9975V3.98828H80.97V5.15513H71.121V12.0987H80.3988V13.2655H71.121V20.8307H81.1256V21.9975H66.5273Z" fill="#808285"/>
<path fill-rule="evenodd" clip-rule="evenodd" d="M87.0039 3.98828H94.9583C103.782 3.98828 107.973 8.59821 107.973 13.3229C107.973 19.0805 102.951 21.9975 95.8274 21.9975H87.0039V3.98828ZM91.6104 20.8307H94.465C101.822 20.8307 103.367 16.9094 103.367 13.3802C103.367 8.84686 100.512 5.15513 94.6986 5.15513H91.6104V20.8307Z" fill="#808285"/>
<path d="M113.461 21.9975V3.98828H118.067V21.9975H113.461Z" fill="#808285"/>
<path d="M126.451 18.7745C127.723 20.276 129.086 21.0794 131.499 21.0794C133.614 21.0794 135.872 19.8265 135.872 17.9711C135.872 12.7395 124.414 15.2166 124.414 8.76082C124.414 5.87247 127.697 3.48145 132.252 3.48145C135.275 3.48145 138.324 4.70565 139.609 6.71413L138.026 7.46011C137.079 6.01593 135.613 4.90651 133.004 4.90651C130.487 4.90651 129.008 6.32198 129.008 8.04352C129.008 12.2709 140.479 10.4919 140.479 16.9955C140.479 20.3047 136.547 22.4949 132.446 22.4949C129.125 22.4949 126.451 21.7776 124.752 19.6926L126.451 18.7745Z" fill="#808285"/>
<path fill-rule="evenodd" clip-rule="evenodd" d="M156.541 22.4951C149.846 22.4951 144.422 18.2486 144.422 12.9884C144.422 7.73767 149.846 3.49121 156.541 3.49121C163.25 3.49121 168.674 7.73767 168.674 12.9884C168.674 18.2486 163.25 22.4951 156.541 22.4951ZM156.529 21.3283C162.407 21.3283 163.73 16.4984 163.73 12.9884C163.73 9.48792 162.407 4.65803 156.529 4.65803C150.637 4.65803 149.366 9.48792 149.366 12.9884C149.366 16.4984 150.637 21.3283 156.529 21.3283Z" fill="#808285"/>
<path d="M173.66 21.9975V3.98828H177.774L190.555 16.3834H190.633V3.98828H192.592V21.9975H190.555L175.697 7.63222H175.62V21.9975H173.66Z" fill="#808285"/>
<path d="M195.25 28.3395C195.25 27.2301 196.47 26.3311 197.975 26.3311C199.48 26.3311 200.7 27.2301 200.7 28.3395C200.7 29.449 199.48 30.3479 197.975 30.3479C196.47 30.3479 195.25 29.449 195.25 28.3395Z" stroke="#808285" stroke-width="2.3"/>
<path fill-rule="evenodd" clip-rule="evenodd" d="M196.613 29.4484H196.73C196.951 29.4484 197.002 29.4197 197.002 29.238V27.3061C197.002 27.1148 196.951 27.0861 196.73 27.0861H196.613V27C196.834 27.0096 197.054 27.0191 197.262 27.0191C197.548 27.0191 197.768 27 197.989 27C198.612 27 199.182 27.1435 199.182 27.6886C199.182 28.0234 198.897 28.2912 198.326 28.3868C198.404 28.4251 198.508 28.492 198.612 28.5972L199.286 29.2476C199.481 29.4293 199.585 29.4389 199.767 29.4484V29.5345C199.637 29.5249 199.507 29.5154 199.377 29.5154C199.247 29.5154 199.118 29.5249 199.001 29.5345L198.067 28.645C197.898 28.4729 197.885 28.4537 197.483 28.4537V29.238C197.483 29.4197 197.535 29.4484 197.755 29.4484H197.872V29.5345C197.651 29.5249 197.431 29.5154 197.262 29.5154C197.054 29.5154 196.834 29.5249 196.613 29.5345V29.4484ZM197.483 28.339C197.548 28.339 197.626 28.3486 197.716 28.3486C198.534 28.3486 198.663 27.9851 198.663 27.7556C198.663 27.44 198.56 27.1244 197.664 27.1244C197.509 27.1244 197.483 27.1244 197.483 27.2104V28.339Z" fill="#808285"/>
</g>
</g>
<defs>
<clipPath id="clip0_1731_1579">
<rect width="201" height="40" fill="white"/>
</clipPath>
</defs>
</svg>
