<svg width="201" height="30" viewBox="0 0 201 30" fill="none" xmlns="http://www.w3.org/2000/svg">
<g clip-path="url(#clip0_1731_1630)">
<mask id="mask0_1731_1630" style="mask-type:luminance" maskUnits="userSpaceOnUse" x="0" y="0" width="201" height="30">
<path d="M201 0H0V29.7534H201V0Z" fill="white"/>
</mask>
<g mask="url(#mask0_1731_1630)">
<path fill-rule="evenodd" clip-rule="evenodd" d="M196.204 16.4977C198.389 17.0674 201 17.7891 201 20.4732C201 22.9548 198.69 24.5247 195.739 24.5247C192.488 24.5247 190.077 22.5623 189.801 19.8022H192.777C192.952 21.1443 194.158 22.0432 195.739 22.0432C196.92 22.0432 197.774 21.5367 197.774 20.7771C197.774 19.8528 196.443 19.5237 194.873 19.1058C192.689 18.5361 190.077 17.8144 190.077 15.0543C190.077 12.5727 192.237 11.1041 195.024 11.1041C198.175 11.1041 200.51 13.0412 200.799 15.8013H197.824C197.61 14.4593 196.493 13.5856 194.974 13.5856C194.082 13.5856 193.254 13.9908 193.254 14.7758C193.254 15.7253 194.622 16.0799 196.204 16.4977ZM177.058 11.3953H173.807V24.2715H177.058V17.4473C177.058 15.7 178.603 13.8642 181.214 14.282V11.1547C179.243 10.9268 177.824 12.0283 177.058 13.7123V11.3953ZM154.573 24.2715H158.214L159.984 20.4226H167.466L169.287 24.2715H173.028L163.801 5.43193L154.573 24.2715ZM161.264 17.6625L163.675 12.4081L166.161 17.6625H161.264ZM145.986 16.4597H149.288C148.672 13.3324 146.01 11.1421 142.834 11.1421C139.143 11.1421 136.143 13.9528 136.143 17.8524C136.143 21.714 139.143 24.5374 142.834 24.5374C146.01 24.5374 148.672 22.4357 149.288 19.3211H145.986C145.471 20.7138 144.265 21.5874 142.834 21.5874C140.913 21.5874 139.369 20.0681 139.369 17.903C139.369 15.6747 140.913 14.1807 142.834 14.1807C144.265 14.1807 145.471 15.0543 145.986 16.4597ZM131.447 24.2715H134.699V11.3953H131.447V24.2715ZM135.163 7.68562C135.163 6.50812 134.222 5.55858 133.067 5.55858C131.912 5.55858 130.982 6.50812 130.982 7.68562C130.982 8.85043 131.912 9.80001 133.067 9.80001C134.222 9.80001 135.163 8.85043 135.163 7.68562ZM121.039 12.9905V11.3953H117.788V24.2715H121.039V16.485C121.039 14.9783 122.194 13.8009 123.714 13.8009C125.27 13.8009 126.375 14.9277 126.375 16.6116V24.2715H129.627V16.3457C129.627 13.3324 127.907 11.1167 124.856 11.1167C123.224 11.1167 121.805 11.8384 121.039 12.9905ZM116.331 17.8524C116.331 13.9528 113.306 11.1421 109.564 11.1421C105.823 11.1421 102.797 13.9528 102.797 17.8524C102.797 21.714 105.823 24.5247 109.564 24.5247C113.306 24.5247 116.331 21.714 116.331 17.8524ZM113.105 17.8777C113.105 20.0427 111.535 21.5621 109.564 21.5621C107.593 21.5621 106.024 20.0427 106.024 17.8777C106.024 15.6494 107.593 14.1554 109.564 14.1554C111.535 14.1554 113.105 15.6494 113.105 17.8777ZM98.529 11.3953H95.2772V24.2715H98.529V17.4599C98.529 15.7 100.061 13.8768 102.685 14.282V11.1674C100.701 10.9268 99.2948 12.041 98.529 13.7123V11.3953ZM185.533 7.63498L182.331 8.66049V20.9543C182.331 22.9421 183.712 24.2842 186.073 24.2842H189.249V21.3595H186.989C185.997 21.3595 185.533 20.9037 185.533 20.0427V14.1933H189.249V11.3953H185.533V7.63498ZM90.3182 7.63498L87.1042 8.67318V20.9543C87.1042 22.9421 88.4975 24.2842 90.8456 24.2842H94.0343V21.3721H91.7746C90.77 21.3721 90.3182 20.9037 90.3182 20.0554V14.1933H94.0343V11.4079H90.3182V7.63498ZM82.7602 16.4597H86.0622C85.4467 13.3324 82.7855 11.1421 79.6089 11.1421C75.9181 11.1421 72.9172 13.9528 72.9172 17.8524C72.9172 21.7267 75.9181 24.5374 79.6089 24.5374C82.7855 24.5374 85.4467 22.4483 86.0622 19.3211H82.7602C82.2456 20.7138 81.0404 21.6001 79.6089 21.6001C77.6757 21.6001 76.1441 20.0681 76.1441 17.903C76.1441 15.6873 77.6757 14.1933 79.6089 14.1933C81.0404 14.1933 82.2456 15.067 82.7602 16.4597ZM71.8125 18.4221C71.8125 13.4717 68.3348 11.1167 65.1461 11.1167C61.4803 11.1167 58.5172 13.9275 58.5172 17.8271C58.5172 21.7013 61.6431 24.5374 65.485 24.5374C68.3348 24.5374 70.6326 22.9168 71.6119 20.4353H67.9959C67.456 21.2329 66.5395 21.6254 65.5353 21.6254C63.7902 21.6254 62.3591 20.5365 61.9197 18.9159H71.7876C71.7876 18.726 71.8125 18.5741 71.8125 18.4221ZM61.9446 16.561C62.384 14.991 63.6394 13.9781 65.1461 13.9781C66.6653 13.9781 67.9959 15.0417 68.2846 16.561H61.9446ZM53.8093 24.2842H57.0607V5.17871L53.8093 6.21691V24.2842ZM39.3086 24.2842H52.3276V21.1569H42.8866V16.7509H50.5326V13.6236H42.8866V9.39485H52.3276V6.21691H39.3086V24.2842Z" fill="#FF4747"/>
<path fill-rule="evenodd" clip-rule="evenodd" d="M14.8767 29.7281C6.71621 29.7281 0.125 23.081 0.125 14.864C0.125 6.64703 6.71621 0 14.8767 0C23.0372 0 29.6284 6.64703 29.6284 14.864C29.6284 23.081 23.0372 29.7281 14.8767 29.7281ZM17.3751 9.11591H9.03881L7.77078 11.167H16.1071L17.3751 9.11591ZM19.07 9.12859L13.9728 17.3076H8.3232L9.62886 15.2565H13.0186L14.3118 13.2054H6.47766L5.18451 15.2565H7.04263L4.45637 19.3587H15.2032L19.183 13.0408L20.6267 15.2565H19.3211L18.0781 17.3076H21.945L23.2883 19.3587H25.7491L19.07 9.12859Z" fill="#FF4747"/>
</g>
</g>
<defs>
<clipPath id="clip0_1731_1630">
<rect width="201" height="30" fill="white"/>
</clipPath>
</defs>
</svg>
