<svg width="24" height="24" viewBox="0 0 24 24" fill="none" xmlns="http://www.w3.org/2000/svg">
<path d="M11.3733 18.8422H7.86334C7.79654 18.842 7.73044 18.8285 7.66895 18.8024C7.60746 18.7763 7.55183 18.7381 7.50534 18.6902L4.35334 15.4322C4.26222 15.3379 4.21179 15.2115 4.21291 15.0804C4.21403 14.9493 4.26662 14.8239 4.35934 14.7312L17.7953 1.29516C17.8908 1.20471 18.0173 1.1543 18.1488 1.1543C18.2804 1.1543 18.4069 1.20471 18.5023 1.29516L23.4513 6.24516C23.4979 6.2916 23.5348 6.34678 23.56 6.40752C23.5853 6.46827 23.5982 6.53339 23.5982 6.59916C23.5982 6.66492 23.5853 6.73004 23.56 6.79079C23.5348 6.85154 23.4979 6.90671 23.4513 6.95316L11.7293 18.6952C11.6343 18.7885 11.5066 18.8413 11.3733 18.8422ZM8.07634 17.8422H11.1653L22.3923 6.60016L18.1503 2.35716L5.41434 15.0902L8.07634 17.8422Z" fill="black"/>
<path d="M14.2583 15.23C14.1926 15.2301 14.1276 15.2173 14.0668 15.1922C14.0061 15.1672 13.9509 15.1304 13.9043 15.084L9.66034 10.841C9.56927 10.7467 9.51887 10.6204 9.52001 10.4893C9.52115 10.3582 9.57373 10.2328 9.66643 10.1401C9.75914 10.0474 9.88454 9.99481 10.0156 9.99367C10.1467 9.99253 10.273 10.0429 10.3673 10.134L14.6093 14.377C14.6789 14.4468 14.7263 14.5356 14.7456 14.6323C14.7649 14.7289 14.7551 14.8291 14.7176 14.9203C14.6801 15.0114 14.6165 15.0895 14.5348 15.1446C14.4531 15.1997 14.3569 15.2294 14.2583 15.23ZM5.90234 18.842H0.902344C0.627344 18.842 0.402344 18.617 0.402344 18.342C0.402344 18.067 0.627344 17.842 0.902344 17.842H5.90234C6.03495 17.842 6.16213 17.8947 6.2559 17.9885C6.34967 18.0822 6.40234 18.2094 6.40234 18.342C6.40234 18.4746 6.34967 18.6018 6.2559 18.6956C6.16213 18.7893 6.03495 18.842 5.90234 18.842ZM5.90234 22.842H0.902344C0.627344 22.842 0.402344 22.617 0.402344 22.342C0.402344 22.067 0.627344 21.842 0.902344 21.842H5.90234C6.03495 21.842 6.16213 21.8947 6.2559 21.9885C6.34967 22.0822 6.40234 22.2094 6.40234 22.342C6.40234 22.4746 6.34967 22.6018 6.2559 22.6956C6.16213 22.7893 6.03495 22.842 5.90234 22.842ZM10.9023 20.842H2.90234C2.62734 20.842 2.40234 20.617 2.40234 20.342C2.40234 20.067 2.62734 19.842 2.90234 19.842H10.9023C11.035 19.842 11.1621 19.8947 11.2559 19.9885C11.3497 20.0822 11.4023 20.2094 11.4023 20.342C11.4023 20.4746 11.3497 20.6018 11.2559 20.6956C11.1621 20.7893 11.035 20.842 10.9023 20.842Z" fill="black"/>
</svg>
