<svg width="194" height="28" viewBox="0 0 194 28" fill="none" xmlns="http://www.w3.org/2000/svg">
<g clip-path="url(#clip0_1731_1637)">
<mask id="mask0_1731_1637" style="mask-type:luminance" maskUnits="userSpaceOnUse" x="0" y="0" width="194" height="28">
<path d="M194 0H0V27.7997H194V0Z" fill="white"/>
</mask>
<g mask="url(#mask0_1731_1637)">
<path d="M12.1758 13.3118C12.151 12.7974 12.0147 12.2953 11.7918 11.8299C11.5564 11.3768 11.2467 10.9604 10.8626 10.6175C10.4786 10.2746 10.0326 10.0052 9.54947 9.82146C9.05395 9.65 8.53364 9.56428 8.02571 9.58879C7.46823 9.58879 6.91075 9.71126 6.40286 9.93169C5.89493 10.1521 5.43659 10.4705 5.05255 10.8624C4.65613 11.2666 4.3588 11.7319 4.16057 12.2463C3.94997 12.7484 3.85087 13.2995 3.86326 13.8506C3.86326 16.4224 5.67195 18.2716 8.75663 18.2716H14.6287C14.2818 18.8104 13.8606 19.3125 13.3774 19.7412C12.9067 20.182 12.374 20.5494 11.7918 20.8556C11.2219 21.1618 10.6149 21.3944 9.98306 21.5536C9.35127 21.7006 8.70708 21.7864 8.0505 21.7741C4.82956 21.7741 1.93069 19.8636 0.691872 16.9245C-0.534565 13.9853 0.146787 10.6053 2.42622 8.35188C4.70567 6.09853 8.12481 5.42496 11.098 6.64963C14.0712 7.86203 16.0161 10.7277 16.0161 13.9118C16.0161 14.1159 16.0079 14.3241 15.9914 14.5364C15.9666 14.7405 15.9418 14.9446 15.917 15.1487C15.884 15.3528 15.8427 15.5569 15.7932 15.761C15.7436 15.9652 15.6899 16.1652 15.6321 16.3611H6.76211V15.5038L9.88396 15.4059C11.4696 15.3447 12.1758 14.5486 12.1758 13.3118Z" fill="#000099"/>
<path fill-rule="evenodd" clip-rule="evenodd" d="M22.6175 10.9239L25.6527 6.52741H29.8399L24.6864 13.6304L30.2611 21.2967H25.8137L22.4936 16.5206L19.1364 21.2967H14.9492L20.4248 13.8141L15.1103 6.52741H19.5576L22.6175 10.9239ZM34.7085 27.3833H30.8433V6.52741H34.7085V9.39308C34.7085 9.46657 34.7333 9.50331 34.7828 9.50331C34.8076 9.50331 34.8447 9.47881 34.8695 9.42982C35.0801 8.93998 35.365 8.48684 35.6995 8.07048C36.0464 7.66632 36.4428 7.31118 36.8888 7.01726C37.3472 6.72334 37.8303 6.5029 38.3506 6.34373C38.8585 6.19674 39.3912 6.11102 39.9364 6.11102C40.3822 6.11919 40.8284 6.16817 41.2742 6.258C41.7204 6.34779 42.1495 6.4866 42.5627 6.67436C42.9756 6.85398 43.3636 7.07441 43.7271 7.33569C44.0988 7.59694 44.4333 7.89493 44.7305 8.22966C44.8958 8.40111 45.0525 8.58484 45.2012 8.78076C45.3501 8.97672 45.4902 9.17675 45.6225 9.38084C45.7463 9.58498 45.8619 9.79724 45.9694 10.0177C46.0769 10.2299 46.1758 10.4504 46.2666 10.679C46.3574 10.9403 46.44 11.2015 46.5145 11.4628C46.5886 11.7322 46.6464 12.0016 46.688 12.271C46.7376 12.5405 46.7745 12.814 46.7993 13.0915C46.8242 13.3692 46.8323 13.6426 46.8242 13.9121C46.8323 14.1897 46.8242 14.4673 46.7993 14.7448C46.7745 15.0143 46.7376 15.2837 46.688 15.5531C46.6383 15.8307 46.5805 16.1001 46.5145 16.3614C46.44 16.6308 46.3535 16.8921 46.2542 17.1452C46.1715 17.3738 46.0769 17.5983 45.9694 17.8187C45.8619 18.031 45.7463 18.2433 45.6225 18.4555C45.4902 18.6597 45.3501 18.8597 45.2012 19.0556C45.0525 19.2434 44.8958 19.4271 44.7305 19.6067C44.4333 19.9333 44.0988 20.2313 43.7271 20.5007C43.3636 20.762 42.9756 20.9824 42.5627 21.162C42.1495 21.3416 41.7204 21.4804 41.2742 21.5784C40.8284 21.6682 40.3822 21.7131 39.9364 21.7131C39.3912 21.7131 38.8585 21.6396 38.3506 21.4804C37.8303 21.3335 37.3472 21.1008 36.8888 20.8191C36.4428 20.5252 36.0464 20.17 35.6995 19.7537C35.365 19.3495 35.0801 18.8964 34.8695 18.4065C34.8447 18.3576 34.8076 18.3208 34.7828 18.3208C34.7333 18.3208 34.7085 18.3698 34.7085 18.4311V27.3833ZM38.8709 9.27065C38.5901 9.27065 38.3135 9.29922 38.0409 9.35637C37.7684 9.42165 37.5082 9.50738 37.2605 9.61355C37.0044 9.72785 36.7649 9.86662 36.5419 10.0299C36.3189 10.1932 36.1125 10.3728 35.9225 10.5688C35.7161 10.7974 35.5302 11.0423 35.365 11.3036C35.2081 11.5648 35.076 11.8383 34.9686 12.1241C34.853 12.4098 34.7704 12.7038 34.7208 13.0058C34.663 13.3079 34.6383 13.61 34.6465 13.9121C34.6383 14.2141 34.663 14.5162 34.7208 14.8183C34.7704 15.1204 34.853 15.4143 34.9686 15.7001C35.076 15.9858 35.2081 16.2593 35.365 16.5206C35.5302 16.7819 35.7161 17.0268 35.9225 17.2554C36.1125 17.4595 36.3189 17.6391 36.5419 17.7942C36.7649 17.9575 37.0044 18.0963 37.2605 18.2106C37.5082 18.3249 37.7684 18.4106 38.0409 18.4678C38.3135 18.5249 38.5901 18.5576 38.8709 18.5658C39.1518 18.5658 39.4285 18.5331 39.7009 18.4678C39.9736 18.4106 40.2336 18.3249 40.4815 18.2106C40.7376 18.1045 40.9809 17.9697 41.2121 17.8065C41.4352 17.6432 41.6378 17.4595 41.8193 17.2554C42.0258 17.0268 42.2116 16.7819 42.3769 16.5206C42.5336 16.2593 42.666 15.9858 42.773 15.7001C42.8805 15.4143 42.9632 15.1204 43.021 14.8183C43.0706 14.5162 43.0955 14.2141 43.0955 13.9121C43.0955 13.61 43.0706 13.3079 43.021 13.0058C42.9632 12.7038 42.8805 12.4098 42.773 12.1241C42.666 11.8383 42.5336 11.5648 42.3769 11.3036C42.2116 11.0423 42.0258 10.7974 41.8193 10.5688C41.6378 10.3646 41.4313 10.1851 41.2001 10.0299C40.977 9.86662 40.7376 9.72785 40.4815 9.61355C40.2336 9.49925 39.9736 9.41352 39.7009 9.35637C39.42 9.29922 39.1433 9.27065 38.8709 9.27065ZM60.1415 13.312C60.1042 12.7976 59.9805 12.2955 59.7574 11.8424C59.5222 11.3771 59.2126 10.9607 58.8285 10.6178C58.4444 10.2748 57.9986 10.0054 57.5027 9.82171C57.0196 9.65026 56.4993 9.56453 55.9914 9.58904C55.4339 9.60128 54.8767 9.71151 54.3688 9.93194C53.8605 10.1524 53.4023 10.4708 53.0058 10.8627C52.622 11.2668 52.3244 11.7322 52.1141 12.2465C51.9159 12.7609 51.8166 13.2997 51.829 13.8508C51.829 16.4348 53.6378 18.2718 56.7224 18.2718H62.5944C62.2351 18.8107 61.8262 19.3128 61.3431 19.7414C60.8601 20.1823 60.3273 20.5619 59.7574 20.8559C59.1878 21.162 58.5806 21.3947 57.9489 21.5539C57.3168 21.7131 56.6728 21.7866 56.0163 21.7743C52.7955 21.7743 49.8963 19.8639 48.6575 16.9247C47.4314 13.9855 48.1127 10.6055 50.3918 8.35213C52.6589 6.11102 56.0908 5.43745 59.0636 6.64989C62.0369 7.86229 63.9819 10.7402 63.9819 13.9121C63.9819 14.1244 63.9695 14.3325 63.9447 14.5366C63.9284 14.7407 63.9035 14.9449 63.8705 15.149C63.8372 15.3613 63.8003 15.5654 63.7588 15.7613C63.7095 15.9654 63.6556 16.1654 63.5978 16.3614H54.7277V15.5041L57.8496 15.4061C59.4353 15.3449 60.1415 14.5489 60.1415 13.312ZM72.1334 21.7131C71.679 21.7131 71.2332 21.6682 70.7956 21.5784C70.3494 21.4804 69.9199 21.3416 69.507 21.162C69.0942 20.9824 68.7058 20.762 68.3426 20.5007C67.9709 20.2313 67.6322 19.9333 67.3268 19.6067C67.1616 19.4271 67.0048 19.2434 66.8558 19.0556C66.7157 18.8597 66.5792 18.6597 66.4473 18.4555C66.3149 18.2433 66.1993 18.031 66.1004 17.8187C65.9929 17.5983 65.894 17.3738 65.8028 17.1452C65.712 16.8921 65.6297 16.6308 65.5552 16.3614C65.4807 16.1001 65.4191 15.8307 65.3694 15.5531C65.3197 15.2837 65.2867 15.0143 65.2704 14.7448C65.2456 14.4673 65.2332 14.1897 65.2332 13.9121C65.2332 13.6426 65.2456 13.3692 65.2704 13.0915C65.2867 12.814 65.3197 12.5405 65.3694 12.271C65.4191 12.0016 65.4807 11.7322 65.5552 11.4628C65.6297 11.2015 65.712 10.9403 65.8028 10.679C65.894 10.4504 65.9929 10.2299 66.1004 10.0177C66.1993 9.79724 66.3149 9.58498 66.4473 9.38084C66.5792 9.17675 66.7157 8.97672 66.8558 8.78076C67.0048 8.58484 67.1616 8.40111 67.3268 8.22966C67.6322 7.89493 67.9709 7.59694 68.3426 7.33569C68.7058 7.07441 69.0942 6.85398 69.507 6.67436C69.9199 6.4866 70.3494 6.34779 70.7956 6.258C71.2332 6.16817 71.679 6.11919 72.1334 6.11102C72.6785 6.11102 73.2113 6.19674 73.7192 6.34373C74.2395 6.5029 74.7225 6.72334 75.1683 7.01726C75.6145 7.31118 76.0231 7.66632 76.37 8.07048C76.7048 8.48684 76.9896 8.93998 77.2003 9.42982C77.2251 9.47881 77.262 9.50331 77.2868 9.50331C77.3365 9.50331 77.3613 9.46657 77.3613 9.39308V0.134712H81.2262V21.2967H77.3613V18.4311C77.3613 18.3698 77.3365 18.3208 77.2868 18.3208C77.262 18.3208 77.2251 18.3576 77.2003 18.4065C76.9896 18.8964 76.7048 19.3495 76.37 19.7537C76.0231 20.17 75.6145 20.5252 75.1683 20.8191C74.7225 21.1008 74.2395 21.3335 73.7192 21.4804C73.2113 21.6396 72.6785 21.7131 72.1334 21.7131ZM73.1988 9.27065C72.9179 9.27065 72.6413 9.29922 72.3689 9.35637C72.0961 9.41352 71.8319 9.49925 71.5758 9.61355C71.3198 9.72785 71.0804 9.86662 70.8573 10.0299C70.6345 10.1932 70.4277 10.3769 70.238 10.581C70.0316 10.8096 69.8496 11.0546 69.6929 11.3158C69.5276 11.5689 69.3914 11.8383 69.2839 12.1241C69.1768 12.4098 69.0981 12.7038 69.0488 13.0058C68.991 13.3079 68.9661 13.61 68.9743 13.9121C68.9661 14.2223 68.991 14.5285 69.0488 14.8306C69.0981 15.1245 69.1768 15.4143 69.2839 15.7001C69.3914 15.9858 69.5276 16.2593 69.6929 16.5206C69.8496 16.7819 70.0316 17.0268 70.238 17.2554C70.4277 17.4595 70.6345 17.6432 70.8573 17.8065C71.0804 17.9697 71.3198 18.1086 71.5758 18.2229C71.8319 18.3372 72.0961 18.4229 72.3689 18.48C72.6413 18.5372 72.9179 18.5658 73.1988 18.5658C73.4798 18.5658 73.7521 18.5331 74.0164 18.4678C74.2887 18.4106 74.5533 18.3249 74.809 18.2106C75.0651 18.0963 75.3049 17.9616 75.5276 17.8065C75.7507 17.6432 75.9571 17.4595 76.1473 17.2554C76.3537 17.0268 76.5353 16.7819 76.6924 16.5206C76.8573 16.2675 76.9939 15.998 77.101 15.7123C77.2084 15.4265 77.2911 15.1327 77.3489 14.8306C77.3986 14.5285 77.423 14.2223 77.423 13.9121C77.423 13.61 77.3986 13.3079 77.3489 13.0058C77.2911 12.7038 77.2084 12.4098 77.101 12.1241C76.9939 11.8383 76.8573 11.5648 76.6924 11.3036C76.5353 11.0504 76.3537 10.8096 76.1473 10.581C75.9571 10.3769 75.7507 10.1932 75.5276 10.0299C75.3049 9.86662 75.0651 9.73192 74.809 9.62579C74.5533 9.51149 74.293 9.42576 74.0288 9.36861C73.7564 9.30329 73.4798 9.27065 73.1988 9.27065ZM84.0012 6.52741H87.8664V21.2967H84.0012V6.52741ZM85.9338 4.45775C85.6366 4.45775 85.3518 4.3965 85.079 4.2863C84.8066 4.17607 84.5587 4.00461 84.348 3.79643C84.1377 3.58823 83.9643 3.34331 83.8525 3.08613C83.7412 2.8167 83.6791 2.52279 83.6791 2.22887C83.6791 1.93495 83.7412 1.65328 83.8525 1.38386C83.9767 1.11443 84.1377 0.869504 84.348 0.661314C84.5587 0.453121 84.8066 0.293917 85.079 0.183698C85.3518 0.0612325 85.6366 0.0122465 85.9338 0C86.2314 0.0122465 86.5162 0.0612325 86.7885 0.183698C87.0613 0.293917 87.3088 0.453121 87.5195 0.661314C87.7302 0.869504 87.8912 1.11443 88.015 1.38386C88.1268 1.65328 88.1884 1.93495 88.1884 2.22887C88.1884 2.52279 88.1268 2.8167 88.015 3.08613C87.8912 3.34331 87.7302 3.58823 87.5195 3.79643C87.3088 4.00461 87.0613 4.17607 86.7885 4.2863C86.5162 4.3965 86.2314 4.45775 85.9338 4.45775ZM96.6992 21.7131C96.2449 21.7131 95.7991 21.6682 95.3614 21.5784C94.9152 21.4804 94.4861 21.3416 94.0729 21.162C93.66 20.9824 93.272 20.762 92.9085 20.5007C92.5368 20.2313 92.198 19.9333 91.8927 19.6067C91.7274 19.4271 91.5706 19.2434 91.422 19.0556C91.273 18.8597 91.1369 18.6597 91.0131 18.4555C90.8808 18.2433 90.7613 18.031 90.6538 17.8187C90.5463 17.5983 90.4517 17.3738 90.369 17.1452C90.2697 16.8921 90.187 16.6308 90.1211 16.3614C90.047 16.1001 89.9849 15.8307 89.9352 15.5531C89.8856 15.2837 89.8526 15.0143 89.8363 14.7448C89.8114 14.4673 89.799 14.1897 89.799 13.9121C89.799 13.6426 89.8114 13.3692 89.8363 13.0915C89.8526 12.814 89.8856 12.5405 89.9352 12.271C89.9849 12.0016 90.047 11.7322 90.1211 11.4628C90.187 11.2015 90.2697 10.9403 90.369 10.679C90.4517 10.4504 90.5463 10.2299 90.6538 10.0177C90.7613 9.79724 90.8808 9.58498 91.0131 9.38084C91.1369 9.17675 91.273 8.97672 91.422 8.78076C91.5706 8.58484 91.7274 8.40111 91.8927 8.22966C92.198 7.89493 92.5368 7.59694 92.9085 7.33569C93.272 7.07441 93.66 6.85398 94.0729 6.67436C94.4861 6.4866 94.9152 6.34779 95.3614 6.258C95.7991 6.16817 96.2449 6.11919 96.6992 6.11102C97.2319 6.11102 97.7771 6.19674 98.285 6.34373C98.8053 6.5029 99.2884 6.72334 99.7346 7.01726C100.18 7.31118 100.589 7.66632 100.924 8.07048C101.271 8.48684 101.555 8.93998 101.766 9.42982C101.791 9.47881 101.816 9.50331 101.853 9.50331C101.89 9.50331 101.927 9.46657 101.927 9.39308V6.52741H105.792V21.2967H101.927V18.4311C101.927 18.3698 101.89 18.3208 101.853 18.3208C101.816 18.3208 101.791 18.3576 101.766 18.4065C101.555 18.8964 101.271 19.3495 100.924 19.7537C100.589 20.17 100.18 20.5252 99.7346 20.8191C99.2884 21.1008 98.8053 21.3335 98.285 21.4804C97.7771 21.6396 97.2319 21.7131 96.6992 21.7131ZM97.7647 9.27065C97.4838 9.27065 97.2071 9.29922 96.9347 9.35637C96.662 9.41352 96.3977 9.49925 96.1417 9.61355C95.8856 9.72785 95.6462 9.86662 95.4231 10.0299C95.2004 10.1851 94.994 10.3646 94.8038 10.5688C94.5974 10.7974 94.4158 11.0423 94.2587 11.3036C94.0938 11.5648 93.9572 11.8383 93.8501 12.1241C93.7427 12.4098 93.6643 12.7038 93.6146 13.0058C93.5568 13.3079 93.532 13.61 93.5401 13.9121C93.532 14.2223 93.5568 14.5244 93.6146 14.8183C93.6643 15.1204 93.7427 15.4143 93.8501 15.7001C93.9572 15.9858 94.0938 16.2593 94.2587 16.5206C94.4158 16.7819 94.5974 17.0268 94.8038 17.2554C94.994 17.4595 95.2004 17.6432 95.4231 17.8065C95.6462 17.9697 95.8856 18.1086 96.1417 18.2229C96.3977 18.329 96.662 18.4147 96.9347 18.48C97.2071 18.5372 97.4838 18.5658 97.7647 18.5658C98.0456 18.5576 98.318 18.5249 98.5822 18.4678C98.8549 18.4106 99.1192 18.3249 99.3753 18.2106C99.6313 18.0963 99.8707 17.9575 100.094 17.7942C100.317 17.6391 100.523 17.4595 100.713 17.2554C100.92 17.0268 101.101 16.7819 101.258 16.5206C101.424 16.2593 101.56 15.9858 101.667 15.7001C101.774 15.4143 101.857 15.1204 101.915 14.8183C101.964 14.5244 101.989 14.2223 101.989 13.9121C101.989 13.61 101.964 13.3079 101.915 13.0058C101.857 12.7038 101.774 12.4098 101.667 12.1241C101.56 11.8383 101.424 11.5648 101.258 11.3036C101.101 11.0423 100.92 10.8014 100.713 10.581C100.523 10.3769 100.317 10.1932 100.094 10.0299C99.8707 9.86662 99.6313 9.73192 99.3753 9.62579C99.1192 9.51149 98.8549 9.42576 98.5822 9.36861C98.318 9.30329 98.0456 9.27065 97.7647 9.27065ZM121.067 27.7262C120.745 27.7343 120.419 27.7221 120.088 27.6894C119.758 27.6649 119.432 27.6241 119.11 27.567C118.788 27.5098 118.47 27.4363 118.156 27.3465C117.834 27.2649 117.52 27.1669 117.214 27.0526C116.925 26.9465 116.644 26.824 116.372 26.6852C116.099 26.5546 115.831 26.4117 115.566 26.2566C115.302 26.0933 115.05 25.9218 114.811 25.7422C114.563 25.5544 114.328 25.3585 114.105 25.1544L116.421 22.6683C117.92 23.844 119.147 24.5176 121.005 24.5176C121.294 24.5339 121.583 24.5176 121.872 24.4686C122.153 24.4196 122.43 24.342 122.702 24.2359C122.966 24.1216 123.218 23.9787 123.458 23.8073C123.689 23.6358 123.9 23.4399 124.09 23.2194C124.255 22.999 124.399 22.7622 124.523 22.5091C124.647 22.2642 124.75 22.007 124.833 21.7376C124.916 21.4682 124.974 21.1988 125.007 20.9293C125.04 20.6518 125.048 20.3742 125.031 20.0966V18.3086C125.031 18.2473 125.007 18.1984 124.969 18.1984C124.932 18.1984 124.907 18.2229 124.87 18.2841C124.672 18.7617 124.399 19.2148 124.052 19.6189C123.718 20.0353 123.321 20.3905 122.888 20.6722C122.442 20.9661 121.959 21.1988 121.451 21.358C120.943 21.5049 120.41 21.5906 119.878 21.5906C119.432 21.5906 118.99 21.5417 118.552 21.4437C118.114 21.3539 117.689 21.2192 117.276 21.0395C116.863 20.8599 116.475 20.6395 116.112 20.3782C115.748 20.117 115.418 19.8231 115.121 19.4965C114.955 19.325 114.799 19.1413 114.65 18.9454C114.501 18.7576 114.365 18.5617 114.241 18.3576C114.117 18.1534 114.002 17.9412 113.894 17.7207C113.787 17.5085 113.692 17.288 113.609 17.0594C113.51 16.8063 113.427 16.5492 113.361 16.2879C113.287 16.0185 113.225 15.749 113.176 15.4796C113.135 15.2102 113.101 14.9408 113.077 14.6713C113.052 14.4019 113.039 14.1284 113.039 13.8508C113.039 13.5814 113.052 13.3079 113.077 13.0303C113.101 12.7609 113.135 12.4915 113.176 12.222C113.225 11.9526 113.287 11.6873 113.361 11.426C113.427 11.1566 113.51 10.8953 113.609 10.6422C113.692 10.4137 113.787 10.1932 113.894 9.98093C114.002 9.76866 114.117 9.5564 114.241 9.3441C114.365 9.14001 114.501 8.94404 114.65 8.75629C114.799 8.5685 114.955 8.38481 115.121 8.20519C115.418 7.87862 115.748 7.5847 116.112 7.32342C116.475 7.06218 116.863 6.84174 117.276 6.66212C117.689 6.4825 118.114 6.34779 118.552 6.258C118.99 6.16817 119.432 6.11919 119.878 6.11102C120.41 6.12325 120.943 6.19674 121.451 6.35596C121.959 6.5029 122.442 6.73561 122.876 7.0295C123.321 7.32342 123.718 7.6786 124.052 8.08272C124.399 8.48684 124.672 8.93998 124.87 9.42982C124.895 9.47881 124.932 9.50331 124.969 9.50331C125.007 9.50331 125.031 9.46657 125.031 9.39308V6.52741H128.909V20.4395C128.917 20.9212 128.88 21.3947 128.797 21.8601C128.715 22.3336 128.582 22.7949 128.401 23.2439C128.227 23.6848 128.009 24.1053 127.744 24.5053C127.488 24.9136 127.191 25.2891 126.852 25.632C125.44 27.0036 123.446 27.7262 121.067 27.7262ZM120.943 9.27065C120.671 9.27065 120.398 9.29922 120.125 9.35637C119.861 9.41352 119.601 9.49925 119.345 9.61355C119.097 9.71968 118.862 9.85439 118.639 10.0177C118.416 10.1728 118.213 10.3524 118.032 10.5565C117.825 10.777 117.644 11.0178 117.487 11.2791C117.33 11.5403 117.198 11.8097 117.09 12.0873C116.983 12.3731 116.904 12.6629 116.855 12.9568C116.805 13.2508 116.781 13.5487 116.781 13.8508C116.781 14.1529 116.805 14.4509 116.855 14.7448C116.904 15.0469 116.983 15.3368 117.09 15.6143C117.198 15.9001 117.33 16.1695 117.487 16.4226C117.644 16.6839 117.825 16.9247 118.032 17.1452C118.213 17.3493 118.416 17.5289 118.639 17.684C118.862 17.8473 119.097 17.9861 119.345 18.1004C119.601 18.2065 119.861 18.2882 120.125 18.3453C120.398 18.4025 120.671 18.4311 120.943 18.4311C121.216 18.4311 121.484 18.4025 121.748 18.3453C122.021 18.2882 122.281 18.2025 122.529 18.0882C122.777 17.9739 123.012 17.8391 123.235 17.684C123.458 17.5289 123.66 17.3493 123.842 17.1452C124.049 16.9247 124.23 16.6839 124.387 16.4226C124.544 16.1695 124.676 15.9001 124.783 15.6143C124.899 15.3368 124.982 15.0469 125.031 14.7448C125.081 14.4509 125.105 14.1529 125.105 13.8508C125.105 13.5487 125.081 13.2508 125.031 12.9568C124.974 12.6548 124.891 12.3649 124.783 12.0873C124.676 11.8016 124.544 11.5322 124.387 11.2791C124.23 11.0178 124.049 10.777 123.842 10.5565C123.66 10.3606 123.458 10.181 123.235 10.0177C123.012 9.86256 122.777 9.72785 122.529 9.61355C122.281 9.50738 122.021 9.42165 121.748 9.35637C121.484 9.29922 121.216 9.27065 120.943 9.27065ZM135.549 6.52741V9.74826C135.549 9.80947 135.611 9.84622 135.648 9.74826C136.156 7.10299 137.32 6.11102 139.315 6.11102H139.674V10.1279H137.927C136.354 10.1279 135.549 11.3403 135.549 13.0548V21.2967H131.671V6.52741H135.549ZM147.9 21.7743C145.782 21.7988 143.738 20.9783 142.226 19.4965C140.715 18.0269 139.872 16.0062 139.872 13.9121C139.872 11.8179 140.715 9.80947 142.226 8.32766C143.738 6.85804 145.782 6.03753 147.9 6.0498C148.42 6.0498 148.936 6.10285 149.449 6.20898C149.96 6.30698 150.456 6.45392 150.935 6.64989C151.414 6.84581 151.868 7.09075 152.298 7.38467C152.735 7.67043 153.136 7.99699 153.499 8.36441C154.243 9.08692 154.825 9.95645 155.221 10.9117C155.63 11.8669 155.828 12.8834 155.828 13.9121C155.828 14.953 155.63 15.9695 155.221 16.9247C154.825 17.88 154.243 18.7372 153.499 19.472C153.136 19.8394 152.735 20.166 152.298 20.4517C151.868 20.7375 151.414 20.9783 150.935 21.1743C150.456 21.3784 149.96 21.5294 149.449 21.6274C148.936 21.7254 148.42 21.7743 147.9 21.7743ZM147.875 9.52782C147.594 9.52782 147.318 9.5523 147.045 9.60128C146.773 9.65843 146.508 9.74009 146.252 9.84622C145.988 9.96052 145.744 10.0952 145.521 10.2503C145.29 10.4055 145.079 10.5851 144.89 10.7892C144.691 10.9933 144.514 11.2178 144.357 11.4628C144.2 11.7077 144.068 11.9649 143.96 12.2343C143.853 12.5037 143.774 12.7772 143.725 13.0548C143.667 13.3406 143.643 13.6263 143.651 13.9121C143.643 14.206 143.667 14.4917 143.725 14.7693C143.774 15.0551 143.853 15.3327 143.96 15.6021C144.068 15.8715 144.2 16.1246 144.357 16.3614C144.514 16.6063 144.691 16.8349 144.89 17.0472C145.274 17.4391 145.732 17.7575 146.252 17.9779C146.76 18.1983 147.305 18.3086 147.875 18.3086C148.432 18.3086 148.978 18.1983 149.498 17.9779C150.006 17.7575 150.464 17.4391 150.849 17.0472C151.046 16.8349 151.224 16.6063 151.381 16.3614C151.538 16.1246 151.67 15.8715 151.777 15.6021C151.885 15.3327 151.963 15.0551 152.013 14.7693C152.071 14.4917 152.096 14.206 152.087 13.9121C152.096 13.6263 152.071 13.3406 152.013 13.0548C151.963 12.7772 151.885 12.5037 151.777 12.2343C151.67 11.9649 151.538 11.7077 151.381 11.4628C151.224 11.2178 151.046 10.9933 150.849 10.7892C150.658 10.5851 150.448 10.4055 150.216 10.2503C149.993 10.0952 149.754 9.96052 149.498 9.84622C149.242 9.74009 148.974 9.65843 148.693 9.60128C148.42 9.5523 148.148 9.52782 147.875 9.52782ZM163.856 21.7743C160.09 21.7743 157.674 19.521 157.674 16.2022V6.52741H161.539V15.9205C161.515 16.2389 161.564 16.5573 161.676 16.8635C161.787 17.1696 161.96 17.4391 162.196 17.6718C162.419 17.8922 162.691 18.0759 163.001 18.1861C163.299 18.3086 163.633 18.3576 163.955 18.3331C164.265 18.3453 164.587 18.2841 164.872 18.1616C165.157 18.0392 165.417 17.8677 165.64 17.635C165.863 17.4146 166.024 17.1574 166.135 16.8635C166.247 16.5696 166.296 16.2634 166.272 15.945V6.52741H170.149V16.2022C170.149 19.521 167.535 21.7743 163.856 21.7743ZM176.69 27.3833H172.825V6.52741H176.69V9.39308C176.69 9.46657 176.715 9.50331 176.752 9.50331C176.789 9.50331 176.827 9.47881 176.851 9.42982C177.062 8.93998 177.335 8.48684 177.681 8.07048C178.028 7.66632 178.424 7.31118 178.871 7.01726C179.329 6.72334 179.812 6.5029 180.332 6.34373C180.84 6.19674 181.373 6.11102 181.906 6.11102C182.36 6.11919 182.81 6.16817 183.256 6.258C183.694 6.34779 184.123 6.4866 184.544 6.67436C184.957 6.85398 185.346 7.07441 185.709 7.33569C186.072 7.59694 186.407 7.89493 186.712 8.22966C186.877 8.40111 187.035 8.58484 187.183 8.78076C187.332 8.97672 187.472 9.17675 187.604 9.38084C187.728 9.58498 187.844 9.79724 187.951 10.0177C188.058 10.2299 188.154 10.4504 188.236 10.679C188.335 10.9403 188.422 11.2015 188.496 11.4628C188.571 11.7322 188.628 12.0016 188.67 12.271C188.719 12.5405 188.756 12.814 188.781 13.0915C188.806 13.3692 188.814 13.6426 188.806 13.9121C188.806 14.1897 188.798 14.4673 188.781 14.7448C188.756 15.0143 188.719 15.2837 188.67 15.5531C188.62 15.8307 188.562 16.1001 188.496 16.3614C188.422 16.6308 188.335 16.8921 188.236 17.1452C188.154 17.3738 188.058 17.5983 187.951 17.8187C187.844 18.031 187.728 18.2433 187.604 18.4555C187.472 18.6597 187.332 18.8597 187.183 19.0556C187.035 19.2434 186.877 19.4271 186.712 19.6067C186.407 19.9333 186.072 20.2313 185.709 20.5007C185.346 20.762 184.957 20.9824 184.544 21.162C184.123 21.3416 183.694 21.4804 183.256 21.5784C182.81 21.6682 182.36 21.7131 181.906 21.7131C181.373 21.7131 180.84 21.6396 180.332 21.4804C179.812 21.3335 179.329 21.1008 178.871 20.8191C178.424 20.5252 178.028 20.17 177.681 19.7537C177.335 19.3495 177.062 18.8964 176.851 18.4065C176.827 18.3576 176.789 18.3208 176.752 18.3208C176.715 18.3208 176.69 18.3698 176.69 18.4311V27.3833ZM180.853 9.27065C180.572 9.27065 180.295 9.29922 180.023 9.35637C179.75 9.42165 179.49 9.50738 179.242 9.61355C178.986 9.72785 178.746 9.86662 178.524 10.0299C178.301 10.1932 178.094 10.3728 177.904 10.5688C177.698 10.7974 177.512 11.0423 177.347 11.3036C177.19 11.5648 177.054 11.8383 176.938 12.1241C176.831 12.4098 176.752 12.7038 176.702 13.0058C176.645 13.3079 176.62 13.61 176.628 13.9121C176.62 14.2141 176.645 14.5162 176.702 14.8183C176.752 15.1204 176.831 15.4143 176.938 15.7001C177.054 15.9858 177.19 16.2593 177.347 16.5206C177.512 16.7819 177.698 17.0268 177.904 17.2554C178.086 17.4595 178.293 17.6391 178.524 17.7942C178.746 17.9575 178.986 18.0963 179.242 18.2106C179.49 18.3249 179.75 18.4106 180.023 18.4678C180.295 18.5249 180.572 18.5576 180.853 18.5658C181.125 18.5658 181.398 18.5331 181.67 18.4678C181.943 18.4106 182.207 18.3249 182.463 18.2106C182.719 18.1045 182.959 17.9697 183.182 17.8065C183.413 17.6432 183.619 17.4595 183.801 17.2554C184.007 17.0268 184.193 16.7819 184.359 16.5206C184.515 16.2593 184.648 15.9858 184.755 15.7001C184.862 15.4143 184.945 15.1204 185.003 14.8183C185.052 14.5162 185.073 14.2141 185.065 13.9121C185.073 13.61 185.052 13.3079 185.003 13.0058C184.945 12.7038 184.862 12.4098 184.755 12.1241C184.648 11.8383 184.515 11.5648 184.359 11.3036C184.193 11.0423 184.007 10.7974 183.801 10.5688C183.619 10.3646 183.413 10.1851 183.182 10.0299C182.959 9.86662 182.719 9.72785 182.463 9.61355C182.207 9.49925 181.943 9.41352 181.67 9.35637C181.398 9.29922 181.125 9.27065 180.853 9.27065ZM191.544 6.57639V6.96828H190.875V8.79304H190.404V6.96828H189.735V6.57639H191.544ZM193.303 6.57639H193.972V8.79304H193.538C193.538 8.74402 193.538 7.18871 193.538 7.11522C193.538 7.04177 193.538 6.98052 193.538 6.93153L193.117 8.79304H192.659L192.238 6.93153C192.238 6.98052 192.238 7.04177 192.238 7.11522C192.238 7.19688 192.238 7.2581 192.238 7.29895V8.79304H191.804V6.57639H192.485L192.894 8.31539L193.303 6.57639Z" fill="#000099"/>
</g>
</g>
<defs>
<clipPath id="clip0_1731_1637">
<rect width="194" height="28" fill="white"/>
</clipPath>
</defs>
</svg>
