<svg width="197" height="34" viewBox="0 0 197 34" fill="none" xmlns="http://www.w3.org/2000/svg">
<g clip-path="url(#clip0_1731_1644)">
<mask id="mask0_1731_1644" style="mask-type:luminance" maskUnits="userSpaceOnUse" x="0" y="0" width="197" height="34">
<path d="M197 0H0V33.9739H197V0Z" fill="white"/>
</mask>
<g mask="url(#mask0_1731_1644)">
<path d="M56.0964 29.5755C48.3405 29.5755 42.7461 24.4675 42.7461 16.8779C42.7461 9.15051 48.5143 4.21484 55.9262 4.21484C59.7346 4.21484 63.2719 5.47632 65.2979 7.41338L61.5903 11.6011C60.4576 10.3086 58.501 9.35385 56.1315 9.35385C52.0138 9.35385 48.9937 12.5523 48.9937 16.8779C48.9937 21.3035 51.6383 24.471 56.4092 24.471C57.7819 24.471 59.0538 24.2676 60.0821 23.823V19.4319H55.4502V14.7341H65.4716V27.5006C63.0986 28.7242 59.839 29.5755 56.0964 29.5755Z" fill="#00558C"/>
<path d="M73.3078 4.21191H67.6094V28.9625H73.3078V4.21191Z" fill="#00558C"/>
<path d="M84.4413 11.4639C79.2917 11.4639 74.9688 14.8692 74.9688 20.4183C74.9688 25.9675 79.2949 29.5072 84.4413 29.5072C89.6259 29.5072 93.9485 25.9675 93.9485 20.4183C93.9485 14.8692 89.6259 11.4639 84.4413 11.4639ZM84.476 24.8094C81.8318 24.8094 80.4245 22.5966 80.4245 20.4183C80.4245 18.24 81.7968 16.0962 84.4413 16.0962C87.0858 16.0962 88.5279 18.24 88.5279 20.4183C88.5279 22.5966 87.1205 24.8094 84.476 24.8094Z" fill="#00558C"/>
<path d="M106.387 11.5327C103.882 11.5327 102.131 12.6907 101.171 13.8144H101.102V4.21191H95.4727V28.9625H100.654V26.7497H100.723C101.822 28.4524 104.052 29.4382 106.318 29.4382C111.467 29.4382 114.452 25.147 114.452 20.4148C114.452 15.6825 111.363 11.5327 106.387 11.5327ZM104.98 24.8093C102.44 24.8093 100.862 22.6654 100.862 20.4527C100.862 18.3088 102.44 16.096 104.98 16.096C107.659 16.096 109.032 18.2399 109.032 20.4182C109.028 22.631 107.656 24.8093 104.98 24.8093Z" fill="#00558C"/>
<path d="M133.43 20.6906C133.43 14.9037 129.895 11.4639 124.85 11.4639C119.666 11.4639 115.617 15.0036 115.617 20.5527C115.617 26.2742 119.874 29.5072 125.02 29.5072C128.488 29.5072 131.164 28.2147 132.776 25.8985L128.863 23.448C128.109 24.4682 126.872 25.2196 125.086 25.2196C123.06 25.2196 121.173 23.8926 121.003 22.021H133.394C133.43 21.6109 133.43 21.1352 133.43 20.6906ZM121.003 18.5468C121.139 16.8096 122.72 15.3138 124.881 15.3138C127.112 15.3138 128.245 16.7787 128.245 18.5468H121.003Z" fill="#00558C"/>
<path d="M142.391 28.9659V4.21191H148.294V23.8924H157.697V28.9659H142.391Z" fill="#00558C"/>
<path d="M162.162 9.66139C160.341 9.66139 158.938 8.26548 158.938 6.59729C158.938 4.96357 160.344 3.5332 162.162 3.5332C163.948 3.5332 165.386 4.89463 165.386 6.59729C165.39 8.33442 163.948 9.66139 162.162 9.66139Z" fill="#00558C"/>
<path d="M164.977 12.0078H159.348V28.962H164.977V12.0078Z" fill="#00558C"/>
<path d="M179.359 7.34489C178.95 7.21046 178.366 7.10705 177.816 7.10705C175.756 7.10705 175.311 8.74077 175.311 10.3056V12.0082H179.12V16.196H175.308V28.9624H169.678V16.196H166.555V12.0082H169.678V10.3745C169.678 6.22125 171.326 2.57812 177.024 2.57812C177.987 2.57812 178.981 2.68152 179.735 2.91934L179.359 7.34489Z" fill="#00558C"/>
<path d="M196.999 20.6906C196.999 14.9037 193.466 11.4639 188.42 11.4639C183.236 11.4639 179.188 15.0036 179.188 20.5527C179.188 26.2742 183.444 29.5072 188.59 29.5072C192.058 29.5072 194.734 28.2147 196.346 25.8985L192.434 23.448C191.68 24.4682 190.443 25.2196 188.657 25.2196C186.631 25.2196 184.744 23.8926 184.573 22.021H196.965C196.999 21.6109 196.999 21.1352 196.999 20.6906ZM184.573 18.5468C184.713 16.8096 186.29 15.3138 188.452 15.3138C190.682 15.3138 191.815 16.7787 191.815 18.5468H184.573Z" fill="#00558C"/>
<path d="M33.9901 14.0211C33.4064 10.7364 31.8705 7.77568 29.6779 5.43195C29.6744 5.47334 29.6675 5.51812 29.664 5.55947C29.5145 7.27592 29.869 8.92 30.7238 10.4469C31.5334 11.8979 32.7114 13.1008 33.9901 14.0211ZM25.588 28.149C26.9258 26.8013 27.8814 25.5605 28.4269 24.4576C28.9655 23.3684 29.0871 22.4654 28.7987 21.7072C28.6597 21.3418 28.3088 20.8972 27.8153 20.4629C27.2489 19.9666 26.5053 19.4806 25.6574 19.0601C24.7853 18.6258 23.8193 18.2674 22.8637 18.0227C21.8629 17.7641 20.9073 17.6366 20.0212 17.6366C19.0934 17.6366 18.2943 17.7814 17.6549 18.064C17.3665 18.1916 17.0641 18.2536 16.7479 18.2536C16.1919 18.2536 15.6603 18.0502 15.2502 17.678L13.1931 15.8237C12.9047 15.5652 12.7032 15.2309 12.6094 14.8586C12.5225 14.5139 12.5329 14.1521 12.6372 13.8108C12.7414 13.4696 12.9395 13.1663 13.2036 12.9285C13.492 12.6734 13.8464 12.508 14.2322 12.4528C14.3016 12.4425 14.3746 12.4322 14.4476 12.4218C15.4935 12.277 16.5742 12.1254 17.6514 11.2982C19.0205 10.247 20.1463 8.25133 20.9977 5.36649C21.4147 3.94642 21.6788 2.23 21.8664 0.661761C20.3583 0.230927 18.7703 0 17.1232 0C12.4634 0 8.2415 1.84742 5.15234 4.84258C5.62144 5.03903 6.04192 5.31823 6.39983 5.68011C6.87932 6.16611 7.38321 7.0312 7.04264 8.39265C6.88283 9.03716 6.57354 9.66448 6.24345 10.3262C5.54154 11.7463 5.11413 12.7355 5.54847 13.5351C5.81604 14.0038 6.64304 15.0585 9.1936 16.9059C10.8441 18.102 12.5225 19.1256 13.3739 19.6323C13.8047 19.8873 14.1383 20.2665 14.3329 20.7283C14.5275 21.1902 14.5692 21.6899 14.4476 22.1793C14.2669 22.9066 14.1279 23.6649 14.3051 24.2612C14.3746 24.4921 14.5831 25.2021 16.1746 25.7604C16.7479 25.9638 17.2031 26.3981 17.4255 26.9599C17.6479 27.5182 17.6167 28.149 17.3352 28.6832C16.8348 29.6414 15.7924 31.6232 14.6074 33.7981C15.4275 33.9187 16.2649 33.9808 17.1197 33.9808C17.5715 33.9808 18.0197 33.9635 18.461 33.9291C20.4904 32.4918 23.3536 30.3962 25.588 28.149Z" fill="#319B42"/>
<path d="M15.6368 27.2704C12.0612 26.009 12.4504 23.5308 12.8813 21.7937C12.9578 21.4904 12.8222 21.1698 12.5512 21.0113C10.9284 20.0497 5.49721 16.7167 4.13854 14.3144C2.53317 11.4088 6.6335 8.20687 5.24702 6.80752C4.89261 6.44907 4.44436 6.23882 3.93701 6.15956C1.47681 9.09611 0 12.8702 0 16.9856C0 24.937 5.51111 31.6133 12.9508 33.4641C14.2469 31.0963 15.404 28.8938 15.9044 27.9391C16.0365 27.684 15.9114 27.367 15.6368 27.2704ZM34.2273 16.0963C32.1216 14.8659 30.3737 13.1425 29.3069 11.2296C28.2957 9.41668 27.8718 7.46239 28.0525 5.42196C28.0907 4.97734 28.1602 4.52928 28.2575 4.07778C26.8328 2.86798 25.2066 1.88568 23.4344 1.18945C23.2399 2.73011 22.9723 4.38797 22.5518 5.81487C20.3036 13.4424 16.7071 13.7181 14.4624 14.0387C14.174 14.08 14.0627 14.435 14.2782 14.628L16.3353 16.4824C16.45 16.5858 16.5959 16.6409 16.7453 16.6409C16.8287 16.6409 16.9121 16.6237 16.992 16.5892C17.8781 16.1963 18.9171 16.0239 20.0186 16.0239C24.2336 16.0239 29.3417 18.5745 30.3146 21.1423C31.7949 25.0473 26.5375 29.883 22.1418 33.2332C29.154 31.1066 34.2516 24.6372 34.2516 16.9856C34.2516 16.6891 34.2447 16.3893 34.2273 16.0963Z" fill="#00558C"/>
<path d="M33.9898 14.021C34.1114 14.6999 34.1913 15.3893 34.2261 16.0924C32.1203 14.8619 30.3725 13.1386 29.3057 11.2257C28.2945 9.41275 27.8706 7.45849 28.0513 5.41806C28.0895 4.97344 28.159 4.52538 28.2563 4.07385C28.7567 4.49779 29.2327 4.94933 29.6775 5.42842C29.674 5.46976 29.6671 5.51455 29.6636 5.55593C29.5142 7.27239 29.8686 8.91642 30.7235 10.4433C31.5331 11.8978 32.7111 13.1007 33.9898 14.021ZM17.3418 28.6796C17.6198 28.1454 17.6545 27.5181 17.4321 26.9563C17.2097 26.3945 16.7545 25.9602 16.1812 25.7569C14.5897 25.1951 14.3812 24.4885 14.3117 24.2576C14.1345 23.6613 14.277 22.903 14.4542 22.1758C14.5758 21.6898 14.5341 21.1866 14.3395 20.7247C14.1449 20.2629 13.8113 19.8872 13.3804 19.6287C12.5291 19.1255 10.8507 18.1018 9.20019 16.9024C6.64963 15.0549 5.81915 13.9968 5.55506 13.5315C5.12071 12.7319 5.54812 11.7427 6.25003 10.3227C6.57666 9.66091 6.88942 9.03363 7.04926 8.38911C7.38629 7.02767 6.88591 6.16254 6.40641 5.67658C6.0485 5.31465 5.62803 5.03546 5.15893 4.839C4.73152 5.25607 4.32148 5.69381 3.93926 6.15218C4.45004 6.23492 4.89483 6.44173 5.24927 6.80018C6.63572 8.19953 2.53541 11.4015 4.14079 14.307C5.49946 16.7128 10.9307 20.0458 12.5534 21.0039C12.8245 21.1659 12.96 21.483 12.8835 21.7863C12.4561 23.5269 12.0635 26.0016 15.6391 27.2631C15.9136 27.3596 16.0387 27.6732 15.9067 27.9317C15.4063 28.8865 14.2491 31.0889 12.953 33.4568C13.4986 33.5912 14.0511 33.7014 14.6175 33.7842C15.7989 31.6162 16.8379 29.6378 17.3418 28.6796ZM30.3134 21.1418C29.3404 18.574 24.2324 16.0235 20.0174 16.0235C18.9193 16.0235 17.8804 16.1958 16.9908 16.5887C16.9109 16.6232 16.8275 16.6404 16.7441 16.6404C16.5947 16.6404 16.4487 16.5853 16.3341 16.4819L14.277 14.6276C14.0615 14.4345 14.1727 14.0761 14.4611 14.0382C16.7059 13.7177 20.3024 13.4419 22.5506 5.81441C22.971 4.38751 23.2386 2.72966 23.4332 1.18899C22.9224 0.989086 22.4012 0.809859 21.866 0.658203C21.6784 2.22644 21.4143 3.94289 20.9973 5.36292C20.1494 8.2478 19.0236 10.2434 17.651 11.2946C16.5738 12.1184 15.4932 12.27 14.4472 12.4183C14.3742 12.4286 14.3047 12.4389 14.2318 12.4493C13.8461 12.5044 13.4916 12.6699 13.2032 12.9249C12.9357 13.1628 12.7411 13.4661 12.6368 13.8073C12.5326 14.1485 12.5222 14.5104 12.609 14.8551C12.7028 15.2273 12.9044 15.5616 13.1928 15.8201L15.2499 17.6744C15.6599 18.0467 16.1916 18.25 16.7476 18.25C17.0603 18.25 17.3661 18.1846 17.6545 18.0605C18.2974 17.7778 19.0931 17.6331 20.0209 17.6331C20.907 17.6331 21.866 17.764 22.8633 18.0191C23.8189 18.2638 24.7849 18.6223 25.6571 19.0566C26.5015 19.4771 27.2486 19.963 27.815 20.4593C28.3119 20.8971 28.6628 21.3383 28.7984 21.7036C29.0868 22.4653 28.9652 23.3649 28.4266 24.454C27.8845 25.557 26.9289 26.7978 25.5876 28.1454C23.3533 30.3961 20.49 32.4882 18.4642 33.9186C19.7325 33.8221 20.9626 33.5877 22.1371 33.2293C26.5362 29.8825 31.7937 25.0469 30.3134 21.1418Z" fill="white"/>
</g>
</g>
<defs>
<clipPath id="clip0_1731_1644">
<rect width="197" height="34" fill="white"/>
</clipPath>
</defs>
</svg>
