<svg width="34" height="34" viewBox="0 0 34 34" fill="none" xmlns="http://www.w3.org/2000/svg">
<g clip-path="url(#clip0_1352_1312)">
<path d="M8.45378 13.0113C8.40892 13.0647 8.37502 13.1265 8.35402 13.193C8.33302 13.2596 8.32534 13.3296 8.3314 13.3991C8.33747 13.4686 8.35717 13.5362 8.38938 13.5981C8.42159 13.66 8.46568 13.715 8.51912 13.7598L9.12209 14.2658C9.22998 14.3565 9.36946 14.4005 9.50984 14.3883C9.65021 14.3761 9.77999 14.3086 9.87063 14.2008C9.96126 14.0929 10.0053 13.9534 9.99311 13.813C9.98091 13.6726 9.91344 13.5429 9.80555 13.4522L9.20258 12.9459C9.14913 12.901 9.08736 12.8671 9.0208 12.8461C8.95423 12.8251 8.88418 12.8174 8.81464 12.8234C8.7451 12.8295 8.67743 12.8492 8.61552 12.8814C8.5536 12.9137 8.49864 12.9578 8.45378 13.0113ZM7.93741 16.3202L7.19764 16.0508C7.06549 16.0035 6.91999 16.0104 6.79292 16.0701C6.66585 16.1297 6.56753 16.2372 6.51946 16.369C6.47138 16.5009 6.47745 16.6465 6.53634 16.7739C6.59522 16.9013 6.70214 17.0002 6.83373 17.0491L7.57377 17.3187C7.70621 17.3669 7.85238 17.3605 7.98013 17.301C8.10788 17.2414 8.20674 17.1335 8.25496 17.0011C8.30318 16.8687 8.29682 16.7225 8.23726 16.5947C8.17771 16.467 8.06985 16.3681 7.93741 16.3199V16.3202ZM5.84375 20.1856C5.84375 20.3264 5.89972 20.4616 5.99935 20.5612C6.09898 20.6608 6.2341 20.7168 6.375 20.7168H7.16231C7.30321 20.7168 7.43833 20.6608 7.53796 20.5612C7.63759 20.4616 7.69356 20.3264 7.69356 20.1856C7.69356 20.0447 7.63759 19.9095 7.53796 19.8099C7.43833 19.7103 7.30321 19.6543 7.16231 19.6543H6.375C6.2341 19.6543 6.09898 19.7103 5.99935 19.8099C5.89972 19.9095 5.84375 20.0447 5.84375 20.1856ZM7.01569 24.3527C7.07776 24.3526 7.13934 24.3416 7.19764 24.3203L7.93741 24.0509C8.06981 24.0027 8.17763 23.9038 8.23713 23.776C8.29663 23.6483 8.30295 23.5021 8.2547 23.3697C8.20644 23.2373 8.10756 23.1295 7.97981 23.07C7.85206 23.0105 7.70591 23.0042 7.5735 23.0524L6.834 23.3221C6.71652 23.3647 6.61784 23.4474 6.5553 23.5556C6.49276 23.6638 6.47037 23.7906 6.49207 23.9137C6.51376 24.0367 6.57816 24.1482 6.67393 24.2285C6.7697 24.3088 6.89071 24.3528 7.01569 24.3527ZM8.45378 27.3596C8.49862 27.4131 8.55356 27.4572 8.61547 27.4895C8.67738 27.5217 8.74504 27.5414 8.81458 27.5475C8.88412 27.5536 8.95418 27.546 9.02076 27.525C9.08733 27.504 9.14912 27.47 9.20258 27.4252L9.80555 26.9189C9.86003 26.8744 9.90512 26.8195 9.93821 26.7574C9.9713 26.6953 9.99173 26.6272 9.99831 26.5572C10.0049 26.4871 9.99747 26.4164 9.97652 26.3493C9.95556 26.2821 9.92147 26.2198 9.87622 26.1659C9.83098 26.112 9.77548 26.0676 9.71294 26.0354C9.65041 26.0031 9.5821 25.9836 9.51196 25.978C9.44183 25.9723 9.37127 25.9807 9.30439 26.0025C9.23751 26.0244 9.17563 26.0593 9.12236 26.1053L8.51939 26.6113C8.46593 26.6561 8.42182 26.7111 8.38958 26.7729C8.35735 26.8348 8.33762 26.9024 8.33153 26.972C8.32544 27.0415 8.3331 27.1115 8.35407 27.178C8.37505 27.2446 8.40893 27.3061 8.45378 27.3596ZM11.4219 29.8516C11.4823 29.8866 11.549 29.9092 11.6182 29.9184C11.6873 29.9275 11.7576 29.9229 11.825 29.9048C11.8924 29.8868 11.9556 29.8556 12.0109 29.8131C12.0663 29.7706 12.1127 29.7176 12.1476 29.6572L12.5415 28.9751C12.6119 28.853 12.631 28.708 12.5945 28.5719C12.558 28.4358 12.469 28.3197 12.3469 28.2493C12.2249 28.1788 12.0798 28.1597 11.9437 28.1962C11.8076 28.2327 11.6915 28.3218 11.6211 28.4438L11.2274 29.126C11.157 29.248 11.1379 29.393 11.1744 29.5291C11.2108 29.6652 11.2999 29.7812 11.4219 29.8516ZM21.6532 28.2494C21.5928 28.2843 21.5398 28.3307 21.4973 28.386C21.4548 28.4414 21.4236 28.5045 21.4056 28.5719C21.3875 28.6393 21.3828 28.7096 21.3919 28.7788C21.401 28.8479 21.4236 28.9146 21.4585 28.9751L21.8524 29.6572C21.9234 29.7782 22.0393 29.8663 22.1749 29.9021C22.3106 29.938 22.4549 29.9187 22.5764 29.8486C22.6979 29.7785 22.7867 29.6631 22.8234 29.5277C22.8602 29.3923 22.8419 29.2479 22.7726 29.126L22.3789 28.4438C22.3441 28.3834 22.2977 28.3304 22.2423 28.2879C22.187 28.2453 22.1238 28.2142 22.0564 28.1961C21.989 28.1781 21.9187 28.1735 21.8495 28.1826C21.7803 28.1917 21.7136 28.2144 21.6532 28.2494ZM24.1945 26.9191L24.7974 27.4254C24.8509 27.4703 24.9126 27.5042 24.9792 27.5252C25.0457 27.5462 25.1157 27.5539 25.1853 27.5479C25.2548 27.5418 25.3224 27.5221 25.3843 27.4899C25.4462 27.4577 25.5012 27.4137 25.5461 27.3602C25.591 27.3068 25.6249 27.245 25.6459 27.1785C25.6669 27.1119 25.6746 27.0419 25.6685 26.9724C25.6625 26.9029 25.6428 26.8352 25.6106 26.7733C25.5784 26.7114 25.5343 26.6564 25.4809 26.6116L24.8779 26.1055C24.77 26.0149 24.6305 25.9708 24.4902 25.983C24.3498 25.9953 24.22 26.0627 24.1294 26.1706C24.0387 26.2785 23.9947 26.418 24.0069 26.5584C24.0191 26.6987 24.0866 26.8285 24.1945 26.9191ZM26.0626 24.0512L26.8024 24.3205C26.9345 24.3678 27.08 24.3609 27.2071 24.3013C27.3342 24.2417 27.4325 24.1342 27.4805 24.0023C27.5286 23.8705 27.5225 23.7249 27.4637 23.5975C27.4048 23.4701 27.2979 23.3712 27.1663 23.3223L26.4262 23.0527C26.2938 23.0045 26.1476 23.0109 26.0199 23.0704C25.8921 23.13 25.7933 23.2378 25.745 23.3703C25.6968 23.5027 25.7032 23.6489 25.7627 23.7766C25.8223 23.9044 25.9302 24.003 26.0626 24.0512ZM26.3064 20.1856C26.3064 20.3264 26.3624 20.4616 26.462 20.5612C26.5617 20.6608 26.6968 20.7168 26.8377 20.7168H27.625C27.7659 20.7168 27.901 20.6608 28.0007 20.5612C28.1003 20.4616 28.1562 20.3264 28.1562 20.1856C28.1562 20.0447 28.1003 19.9095 28.0007 19.8099C27.901 19.7103 27.7659 19.6543 27.625 19.6543H26.8377C26.6968 19.6543 26.5617 19.7103 26.462 19.8099C26.3624 19.9095 26.3064 20.0447 26.3064 20.1856ZM26.8024 16.0508L26.0626 16.3202C25.9302 16.3684 25.8224 16.4673 25.7629 16.5951C25.7034 16.7228 25.697 16.869 25.7453 17.0014C25.7936 17.1338 25.8924 17.2416 26.0202 17.3011C26.1479 17.3606 26.2941 17.3669 26.4265 17.3187L27.166 17.0491C27.2965 16.9994 27.4021 16.9004 27.4602 16.7735C27.5182 16.6465 27.524 16.5019 27.4762 16.3707C27.4284 16.2396 27.331 16.1325 27.2049 16.0726C27.0788 16.0128 26.9342 16.0049 26.8024 16.0508ZM24.7974 12.9459L24.1945 13.4522C24.0887 13.5435 24.0231 13.6727 24.0119 13.8119C24.0007 13.9511 24.0448 14.0891 24.1346 14.1961C24.2244 14.3031 24.3528 14.3703 24.4918 14.3834C24.6309 14.3964 24.7695 14.3542 24.8776 14.2658L25.4806 13.7598C25.5349 13.7152 25.5798 13.6603 25.6128 13.5983C25.6457 13.5363 25.666 13.4683 25.6725 13.3984C25.679 13.3284 25.6716 13.2579 25.6506 13.1908C25.6297 13.1238 25.5957 13.0615 25.5505 13.0077C25.5053 12.9539 25.45 12.9096 25.3876 12.8773C25.3252 12.845 25.257 12.8255 25.187 12.8197C25.117 12.814 25.0465 12.8222 24.9797 12.8438C24.9129 12.8655 24.8507 12.9002 24.7974 12.9459ZM15.7943 32.9356C15.6534 32.9356 15.5183 32.9915 15.4187 33.0912C15.319 33.1908 15.2631 33.3259 15.2631 33.4668C15.2631 33.6077 15.319 33.7428 15.4187 33.8425C15.5183 33.9421 15.6534 33.9981 15.7943 33.9981H18.2059C18.3468 33.9981 18.482 33.9421 18.5816 33.8425C18.6812 33.7428 18.7372 33.6077 18.7372 33.4668C18.7372 33.3259 18.6812 33.1908 18.5816 33.0912C18.482 32.9915 18.3468 32.9356 18.2059 32.9356H15.7943ZM19.9035 30.4679C20.4199 28.489 21.5183 26.802 22.3199 25.5703C22.5261 25.2537 22.7202 24.9548 22.8812 24.6879C23.1095 24.3108 23.3213 23.9239 23.516 23.5284C24.0957 22.4181 24.411 21.1889 24.4375 19.9367C24.4375 16.5173 22.3218 13.6116 19.4015 12.6001L18.5478 13.4541C21.3103 14.1402 23.375 16.785 23.375 19.9367C23.3472 21.0272 23.0688 22.0967 22.5611 23.0623C22.3799 23.4301 22.1828 23.7899 21.9704 24.1407C21.8198 24.3912 21.6301 24.6823 21.4296 24.9907C20.5881 26.2832 19.4355 28.0536 18.8756 30.1993C18.8386 30.3569 18.7549 30.4995 18.6354 30.6086C18.5159 30.7177 18.3662 30.7881 18.2059 30.8106H17.5312V26.0293H18.3281C18.469 26.0293 18.6041 25.9733 18.7038 25.8737C18.8034 25.7741 18.8594 25.6389 18.8594 25.4981C18.8594 25.3572 18.8034 25.222 18.7038 25.1224C18.6041 25.0228 18.469 24.9668 18.3281 24.9668H15.6719C15.531 24.9668 15.3959 25.0228 15.2962 25.1224C15.1966 25.222 15.1406 25.3572 15.1406 25.4981C15.1406 25.6389 15.1966 25.7741 15.2962 25.8737C15.3959 25.9733 15.531 26.0293 15.6719 26.0293H16.4688V30.8106H15.7941C15.6339 30.7881 15.4843 30.7177 15.3649 30.6087C15.2455 30.4996 15.1619 30.357 15.125 30.1996C14.5645 28.0534 13.4117 26.2824 12.5699 24.9894C12.3694 24.6813 12.18 24.3907 12.0299 24.141C11.8175 23.7902 11.6204 23.4304 11.4391 23.0625C10.9316 22.0969 10.653 21.0275 10.625 19.9369C10.625 16.7856 12.6897 14.1405 15.4522 13.4543L14.5985 12.6006C11.6782 13.6113 9.5625 16.5173 9.5625 19.9367C9.58923 21.189 9.90465 22.4182 10.4842 23.5287C10.6789 23.9243 10.8908 24.3112 11.1191 24.6884C11.2795 24.9546 11.4737 25.2531 11.6795 25.5692C12.4817 26.8009 13.5798 28.4885 14.097 30.4679C14.1923 30.8529 14.4087 31.1972 14.7142 31.4501C15.0197 31.703 15.3983 31.8513 15.7943 31.8731H18.2059C18.6019 31.8512 18.9805 31.7029 19.286 31.45C19.5915 31.1971 19.8081 30.8529 19.9035 30.4679Z" fill="black"/>
<path d="M23.375 -0.00195312H10.625C10.2025 -0.00146102 9.79737 0.166609 9.49859 0.465389C9.19981 0.764168 9.03174 1.16926 9.03125 1.5918V9.0293C9.03174 9.45183 9.19981 9.85693 9.49859 10.1557C9.79737 10.4545 10.2025 10.6226 10.625 10.623H14.1238L16.6244 13.1236C16.724 13.2232 16.8591 13.2792 17 13.2792C17.1409 13.2792 17.276 13.2232 17.3756 13.1236L19.8762 10.623H23.375C23.7975 10.6226 24.2026 10.4545 24.5014 10.1557C24.8002 9.85693 24.9683 9.45183 24.9688 9.0293V1.5918C24.9683 1.16926 24.8002 0.764168 24.5014 0.465389C24.2026 0.166609 23.7975 -0.00146102 23.375 -0.00195312ZM23.9062 9.0293C23.9061 9.17015 23.8501 9.30519 23.7505 9.40479C23.6509 9.50439 23.5159 9.56041 23.375 9.56055H19.6562C19.5154 9.56058 19.3803 9.61657 19.2807 9.7162L17 11.9963L14.7193 9.71594C14.6197 9.6164 14.4846 9.56051 14.3438 9.56055H10.625C10.4841 9.56041 10.3491 9.50439 10.2495 9.40479C10.1499 9.30519 10.0939 9.17015 10.0938 9.0293V1.5918C10.0939 1.45094 10.1499 1.3159 10.2495 1.2163C10.3491 1.1167 10.4841 1.06069 10.625 1.06055H23.375C23.5159 1.06069 23.6509 1.1167 23.7505 1.2163C23.8501 1.3159 23.9061 1.45094 23.9062 1.5918V9.0293Z" fill="black"/>
<path d="M21.25 2.6543H12.75C12.6091 2.6543 12.474 2.71027 12.3743 2.8099C12.2747 2.90953 12.2188 3.04465 12.2188 3.18555C12.2188 3.32644 12.2747 3.46157 12.3743 3.5612C12.474 3.66083 12.6091 3.7168 12.75 3.7168H21.25C21.3909 3.7168 21.526 3.66083 21.6257 3.5612C21.7253 3.46157 21.7812 3.32644 21.7812 3.18555C21.7812 3.04465 21.7253 2.90953 21.6257 2.8099C21.526 2.71027 21.3909 2.6543 21.25 2.6543ZM21.25 4.7793H12.75C12.6091 4.7793 12.474 4.83527 12.3743 4.9349C12.2747 5.03453 12.2188 5.16965 12.2188 5.31055C12.2188 5.45144 12.2747 5.58657 12.3743 5.6862C12.474 5.78583 12.6091 5.8418 12.75 5.8418H21.25C21.3909 5.8418 21.526 5.78583 21.6257 5.6862C21.7253 5.58657 21.7812 5.45144 21.7812 5.31055C21.7812 5.16965 21.7253 5.03453 21.6257 4.9349C21.526 4.83527 21.3909 4.7793 21.25 4.7793ZM21.25 6.9043H12.75C12.6091 6.9043 12.474 6.96027 12.3743 7.0599C12.2747 7.15953 12.2188 7.29465 12.2188 7.43555C12.2188 7.57644 12.2747 7.71157 12.3743 7.8112C12.474 7.91083 12.6091 7.9668 12.75 7.9668H21.25C21.3909 7.9668 21.526 7.91083 21.6257 7.8112C21.7253 7.71157 21.7812 7.57644 21.7812 7.43555C21.7812 7.29465 21.7253 7.15953 21.6257 7.0599C21.526 6.96027 21.3909 6.9043 21.25 6.9043Z" fill="black"/>
</g>
<defs>
<clipPath id="clip0_1352_1312">
<rect width="34" height="34" fill="white" transform="translate(0 -0.00195312)"/>
</clipPath>
</defs>
</svg>
