<svg width="48" height="49" viewBox="0 0 48 49" fill="none" xmlns="http://www.w3.org/2000/svg">
<path d="M16.6875 21.4917C17.1875 21.4917 17.6406 21.5776 18.0469 21.7495C18.4531 21.9214 18.8125 22.1636 19.125 22.4761L27.6562 17.5542C27.625 17.4292 27.6016 17.2808 27.5859 17.1089C27.5703 16.937 27.5625 16.8042 27.5625 16.7104C27.5625 15.6792 27.9062 14.812 28.5938 14.1089C29.2812 13.4058 30.1406 13.0542 31.1719 13.0542C32.2031 13.0542 33.0625 13.4058 33.75 14.1089C34.4375 14.812 34.7812 15.6792 34.7812 16.7104C34.7812 17.7104 34.4375 18.562 33.75 19.2651C33.0625 19.9683 32.2031 20.3198 31.1719 20.3198C30.7031 20.3198 30.2578 20.2339 29.8359 20.062C29.4141 19.8901 29.0625 19.6479 28.7812 19.3354L20.2031 24.3042C20.2656 24.3979 20.3047 24.5308 20.3203 24.7026C20.3359 24.8745 20.3438 25.0229 20.3438 25.1479C20.3438 25.2417 20.3359 25.3745 20.3203 25.5464C20.3047 25.7183 20.2656 25.8667 20.2031 25.9917L28.7812 31.0542C29.0625 30.7417 29.4141 30.4995 29.8359 30.3276C30.2578 30.1558 30.7031 30.0698 31.1719 30.0698C32.1406 30.0698 32.9688 30.4136 33.6562 31.1011C34.3438 31.7886 34.6875 32.6167 34.6875 33.5854C34.6875 34.5542 34.3438 35.3745 33.6562 36.0464C32.9688 36.7183 32.1406 37.0542 31.1719 37.0542C30.2031 37.0542 29.375 36.7183 28.6875 36.0464C28 35.3745 27.6562 34.5542 27.6562 33.5854C27.6562 33.4604 27.6641 33.3276 27.6797 33.187C27.6953 33.0464 27.7344 32.8979 27.7969 32.7417L19.2188 27.6792C18.9375 27.9604 18.5859 28.187 18.1641 28.3589C17.7422 28.5308 17.2969 28.6167 16.8281 28.6167C15.7969 28.6167 14.9375 28.2729 14.25 27.5854C13.5625 26.8979 13.2188 26.0386 13.2188 25.0073C13.2188 23.9761 13.5469 23.1323 14.2031 22.4761C14.8594 21.8198 15.6875 21.4917 16.6875 21.4917Z" fill="#FFD522"/>
</svg>
