<svg width="15" height="16" viewBox="0 0 15 16" fill="none" xmlns="http://www.w3.org/2000/svg">
<path d="M2.3125 5.625C2.64583 5.625 2.94792 5.68229 3.21875 5.79688C3.48958 5.91146 3.72917 6.07292 3.9375 6.28125L9.625 3C9.60417 2.91667 9.58854 2.81771 9.57812 2.70312C9.56771 2.58854 9.5625 2.5 9.5625 2.4375C9.5625 1.75 9.79167 1.17188 10.25 0.703125C10.7083 0.234375 11.2812 0 11.9688 0C12.6562 0 13.2292 0.234375 13.6875 0.703125C14.1458 1.17188 14.375 1.75 14.375 2.4375C14.375 3.10417 14.1458 3.67188 13.6875 4.14062C13.2292 4.60938 12.6562 4.84375 11.9688 4.84375C11.6562 4.84375 11.3594 4.78646 11.0781 4.67188C10.7969 4.55729 10.5625 4.39583 10.375 4.1875L4.65625 7.5C4.69792 7.5625 4.72396 7.65104 4.73438 7.76562C4.74479 7.88021 4.75 7.97917 4.75 8.0625C4.75 8.125 4.74479 8.21354 4.73438 8.32812C4.72396 8.44271 4.69792 8.54167 4.65625 8.625L10.375 12C10.5625 11.7917 10.7969 11.6302 11.0781 11.5156C11.3594 11.401 11.6562 11.3438 11.9688 11.3438C12.6146 11.3438 13.1667 11.5729 13.625 12.0312C14.0833 12.4896 14.3125 13.0417 14.3125 13.6875C14.3125 14.3333 14.0833 14.8802 13.625 15.3281C13.1667 15.776 12.6146 16 11.9688 16C11.3229 16 10.7708 15.776 10.3125 15.3281C9.85417 14.8802 9.625 14.3333 9.625 13.6875C9.625 13.6042 9.63021 13.5156 9.64062 13.4219C9.65104 13.3281 9.67708 13.2292 9.71875 13.125L4 9.75C3.8125 9.9375 3.57812 10.0885 3.29688 10.2031C3.01562 10.3177 2.71875 10.375 2.40625 10.375C1.71875 10.375 1.14583 10.1458 0.6875 9.6875C0.229167 9.22917 0 8.65625 0 7.96875C0 7.28125 0.21875 6.71875 0.65625 6.28125C1.09375 5.84375 1.64583 5.625 2.3125 5.625Z" fill="black"/>
</svg>
